<svg width="12" height="12" viewBox="0 0 12 12" fill="none" xmlns="http://www.w3.org/2000/svg">
<path d="M6 0C4.81331 0 3.65328 0.351894 2.66658 1.01118C1.67989 1.67047 0.910851 2.60754 0.456725 3.7039C0.00259971 4.80025 -0.11622 6.00665 0.115291 7.17054C0.346802 8.33443 0.918247 9.40352 1.75736 10.2426C2.59648 11.0818 3.66557 11.6532 4.82946 11.8847C5.99335 12.1162 7.19975 11.9974 8.2961 11.5433C9.39246 11.0891 10.3295 10.3201 10.9888 9.33342C11.6481 8.34672 12 7.18669 12 6C11.9982 4.40926 11.3655 2.88418 10.2406 1.75936C9.11582 0.63453 7.59075 0.00180869 6 0V0ZM8.62477 6.5001H6.50011V8.62539C6.50011 8.75802 6.44742 8.88523 6.35363 8.97901C6.25984 9.0728 6.13264 9.12549 6 9.12549C5.86737 9.12549 5.74016 9.0728 5.64638 8.97901C5.55259 8.88523 5.4999 8.75802 5.4999 8.62539V6.5001H3.37524C3.2426 6.5001 3.1154 6.44741 3.02161 6.35363C2.92782 6.25984 2.87513 6.13263 2.87513 6C2.87513 5.86736 2.92782 5.74016 3.02161 5.64637C3.1154 5.55259 3.2426 5.4999 3.37524 5.4999H5.4999V3.37523C5.4999 3.2426 5.55259 3.11539 5.64638 3.02161C5.74016 2.92782 5.86737 2.87513 6 2.87513C6.13264 2.87513 6.25984 2.92782 6.35363 3.02161C6.44742 3.11539 6.50011 3.2426 6.50011 3.37523V5.4999H8.62539C8.75803 5.4999 8.88523 5.55259 8.97902 5.64637C9.0728 5.74016 9.12549 5.86736 9.12549 6C9.12549 6.13263 9.0728 6.25984 8.97902 6.35363C8.88523 6.44741 8.75803 6.5001 8.62539 6.5001H8.62477Z" fill="white"/>
</svg>
