<svg xmlns="http://www.w3.org/2000/svg" width="77.757" height="45.358" viewBox="0 0 77.757 45.358">
  <g id="arrow" transform="translate(-129.334 -612)" opacity="0.5">
    <path id="Caminho_166" data-name="Caminho 166" d="M16.2,0H3.24a3.24,3.24,0,0,0,0,6.48H16.2A3.24,3.24,0,0,0,16.2,0Z" transform="translate(129.334 644.44) rotate(-90)" fill="#929292"/>
    <path id="Caminho_163" data-name="Caminho 163" d="M45.017,17.991a3.243,3.243,0,0,0-2.9-1.792H32.4V3.24A3.239,3.239,0,0,0,29.157,0H16.2a3.241,3.241,0,0,0-3.24,3.24V16.2H3.238A3.239,3.239,0,0,0,.649,21.383L20.089,47.3a3.237,3.237,0,0,0,5.181,0l19.44-25.919A3.237,3.237,0,0,0,45.017,17.991Z" transform="translate(158.493 657.359) rotate(-90)" fill="#929292"/>
    <path id="Caminho_164" data-name="Caminho 164" d="M16.2,0H3.24a3.24,3.24,0,1,0,0,6.48H16.2A3.24,3.24,0,1,0,16.2,0Z" transform="translate(148.773 644.44) rotate(-90)" fill="#929292"/>
    <path id="Caminho_165" data-name="Caminho 165" d="M16.2,0H3.24a3.24,3.24,0,1,0,0,6.48H16.2A3.24,3.24,0,1,0,16.2,0Z" transform="translate(139.054 644.44) rotate(-90)" fill="#929292"/>
  </g>
</svg>
