<svg width="826" height="675" viewBox="0 0 826 675" fill="none" xmlns="http://www.w3.org/2000/svg">
<path d="M220 336.5L0 0H826V674.5L0.5 675L220 336.5Z" fill="#33383E"/>
<g opacity="0.25">
<path opacity="0.25" d="M495.06 366.908H431.699V370H495.06V366.908Z" fill="#0A0A0A"/>
<path opacity="0.25" d="M492.19 368.233C492.19 369.346 479.09 370.249 462.938 370.249C446.786 370.249 433.687 369.349 433.687 368.233C433.687 367.117 446.787 366.218 462.938 366.218C479.089 366.218 492.19 367.119 492.19 368.233Z" fill="#0A0A0A"/>
<path opacity="0.25" d="M462.938 370.206C478.749 370.206 491.567 369.322 491.567 368.233C491.567 367.143 478.749 366.26 462.938 366.26C447.126 366.26 434.309 367.143 434.309 368.233C434.309 369.322 447.126 370.206 462.938 370.206Z" fill="#0A0A0A"/>
<path opacity="0.25" d="M490.945 368.234C490.945 369.3 478.405 370.164 462.938 370.164C447.471 370.164 434.932 369.3 434.932 368.234C434.932 367.168 447.471 366.304 462.938 366.304C478.405 366.304 490.945 367.168 490.945 368.234Z" fill="#0A0A0A"/>
<path opacity="0.25" d="M462.938 370.12C478.061 370.12 490.321 369.275 490.321 368.233C490.321 367.191 478.061 366.346 462.938 366.346C447.814 366.346 435.555 367.191 435.555 368.233C435.555 369.275 447.814 370.12 462.938 370.12Z" fill="#0A0A0A"/>
<path opacity="0.25" d="M489.698 368.233C489.698 369.252 477.718 370.077 462.937 370.077C448.156 370.077 436.178 369.252 436.178 368.233C436.178 367.214 448.158 366.39 462.937 366.39C477.716 366.39 489.698 367.217 489.698 368.233Z" fill="#0A0A0A"/>
<path opacity="0.25" d="M489.074 368.233C489.074 369.227 477.374 370.033 462.937 370.033C448.5 370.033 436.801 369.226 436.801 368.233C436.801 367.24 448.501 366.433 462.937 366.433C477.373 366.433 489.074 367.238 489.074 368.233Z" fill="#0A0A0A"/>
<path opacity="0.25" d="M462.938 369.991C477.029 369.991 488.452 369.204 488.452 368.233C488.452 367.262 477.029 366.475 462.938 366.475C448.847 366.475 437.424 367.262 437.424 368.233C437.424 369.204 448.847 369.991 462.938 369.991Z" fill="#0A0A0A"/>
<path opacity="0.25" d="M487.829 368.233C487.829 369.18 476.685 369.948 462.938 369.948C449.191 369.948 438.046 369.18 438.046 368.233C438.046 367.286 449.192 366.518 462.938 366.518C476.684 366.518 487.829 367.286 487.829 368.233Z" fill="#0A0A0A"/>
<path opacity="0.25" d="M462.938 369.905C476.341 369.905 487.206 369.156 487.206 368.233C487.206 367.309 476.341 366.561 462.938 366.561C449.535 366.561 438.67 367.309 438.67 368.233C438.67 369.156 449.535 369.905 462.938 369.905Z" fill="#0A0A0A"/>
<path opacity="0.25" d="M462.938 369.862C475.997 369.862 486.583 369.132 486.583 368.233C486.583 367.333 475.997 366.604 462.938 366.604C449.879 366.604 439.293 367.333 439.293 368.233C439.293 369.132 449.879 369.862 462.938 369.862Z" fill="#0A0A0A"/>
<path opacity="0.25" d="M485.958 368.234C485.958 369.11 475.651 369.821 462.938 369.821C450.224 369.821 439.915 369.111 439.915 368.234C439.915 367.357 450.222 366.648 462.938 366.648C475.653 366.648 485.958 367.357 485.958 368.234Z" fill="#0A0A0A"/>
<path opacity="0.25" d="M462.938 369.776C475.308 369.776 485.337 369.085 485.337 368.233C485.337 367.381 475.308 366.69 462.938 366.69C450.567 366.69 440.539 367.381 440.539 368.233C440.539 369.085 450.567 369.776 462.938 369.776Z" fill="#0A0A0A"/>
<path opacity="0.25" d="M484.715 368.234C484.715 369.062 474.965 369.734 462.938 369.734C450.911 369.734 441.163 369.062 441.163 368.234C441.163 367.406 450.911 366.734 462.938 366.734C474.965 366.734 484.715 367.405 484.715 368.234Z" fill="#0A0A0A"/>
<path opacity="0.25" d="M484.092 368.233C484.092 369.038 474.621 369.691 462.939 369.691C451.257 369.691 441.786 369.039 441.786 368.233C441.786 367.427 451.257 366.776 462.939 366.776C474.621 366.776 484.092 367.429 484.092 368.233Z" fill="#0A0A0A"/>
<path opacity="0.25" d="M462.938 369.648C474.276 369.648 483.468 369.014 483.468 368.233C483.468 367.451 474.276 366.818 462.938 366.818C451.599 366.818 442.408 367.451 442.408 368.233C442.408 369.014 451.599 369.648 462.938 369.648Z" fill="#0A0A0A"/>
<path opacity="0.25" d="M482.845 368.234C482.845 368.991 473.932 369.606 462.937 369.606C451.942 369.606 443.031 368.991 443.031 368.234C443.031 367.477 451.943 366.862 462.937 366.862C473.931 366.862 482.845 367.476 482.845 368.234Z" fill="#0A0A0A"/>
<path opacity="0.25" d="M482.222 368.233C482.222 368.967 473.588 369.561 462.938 369.561C452.288 369.561 443.654 368.967 443.654 368.233C443.654 367.499 452.287 366.904 462.938 366.904C473.589 366.904 482.222 367.498 482.222 368.233Z" fill="#0A0A0A"/>
<path opacity="0.25" d="M462.938 369.519C473.244 369.519 481.599 368.943 481.599 368.233C481.599 367.523 473.244 366.947 462.938 366.947C452.632 366.947 444.277 367.523 444.277 368.233C444.277 368.943 452.632 369.519 462.938 369.519Z" fill="#0A0A0A"/>
<path opacity="0.25" d="M480.976 368.233C480.976 368.92 472.9 369.476 462.937 369.476C452.974 369.476 444.899 368.92 444.899 368.233C444.899 367.546 452.975 366.99 462.937 366.99C472.899 366.99 480.976 367.546 480.976 368.233Z" fill="#0A0A0A"/>
<path opacity="0.25" d="M462.938 369.433C472.556 369.433 480.353 368.895 480.353 368.233C480.353 367.57 472.556 367.033 462.938 367.033C453.32 367.033 445.523 367.57 445.523 368.233C445.523 368.895 453.32 369.433 462.938 369.433Z" fill="#0A0A0A"/>
<path opacity="0.25" d="M462.938 369.39C472.211 369.39 479.73 368.872 479.73 368.233C479.73 367.594 472.211 367.076 462.938 367.076C453.664 367.076 446.146 367.594 446.146 368.233C446.146 368.872 453.664 369.39 462.938 369.39Z" fill="#0A0A0A"/>
<path opacity="0.25" d="M479.108 368.233C479.108 368.848 471.867 369.347 462.938 369.347C454.009 369.347 446.77 368.847 446.77 368.233C446.77 367.619 454.008 367.119 462.938 367.119C471.868 367.119 479.108 367.618 479.108 368.233Z" fill="#0A0A0A"/>
<path opacity="0.25" d="M462.938 369.304C471.523 369.304 478.484 368.824 478.484 368.233C478.484 367.641 471.523 367.162 462.938 367.162C454.352 367.162 447.392 367.641 447.392 368.233C447.392 368.824 454.352 369.304 462.938 369.304Z" fill="#0A0A0A"/>
<path opacity="0.25" d="M462.938 369.261C471.179 369.261 477.861 368.801 477.861 368.233C477.861 367.665 471.179 367.205 462.938 367.205C454.696 367.205 448.015 367.665 448.015 368.233C448.015 368.801 454.696 369.261 462.938 369.261Z" fill="#0A0A0A"/>
<path opacity="0.25" d="M477.238 368.233C477.238 368.777 470.838 369.218 462.938 369.218C455.038 369.218 448.638 368.777 448.638 368.233C448.638 367.689 455.038 367.248 462.938 367.248C470.838 367.248 477.238 367.689 477.238 368.233Z" fill="#0A0A0A"/>
<path opacity="0.25" d="M462.938 369.175C470.491 369.175 476.615 368.753 476.615 368.233C476.615 367.713 470.491 367.291 462.938 367.291C455.384 367.291 449.261 367.713 449.261 368.233C449.261 368.753 455.384 369.175 462.938 369.175Z" fill="#0A0A0A"/>
<path opacity="0.25" d="M475.992 368.234C475.992 368.734 470.146 369.134 462.937 369.134C455.728 369.134 449.884 368.734 449.884 368.234C449.884 367.734 455.728 367.334 462.937 367.334C470.146 367.334 475.992 367.736 475.992 368.234Z" fill="#0A0A0A"/>
<path opacity="0.25" d="M462.938 369.089C469.803 369.089 475.369 368.705 475.369 368.233C475.369 367.76 469.803 367.377 462.938 367.377C456.072 367.377 450.507 367.76 450.507 368.233C450.507 368.705 456.072 369.089 462.938 369.089Z" fill="#0A0A0A"/>
<path opacity="0.25" d="M462.938 369.047C469.459 369.047 474.746 368.682 474.746 368.233C474.746 367.783 469.459 367.419 462.938 367.419C456.417 367.419 451.13 367.783 451.13 368.233C451.13 368.682 456.417 369.047 462.938 369.047Z" fill="#0A0A0A"/>
<path opacity="0.25" d="M474.125 368.233C474.125 368.659 469.117 369.004 462.94 369.004C456.763 369.004 451.753 368.659 451.753 368.233C451.753 367.807 456.761 367.462 462.94 367.462C469.119 367.462 474.125 367.807 474.125 368.233Z" fill="#0A0A0A"/>
<path opacity="0.25" d="M473.5 368.231C473.5 368.631 468.772 368.959 462.938 368.959C457.103 368.959 452.375 368.633 452.375 368.231C452.375 367.829 457.106 367.503 462.938 367.503C468.769 367.503 473.5 367.831 473.5 368.231Z" fill="#0A0A0A"/>
<path opacity="0.25" d="M472.877 368.233C472.877 368.611 468.427 368.917 462.937 368.917C457.447 368.917 452.999 368.611 452.999 368.233C452.999 367.855 457.449 367.548 462.937 367.548C468.425 367.548 472.877 367.854 472.877 368.233Z" fill="#0A0A0A"/>
<path opacity="0.25" d="M472.256 368.233C472.256 368.588 468.084 368.875 462.938 368.875C457.792 368.875 453.623 368.588 453.623 368.233C453.623 367.878 457.793 367.591 462.938 367.591C468.083 367.591 472.256 367.878 472.256 368.233Z" fill="#0A0A0A"/>
<path opacity="0.25" d="M471.631 368.233C471.631 368.564 467.74 368.833 462.938 368.833C458.136 368.833 454.245 368.564 454.245 368.233C454.245 367.902 458.137 367.633 462.938 367.633C467.739 367.633 471.631 367.903 471.631 368.233Z" fill="#0A0A0A"/>
<path opacity="0.25" d="M471.008 368.233C471.008 368.54 467.395 368.789 462.937 368.789C458.479 368.789 454.868 368.54 454.868 368.233C454.868 367.926 458.481 367.677 462.937 367.677C467.393 367.677 471.008 367.926 471.008 368.233Z" fill="#0A0A0A"/>
<path opacity="0.25" d="M462.938 368.746C467.051 368.746 470.385 368.516 470.385 368.233C470.385 367.949 467.051 367.72 462.938 367.72C458.825 367.72 455.491 367.949 455.491 368.233C455.491 368.516 458.825 368.746 462.938 368.746Z" fill="#0A0A0A"/>
<path opacity="0.25" d="M462.938 368.703C466.707 368.703 469.762 368.492 469.762 368.233C469.762 367.973 466.707 367.763 462.938 367.763C459.169 367.763 456.114 367.973 456.114 368.233C456.114 368.492 459.169 368.703 462.938 368.703Z" fill="#0A0A0A"/>
<path opacity="0.25" d="M469.138 368.234C469.138 368.47 466.362 368.662 462.938 368.662C459.514 368.662 456.738 368.471 456.738 368.234C456.738 367.997 459.515 367.806 462.938 367.806C466.361 367.806 469.138 367.998 469.138 368.234Z" fill="#0A0A0A"/>
<path opacity="0.25" d="M462.938 368.617C466.019 368.617 468.516 368.445 468.516 368.233C468.516 368.021 466.019 367.849 462.938 367.849C459.857 367.849 457.36 368.021 457.36 368.233C457.36 368.445 459.857 368.617 462.938 368.617Z" fill="#0A0A0A"/>
<path opacity="0.25" d="M467.894 368.233C467.894 368.422 465.675 368.575 462.937 368.575C460.199 368.575 457.982 368.422 457.982 368.233C457.982 368.044 460.201 367.892 462.937 367.892C465.673 367.892 467.894 368.045 467.894 368.233Z" fill="#0A0A0A"/>
<path opacity="0.25" d="M467.271 368.234C464.396 368.632 461.481 368.632 458.606 368.234C461.481 367.835 464.396 367.835 467.271 368.234V368.234Z" fill="#0A0A0A"/>
</g>
<path d="M470.263 303L463.38 309.883L486.921 333.424L493.804 326.541L470.263 303Z" fill="#4B7184"/>
<path d="M439.835 333.428L432.952 340.311L456.493 363.852L463.376 356.969L439.835 333.428Z" fill="#4B7184"/>
<path d="M486.924 333.428L463.38 356.972L470.264 363.856L493.807 340.312L486.924 333.428Z" fill="#4A7282"/>
<path d="M456.496 303L432.952 326.544L439.836 333.428L463.38 309.884L456.496 303Z" fill="#4A7282"/>
<path d="M463.381 309.884V322.1L474.71 333.429H486.925L463.381 309.884Z" fill="#4AA6A4"/>
<path d="M486.924 333.428H474.709L463.38 344.756V356.971L486.924 333.428Z" fill="#19313A"/>
<path d="M463.381 356.972V344.757L452.052 333.429H439.836L463.381 356.972Z" fill="#4AA6A4"/>
<path d="M439.836 333.428H452.051L463.38 322.099V309.884L439.836 333.428Z" fill="#19313A"/>
<path d="M423.329 343.724C423.329 351.524 417.564 355.975 406.1 355.975H385V310.115H404.785C415.006 310.115 420.901 314.438 420.901 321.907C420.987 324.162 420.354 326.386 419.094 328.258C417.835 330.131 416.012 331.554 413.891 332.324C419.791 333.634 423.329 337.499 423.329 343.724ZM389.851 314.112V330.752H404.46C411.797 330.752 416.06 327.935 416.06 322.432C416.06 316.929 411.801 314.112 404.46 314.112H389.851ZM418.481 343.331C418.481 337.369 414.091 334.749 406.034 334.749H389.851V351.979H406.034C414.091 351.978 418.481 349.358 418.481 343.33V343.331Z" fill="white"/>
<path d="M539.945 355.975L525.145 335.797L510.404 355.975H504.832L522.259 332.39L505.946 310.116H511.515L525.332 328.852L539.091 310.115H544.332L528.085 332.258L545.577 355.974L539.945 355.975Z" fill="white"/>
<path d="M567.463 335.534V310.115H580.435V335.141C580.435 343.003 583.711 346.148 589.149 346.148C594.521 346.148 597.797 343.003 597.797 335.141V310.115H610.572V335.534C610.572 349.227 602.579 356.891 589.016 356.891C575.453 356.891 567.463 349.227 567.463 335.534Z" fill="white"/>
<path d="M670.521 327.083C670.521 337.5 662.659 343.983 650.145 343.983H642.152V355.975H629.181V310.115H650.145C662.656 310.115 670.521 316.605 670.521 327.083ZM657.421 327.083C657.421 322.824 654.735 320.335 649.362 320.335H642.156V333.765H649.362C654.728 333.765 657.413 331.276 657.413 327.083H657.421Z" fill="white"/>
</svg>
