<svg width="826" height="675" viewBox="0 0 826 675" fill="none" xmlns="http://www.w3.org/2000/svg">
<path d="M220 336.5L0 0H826V674.5L0.5 675L220 336.5Z" fill="#33383E"/>
<path d="M549.058 226.004L523.961 251.101L609.808 336.949L634.906 311.851L549.058 226.004Z" fill="#4B7184"/>
<path d="M438.098 336.967L413 362.065L498.846 447.911L523.944 422.813L438.098 336.967Z" fill="#4B7184"/>
<path d="M609.82 336.963L523.961 422.822L549.062 447.923L634.921 362.064L609.82 336.963Z" fill="#4A7282"/>
<path d="M498.859 226L413 311.859L438.102 336.961L523.961 251.102L498.859 226Z" fill="#4A7282"/>
<path d="M523.961 251.102V295.65L565.272 336.963H609.818L523.961 251.102Z" fill="#4AA6A4"/>
<path d="M609.818 336.961H565.272L523.961 378.27V422.82L609.818 336.961Z" fill="#19313A"/>
<path d="M523.958 422.822V378.275L482.65 336.963H438.1L523.958 422.822Z" fill="#4AA6A4"/>
<path d="M438.098 336.963H482.641L523.956 295.65V251.102L438.098 336.963Z" fill="#19313A"/>
</svg>
