<svg xmlns="http://www.w3.org/2000/svg" width="125.54" height="124.523" viewBox="0 0 125.54 124.523">
  <g id="Grupo_61" data-name="Grupo 61" transform="translate(-1313.4 -1315)">
    <path id="Caminho_190" data-name="Caminho 190" d="M1412.786,1415.8h-11.475a50.313,50.313,0,0,0,3.4-64.513h16.14a18.144,18.144,0,1,0,0-36.289h-12.1a18.166,18.166,0,0,0-18.144,18.144v5.329a50.4,50.4,0,0,0-63.151,77.329H1326.1v4.032h38.3a38.316,38.316,0,1,0-17.1-4.032H1333.19a46.347,46.347,0,0,1,57.419-72.495v7.981h8.9a46.335,46.335,0,0,1-35.111,76.61h-34.273v4.032h82.658v7.593l26.1-15.657-26.1-15.657Zm-82.658-34.273A34.273,34.273,0,1,1,1364.4,1415.8a34.312,34.312,0,0,1-34.273-34.273Zm64.513-48.385a14.128,14.128,0,0,1,14.112-14.112h12.1a14.112,14.112,0,1,1,0,28.225h-26.208Zm22.176,82.187,14.225,8.535-14.225,8.535v-4.5h-32.674a50.463,50.463,0,0,0,12.958-8.064h19.716Zm0,0" transform="translate(-0.054)" fill="#4aa6a4"/>
    <rect id="Retângulo_78" data-name="Retângulo 78" width="4" height="3" transform="translate(1318.4 1415.826)" fill="#4aa6a4"/>
    <rect id="Retângulo_79" data-name="Retângulo 79" width="5" height="4" transform="translate(1313.4 1427.826)" fill="#4aa6a4"/>
    <rect id="Retângulo_80" data-name="Retângulo 80" width="3" height="4" transform="translate(1322.4 1427.826)" fill="#4aa6a4"/>
    <path id="Caminho_191" data-name="Caminho 191" d="M1434.481,1453.241a30.241,30.241,0,1,0-30.241,30.24,30.275,30.275,0,0,0,30.241-30.24Zm-44.5,11.4-5.627,5.627a26.068,26.068,0,0,1-6.225-15.013h7.963v-4.032h-7.961a26.056,26.056,0,0,1,6.226-15.014l5.625,5.626,2.851-2.851-5.627-5.627a26.072,26.072,0,0,1,15.014-6.226v7.959h4.032v-7.962a26.067,26.067,0,0,1,15.014,6.227l-5.627,5.625,2.851,2.851,5.625-5.627a26.068,26.068,0,0,1,6.226,15.014h-7.962v4.032h7.962a26.065,26.065,0,0,1-6.226,15.014l-5.625-5.627-2.851,2.851,5.627,5.625a26.071,26.071,0,0,1-15.014,6.227v-7.962h-4.032v7.962a26.066,26.066,0,0,1-15.014-6.227l5.627-5.625Zm0,0" transform="translate(-39.894 -71.711)" fill="#4aa6a4"/>
    <path id="Caminho_192" data-name="Caminho 192" d="M1452.048,1491.16a5.966,5.966,0,0,0,2.591-.606l4.048,4.048,2.851-2.851-4.048-4.048a5.967,5.967,0,0,0,.607-2.591,6.041,6.041,0,0,0-4.032-5.677V1471h-4.032v8.435a6.033,6.033,0,0,0,2.016,11.725Zm0-8.064a2.016,2.016,0,1,1-2.016,2.016,2.02,2.02,0,0,1,2.016-2.016Zm0,0" transform="translate(-87.701 -103.583)" fill="#4aa6a4"/>
    <rect id="Retângulo_81" data-name="Retângulo 81" width="20" height="4" transform="translate(1404.4 1322.826)" fill="#4aa6a4"/>
    <rect id="Retângulo_82" data-name="Retângulo 82" width="20" height="3" transform="translate(1404.4 1331.826)" fill="#4aa6a4"/>
    <rect id="Retângulo_83" data-name="Retângulo 83" width="4" height="4" transform="translate(1420.4 1338.826)" fill="#4aa6a4"/>
    <rect id="Retângulo_84" data-name="Retângulo 84" width="4" height="4" transform="translate(1412.4 1338.826)" fill="#4aa6a4"/>
    <rect id="Retângulo_85" data-name="Retângulo 85" width="4" height="4" transform="translate(1404.4 1338.826)" fill="#4aa6a4"/>
  </g>
</svg>
