<svg width="286" height="68" viewBox="0 0 286 68" fill="none" xmlns="http://www.w3.org/2000/svg">
<g opacity="0.25">
<path opacity="0.25" d="M110.06 63.9077H46.6987V66.9997H110.06V63.9077Z" fill="#0A0A0A"/>
<path opacity="0.25" d="M107.19 65.2328C107.19 66.3458 94.09 67.2488 77.938 67.2488C61.786 67.2488 48.687 66.3488 48.687 65.2328C48.687 64.1168 61.787 63.2178 77.938 63.2178C94.089 63.2178 107.19 64.1188 107.19 65.2328Z" fill="#0A0A0A"/>
<path opacity="0.25" d="M77.9376 67.2058C93.749 67.2058 106.567 66.3224 106.567 65.2328C106.567 64.1431 93.749 63.2598 77.9376 63.2598C62.1262 63.2598 49.3086 64.1431 49.3086 65.2328C49.3086 66.3224 62.1262 67.2058 77.9376 67.2058Z" fill="#0A0A0A"/>
<path opacity="0.25" d="M105.945 65.2338C105.945 66.2998 93.4047 67.1638 77.9377 67.1638C62.4707 67.1638 49.9316 66.2998 49.9316 65.2338C49.9316 64.1678 62.4707 63.3037 77.9377 63.3037C93.4047 63.3037 105.945 64.1678 105.945 65.2338Z" fill="#0A0A0A"/>
<path opacity="0.25" d="M77.9377 67.1197C93.0609 67.1197 105.321 66.2749 105.321 65.2327C105.321 64.1905 93.0609 63.3457 77.9377 63.3457C62.8145 63.3457 50.5547 64.1905 50.5547 65.2327C50.5547 66.2749 62.8145 67.1197 77.9377 67.1197Z" fill="#0A0A0A"/>
<path opacity="0.25" d="M104.698 65.2329C104.698 66.2519 92.7178 67.0769 77.9368 67.0769C63.1558 67.0769 51.1777 66.2519 51.1777 65.2329C51.1777 64.2139 63.1578 63.3899 77.9368 63.3899C92.7158 63.3899 104.698 64.2169 104.698 65.2329Z" fill="#0A0A0A"/>
<path opacity="0.25" d="M104.074 65.2328C104.074 66.2268 92.3738 67.0328 77.9368 67.0328C63.4998 67.0328 51.8008 66.2258 51.8008 65.2328C51.8008 64.2398 63.5008 63.4329 77.9368 63.4329C92.3728 63.4329 104.074 64.2378 104.074 65.2328Z" fill="#0A0A0A"/>
<path opacity="0.25" d="M77.9378 66.9909C92.0288 66.9909 103.452 66.2038 103.452 65.2329C103.452 64.2619 92.0288 63.4749 77.9378 63.4749C63.8468 63.4749 52.4238 64.2619 52.4238 65.2329C52.4238 66.2038 63.8468 66.9909 77.9378 66.9909Z" fill="#0A0A0A"/>
<path opacity="0.25" d="M102.829 65.2328C102.829 66.1798 91.685 66.9478 77.938 66.9478C64.191 66.9478 53.0459 66.1798 53.0459 65.2328C53.0459 64.2858 64.192 63.5178 77.938 63.5178C91.684 63.5178 102.829 64.2858 102.829 65.2328Z" fill="#0A0A0A"/>
<path opacity="0.25" d="M77.9379 66.9048C91.3408 66.9048 102.206 66.1562 102.206 65.2328C102.206 64.3094 91.3408 63.5608 77.9379 63.5608C64.5351 63.5608 53.6699 64.3094 53.6699 65.2328C53.6699 66.1562 64.5351 66.9048 77.9379 66.9048Z" fill="#0A0A0A"/>
<path opacity="0.25" d="M77.938 66.8618C90.9967 66.8618 101.583 66.1324 101.583 65.2328C101.583 64.3331 90.9967 63.6038 77.938 63.6038C64.8792 63.6038 54.293 64.3331 54.293 65.2328C54.293 66.1324 64.8792 66.8618 77.938 66.8618Z" fill="#0A0A0A"/>
<path opacity="0.25" d="M100.958 65.2337C100.958 66.1097 90.6515 66.8207 77.9375 66.8207C65.2235 66.8207 54.9146 66.1107 54.9146 65.2337C54.9146 64.3567 65.2225 63.6477 77.9375 63.6477C90.6525 63.6477 100.958 64.3567 100.958 65.2337Z" fill="#0A0A0A"/>
<path opacity="0.25" d="M77.9376 66.7757C90.3082 66.7757 100.337 66.0849 100.337 65.2327C100.337 64.3805 90.3082 63.6897 77.9376 63.6897C65.5669 63.6897 55.5386 64.3805 55.5386 65.2327C55.5386 66.0849 65.5669 66.7757 77.9376 66.7757Z" fill="#0A0A0A"/>
<path opacity="0.25" d="M99.7146 65.2336C99.7146 66.0616 89.9655 66.7336 77.9385 66.7336C65.9115 66.7336 56.1626 66.0616 56.1626 65.2336C56.1626 64.4056 65.9115 63.7336 77.9385 63.7336C89.9655 63.7336 99.7146 64.4046 99.7146 65.2336Z" fill="#0A0A0A"/>
<path opacity="0.25" d="M99.0918 65.2327C99.0918 66.0377 89.6207 66.6907 77.9387 66.6907C66.2567 66.6907 56.7856 66.0387 56.7856 65.2327C56.7856 64.4267 66.2567 63.7756 77.9387 63.7756C89.6207 63.7756 99.0918 64.4287 99.0918 65.2327Z" fill="#0A0A0A"/>
<path opacity="0.25" d="M77.9377 66.6479C89.2761 66.6479 98.4677 66.0144 98.4677 65.2329C98.4677 64.4514 89.2761 63.8179 77.9377 63.8179C66.5993 63.8179 57.4077 64.4514 57.4077 65.2329C57.4077 66.0144 66.5993 66.6479 77.9377 66.6479Z" fill="#0A0A0A"/>
<path opacity="0.25" d="M97.8447 65.2338C97.8447 65.9908 88.9318 66.6058 77.9368 66.6058C66.9418 66.6058 58.0308 65.9908 58.0308 65.2338C58.0308 64.4768 66.9428 63.8618 77.9368 63.8618C88.9308 63.8618 97.8447 64.4758 97.8447 65.2338Z" fill="#0A0A0A"/>
<path opacity="0.25" d="M97.2219 65.2328C97.2219 65.9668 88.588 66.5608 77.938 66.5608C67.288 66.5608 58.6538 65.9668 58.6538 65.2328C58.6538 64.4988 67.287 63.9038 77.938 63.9038C88.589 63.9038 97.2219 64.4978 97.2219 65.2328Z" fill="#0A0A0A"/>
<path opacity="0.25" d="M77.9379 66.5188C88.244 66.5188 96.5989 65.943 96.5989 65.2328C96.5989 64.5225 88.244 63.9468 77.9379 63.9468C67.6317 63.9468 59.2769 64.5225 59.2769 65.2328C59.2769 65.943 67.6317 66.5188 77.9379 66.5188Z" fill="#0A0A0A"/>
<path opacity="0.25" d="M95.9758 65.2327C95.9758 65.9197 87.9 66.4757 77.937 66.4757C67.974 66.4757 59.8989 65.9197 59.8989 65.2327C59.8989 64.5457 67.975 63.9897 77.937 63.9897C87.899 63.9897 95.9758 64.5457 95.9758 65.2327Z" fill="#0A0A0A"/>
<path opacity="0.25" d="M77.938 66.4327C87.556 66.4327 95.353 65.8955 95.353 65.2327C95.353 64.57 87.556 64.0327 77.938 64.0327C68.3199 64.0327 60.5229 64.57 60.5229 65.2327C60.5229 65.8955 68.3199 66.4327 77.938 66.4327Z" fill="#0A0A0A"/>
<path opacity="0.25" d="M77.9375 66.3897C87.2115 66.3897 94.7295 65.8717 94.7295 65.2327C94.7295 64.5937 87.2115 64.0757 77.9375 64.0757C68.6635 64.0757 61.1455 64.5937 61.1455 65.2327C61.1455 65.8717 68.6635 66.3897 77.9375 66.3897Z" fill="#0A0A0A"/>
<path opacity="0.25" d="M94.1077 65.2327C94.1077 65.8477 86.8675 66.3467 77.9385 66.3467C69.0095 66.3467 61.7695 65.8467 61.7695 65.2327C61.7695 64.6187 69.0085 64.1187 77.9385 64.1187C86.8685 64.1187 94.1077 64.6177 94.1077 65.2327Z" fill="#0A0A0A"/>
<path opacity="0.25" d="M77.9376 66.3039C86.5234 66.3039 93.4836 65.8244 93.4836 65.2329C93.4836 64.6414 86.5234 64.1619 77.9376 64.1619C69.3518 64.1619 62.3916 64.6414 62.3916 65.2329C62.3916 65.8244 69.3518 66.3039 77.9376 66.3039Z" fill="#0A0A0A"/>
<path opacity="0.25" d="M77.9376 66.2608C86.1794 66.2608 92.8606 65.8006 92.8606 65.2328C92.8606 64.6651 86.1794 64.2048 77.9376 64.2048C69.6959 64.2048 63.0146 64.6651 63.0146 65.2328C63.0146 65.8006 69.6959 66.2608 77.9376 66.2608Z" fill="#0A0A0A"/>
<path opacity="0.25" d="M92.2378 65.2328C92.2378 65.7768 85.8377 66.2178 77.9377 66.2178C70.0377 66.2178 63.6377 65.7768 63.6377 65.2328C63.6377 64.6888 70.0377 64.2478 77.9377 64.2478C85.8377 64.2478 92.2378 64.6888 92.2378 65.2328Z" fill="#0A0A0A"/>
<path opacity="0.25" d="M77.9377 66.1748C85.4913 66.1748 91.6147 65.753 91.6147 65.2328C91.6147 64.7125 85.4913 64.2908 77.9377 64.2908C70.3841 64.2908 64.2607 64.7125 64.2607 65.2328C64.2607 65.753 70.3841 66.1748 77.9377 66.1748Z" fill="#0A0A0A"/>
<path opacity="0.25" d="M90.9917 65.2338C90.9917 65.7338 85.1458 66.1338 77.9368 66.1338C70.7278 66.1338 64.8838 65.7338 64.8838 65.2338C64.8838 64.7338 70.7278 64.3337 77.9368 64.3337C85.1458 64.3337 90.9917 64.7358 90.9917 65.2338Z" fill="#0A0A0A"/>
<path opacity="0.25" d="M77.9378 66.0887C84.8033 66.0887 90.3688 65.7055 90.3688 65.2327C90.3688 64.76 84.8033 64.3767 77.9378 64.3767C71.0724 64.3767 65.5068 64.76 65.5068 65.2327C65.5068 65.7055 71.0724 66.0887 77.9378 66.0887Z" fill="#0A0A0A"/>
<path opacity="0.25" d="M77.9376 66.0467C84.459 66.0467 89.7456 65.6823 89.7456 65.2327C89.7456 64.7831 84.459 64.4187 77.9376 64.4187C71.4163 64.4187 66.1296 64.7831 66.1296 65.2327C66.1296 65.6823 71.4163 66.0467 77.9376 66.0467Z" fill="#0A0A0A"/>
<path opacity="0.25" d="M89.1245 65.2327C89.1245 65.6587 84.1167 66.0037 77.9397 66.0037C71.7627 66.0037 66.7527 65.6587 66.7527 65.2327C66.7527 64.8067 71.7607 64.4617 77.9397 64.4617C84.1187 64.4617 89.1245 64.8067 89.1245 65.2327Z" fill="#0A0A0A"/>
<path opacity="0.25" d="M88.5007 65.2307C88.5007 65.6307 83.7717 65.9587 77.9377 65.9587C72.1037 65.9587 67.3757 65.6327 67.3757 65.2307C67.3757 64.8287 72.1057 64.5027 77.9377 64.5027C83.7697 64.5027 88.5007 64.8307 88.5007 65.2307Z" fill="#0A0A0A"/>
<path opacity="0.25" d="M87.8767 65.2328C87.8767 65.6108 83.4268 65.9168 77.9368 65.9168C72.4468 65.9168 67.9988 65.6108 67.9988 65.2328C67.9988 64.8548 72.4488 64.5479 77.9368 64.5479C83.4248 64.5479 87.8767 64.8538 87.8767 65.2328Z" fill="#0A0A0A"/>
<path opacity="0.25" d="M87.2559 65.2328C87.2559 65.5878 83.0847 65.8748 77.9387 65.8748C72.7927 65.8748 68.6228 65.5878 68.6228 65.2328C68.6228 64.8778 72.7937 64.5908 77.9387 64.5908C83.0837 64.5908 87.2559 64.8778 87.2559 65.2328Z" fill="#0A0A0A"/>
<path opacity="0.25" d="M86.6306 65.2328C86.6306 65.5638 82.7397 65.8328 77.9377 65.8328C73.1357 65.8328 69.2446 65.5638 69.2446 65.2328C69.2446 64.9018 73.1367 64.6328 77.9377 64.6328C82.7387 64.6328 86.6306 64.9028 86.6306 65.2328Z" fill="#0A0A0A"/>
<path opacity="0.25" d="M86.0078 65.2328C86.0078 65.5398 82.3948 65.7888 77.9368 65.7888C73.4788 65.7888 69.8679 65.5398 69.8679 65.2328C69.8679 64.9258 73.4808 64.6768 77.9368 64.6768C82.3928 64.6768 86.0078 64.9258 86.0078 65.2328Z" fill="#0A0A0A"/>
<path opacity="0.25" d="M77.9377 65.7457C82.0506 65.7457 85.3847 65.516 85.3847 65.2327C85.3847 64.9494 82.0506 64.7197 77.9377 64.7197C73.8249 64.7197 70.4907 64.9494 70.4907 65.2327C70.4907 65.516 73.8249 65.7457 77.9377 65.7457Z" fill="#0A0A0A"/>
<path opacity="0.25" d="M77.9378 65.7027C81.7066 65.7027 84.7618 65.4923 84.7618 65.2327C84.7618 64.9731 81.7066 64.7627 77.9378 64.7627C74.169 64.7627 71.1138 64.9731 71.1138 65.2327C71.1138 65.4923 74.169 65.7027 77.9378 65.7027Z" fill="#0A0A0A"/>
<path opacity="0.25" d="M84.1377 65.2336C84.1377 65.4696 81.3617 65.6617 77.9377 65.6617C74.5137 65.6617 71.7378 65.4706 71.7378 65.2336C71.7378 64.9966 74.5147 64.8057 77.9377 64.8057C81.3607 64.8057 84.1377 64.9976 84.1377 65.2336Z" fill="#0A0A0A"/>
<path opacity="0.25" d="M77.9376 65.6169C81.0183 65.6169 83.5156 65.445 83.5156 65.2329C83.5156 65.0208 81.0183 64.8489 77.9376 64.8489C74.857 64.8489 72.3596 65.0208 72.3596 65.2329C72.3596 65.445 74.857 65.6169 77.9376 65.6169Z" fill="#0A0A0A"/>
<path opacity="0.25" d="M82.8938 65.2328C82.8938 65.4218 80.6748 65.5749 77.9368 65.5749C75.1988 65.5749 72.9827 65.4218 72.9827 65.2328C72.9827 65.0438 75.2008 64.8918 77.9368 64.8918C80.6728 64.8918 82.8938 65.0448 82.8938 65.2328Z" fill="#0A0A0A"/>
<path opacity="0.25" d="M82.2705 65.2336C79.3959 65.6317 76.4803 65.6317 73.6057 65.2336C76.4803 64.8352 79.3959 64.8352 82.2705 65.2336V65.2336Z" fill="#0A0A0A"/>
</g>
<path d="M85.2625 0.000168193L78.3799 6.88281L101.921 30.4238L108.804 23.5411L85.2625 0.000168193Z" fill="#4B7184"/>
<path d="M54.8348 30.4284L47.9521 37.311L71.4931 60.852L78.3758 53.9694L54.8348 30.4284Z" fill="#4B7184"/>
<path d="M101.924 30.4281L78.3799 53.9719L85.2636 60.8556L108.807 37.3118L101.924 30.4281Z" fill="#4A7282"/>
<path d="M71.496 0.000117315L47.9521 23.5439L54.8358 30.4276L78.3797 6.8838L71.496 0.000117315Z" fill="#4A7282"/>
<path d="M78.3809 6.88379V19.0998L89.7097 30.4288H101.925L78.3809 6.88379Z" fill="#4AA6A4"/>
<path d="M101.924 30.4277H89.7087L78.3799 41.7557V53.9708L101.924 30.4277Z" fill="#19313A"/>
<path d="M78.3811 53.9717V41.7567L67.052 30.4287H54.8359L78.3811 53.9717Z" fill="#4AA6A4"/>
<path d="M54.8359 30.4278H67.051L78.3801 19.0988V6.88379L54.8359 30.4278Z" fill="#19313A"/>
<path d="M38.3289 40.7237C38.3289 48.5237 32.5639 52.9747 21.0999 52.9747H0V7.11475H19.7849C30.0059 7.11475 35.9009 11.4377 35.9009 18.9067C35.987 21.1618 35.3544 23.386 34.0945 25.2583C32.8345 27.1306 31.0124 28.5542 28.8909 29.3237C34.7909 30.6337 38.3289 34.4987 38.3289 40.7237ZM4.85083 11.1117V27.7517H19.46C26.797 27.7517 31.0598 24.9347 31.0598 19.4317C31.0598 13.9287 26.801 11.1117 19.46 11.1117H4.85083ZM33.481 40.3307C33.481 34.3687 29.0909 31.7487 21.0339 31.7487H4.85083V48.9787H21.0339C29.0909 48.9777 33.481 46.3577 33.481 40.3297V40.3307Z" fill="#BEBEBE"/>
<path d="M154.945 52.9747L140.145 32.7968L125.404 52.9747H119.832L137.259 29.3897L120.946 7.11572H126.515L140.332 25.8517L154.091 7.11475H159.332L143.085 29.2578L160.577 52.9737L154.945 52.9747Z" fill="#BEBEBE"/>
<path d="M182.463 32.5338V7.11475H195.435V32.1407C195.435 40.0027 198.711 43.1477 204.149 43.1477C209.521 43.1477 212.797 40.0027 212.797 32.1407V7.11475H225.572V32.5338C225.572 46.2268 217.579 53.8907 204.016 53.8907C190.453 53.8907 182.463 46.2268 182.463 32.5338Z" fill="#BEBEBE"/>
<path d="M285.521 24.0827C285.521 34.4997 277.659 40.9827 265.145 40.9827H257.152V52.9747H244.181V7.11475H265.145C277.656 7.11475 285.521 13.6047 285.521 24.0827ZM272.421 24.0827C272.421 19.8237 269.735 17.3347 264.362 17.3347H257.156V30.7647H264.362C269.728 30.7647 272.413 28.2757 272.413 24.0827H272.421Z" fill="#BEBEBE"/>
</svg>
