<svg width="287" height="68" viewBox="0 0 287 68" fill="none" xmlns="http://www.w3.org/2000/svg">
<g opacity="0.25">
<path opacity="0.25" d="M111.056 63.908H47.6948V67H111.056V63.908Z" fill="#0A0A0A"/>
<path opacity="0.25" d="M108.186 65.233C108.186 66.346 95.0861 67.249 78.9341 67.249C62.7821 67.249 49.6831 66.349 49.6831 65.233C49.6831 64.117 62.7831 63.218 78.9341 63.218C95.0851 63.218 108.186 64.119 108.186 65.233Z" fill="#0A0A0A"/>
<path opacity="0.25" d="M78.9337 67.206C94.745 67.206 107.563 66.3227 107.563 65.233C107.563 64.1434 94.745 63.26 78.9337 63.26C63.1223 63.26 50.3047 64.1434 50.3047 65.233C50.3047 66.3227 63.1223 67.206 78.9337 67.206Z" fill="#0A0A0A"/>
<path opacity="0.25" d="M106.941 65.234C106.941 66.3 94.4008 67.164 78.9338 67.164C63.4668 67.164 50.9277 66.3 50.9277 65.234C50.9277 64.168 63.4668 63.304 78.9338 63.304C94.4008 63.304 106.941 64.168 106.941 65.234Z" fill="#0A0A0A"/>
<path opacity="0.25" d="M78.9338 67.1199C94.057 67.1199 106.317 66.2751 106.317 65.2329C106.317 64.1908 94.057 63.3459 78.9338 63.3459C63.8106 63.3459 51.5508 64.1908 51.5508 65.2329C51.5508 66.2751 63.8106 67.1199 78.9338 67.1199Z" fill="#0A0A0A"/>
<path opacity="0.25" d="M105.694 65.2332C105.694 66.2522 93.7139 67.0771 78.9329 67.0771C64.1519 67.0771 52.1738 66.2522 52.1738 65.2332C52.1738 64.2142 64.1539 63.3901 78.9329 63.3901C93.7119 63.3901 105.694 64.2172 105.694 65.2332Z" fill="#0A0A0A"/>
<path opacity="0.25" d="M105.07 65.2331C105.07 66.2271 93.3699 67.0331 78.9329 67.0331C64.4959 67.0331 52.7969 66.2261 52.7969 65.2331C52.7969 64.2401 64.4969 63.4331 78.9329 63.4331C93.3689 63.4331 105.07 64.2381 105.07 65.2331Z" fill="#0A0A0A"/>
<path opacity="0.25" d="M78.9339 66.9911C93.0249 66.9911 104.448 66.204 104.448 65.2331C104.448 64.2622 93.0249 63.4751 78.9339 63.4751C64.8429 63.4751 53.4199 64.2622 53.4199 65.2331C53.4199 66.204 64.8429 66.9911 78.9339 66.9911Z" fill="#0A0A0A"/>
<path opacity="0.25" d="M103.825 65.233C103.825 66.18 92.6811 66.9481 78.9341 66.9481C65.1871 66.9481 54.042 66.18 54.042 65.233C54.042 64.286 65.1881 63.5181 78.9341 63.5181C92.6801 63.5181 103.825 64.286 103.825 65.233Z" fill="#0A0A0A"/>
<path opacity="0.25" d="M78.934 66.905C92.3369 66.905 103.202 66.1565 103.202 65.233C103.202 64.3096 92.3369 63.561 78.934 63.561C65.5312 63.561 54.666 64.3096 54.666 65.233C54.666 66.1565 65.5312 66.905 78.934 66.905Z" fill="#0A0A0A"/>
<path opacity="0.25" d="M78.9341 66.862C91.9928 66.862 102.579 66.1327 102.579 65.233C102.579 64.3333 91.9928 63.604 78.9341 63.604C65.8753 63.604 55.2891 64.3333 55.2891 65.233C55.2891 66.1327 65.8753 66.862 78.9341 66.862Z" fill="#0A0A0A"/>
<path opacity="0.25" d="M101.955 65.2339C101.955 66.1099 91.6476 66.8209 78.9336 66.8209C66.2196 66.8209 55.9106 66.1109 55.9106 65.2339C55.9106 64.3569 66.2186 63.6479 78.9336 63.6479C91.6486 63.6479 101.955 64.3569 101.955 65.2339Z" fill="#0A0A0A"/>
<path opacity="0.25" d="M78.9337 66.7759C91.3043 66.7759 101.333 66.0851 101.333 65.2329C101.333 64.3808 91.3043 63.6899 78.9337 63.6899C66.563 63.6899 56.5347 64.3808 56.5347 65.2329C56.5347 66.0851 66.563 66.7759 78.9337 66.7759Z" fill="#0A0A0A"/>
<path opacity="0.25" d="M100.711 65.2339C100.711 66.0619 90.9616 66.7339 78.9346 66.7339C66.9076 66.7339 57.1587 66.0619 57.1587 65.2339C57.1587 64.4059 66.9076 63.7339 78.9346 63.7339C90.9616 63.7339 100.711 64.4049 100.711 65.2339Z" fill="#0A0A0A"/>
<path opacity="0.25" d="M100.088 65.2329C100.088 66.0379 90.6168 66.6909 78.9348 66.6909C67.2528 66.6909 57.7817 66.0389 57.7817 65.2329C57.7817 64.4269 67.2528 63.7759 78.9348 63.7759C90.6168 63.7759 100.088 64.4289 100.088 65.2329Z" fill="#0A0A0A"/>
<path opacity="0.25" d="M78.9338 66.6481C90.2722 66.6481 99.4638 66.0146 99.4638 65.2331C99.4638 64.4516 90.2722 63.8181 78.9338 63.8181C67.5954 63.8181 58.4038 64.4516 58.4038 65.2331C58.4038 66.0146 67.5954 66.6481 78.9338 66.6481Z" fill="#0A0A0A"/>
<path opacity="0.25" d="M98.8408 65.2341C98.8408 65.9911 89.9279 66.6061 78.9329 66.6061C67.9379 66.6061 59.0269 65.9911 59.0269 65.2341C59.0269 64.4771 67.9389 63.8621 78.9329 63.8621C89.9269 63.8621 98.8408 64.4761 98.8408 65.2341Z" fill="#0A0A0A"/>
<path opacity="0.25" d="M98.218 65.233C98.218 65.967 89.5841 66.561 78.9341 66.561C68.2841 66.561 59.6499 65.967 59.6499 65.233C59.6499 64.499 68.2831 63.9041 78.9341 63.9041C89.5851 63.9041 98.218 64.498 98.218 65.233Z" fill="#0A0A0A"/>
<path opacity="0.25" d="M78.9339 66.519C89.2401 66.519 97.5949 65.9433 97.5949 65.233C97.5949 64.5228 89.2401 63.947 78.9339 63.947C68.6278 63.947 60.2729 64.5228 60.2729 65.233C60.2729 65.9433 68.6278 66.519 78.9339 66.519Z" fill="#0A0A0A"/>
<path opacity="0.25" d="M96.9719 65.233C96.9719 65.92 88.8961 66.476 78.9331 66.476C68.9701 66.476 60.895 65.92 60.895 65.233C60.895 64.546 68.9711 63.99 78.9331 63.99C88.8951 63.99 96.9719 64.546 96.9719 65.233Z" fill="#0A0A0A"/>
<path opacity="0.25" d="M78.934 66.433C88.5521 66.433 96.349 65.8957 96.349 65.233C96.349 64.5702 88.5521 64.033 78.934 64.033C69.316 64.033 61.519 64.5702 61.519 65.233C61.519 65.8957 69.316 66.433 78.934 66.433Z" fill="#0A0A0A"/>
<path opacity="0.25" d="M78.9336 66.3899C88.2076 66.3899 95.7256 65.8719 95.7256 65.2329C95.7256 64.5939 88.2076 64.0759 78.9336 64.0759C69.6596 64.0759 62.1416 64.5939 62.1416 65.2329C62.1416 65.8719 69.6596 66.3899 78.9336 66.3899Z" fill="#0A0A0A"/>
<path opacity="0.25" d="M95.1038 65.2329C95.1038 65.8479 87.8636 66.3469 78.9346 66.3469C70.0056 66.3469 62.7656 65.8469 62.7656 65.2329C62.7656 64.6189 70.0046 64.1189 78.9346 64.1189C87.8646 64.1189 95.1038 64.6179 95.1038 65.2329Z" fill="#0A0A0A"/>
<path opacity="0.25" d="M78.9337 66.3041C87.5195 66.3041 94.4797 65.8246 94.4797 65.2331C94.4797 64.6416 87.5195 64.1621 78.9337 64.1621C70.3479 64.1621 63.3877 64.6416 63.3877 65.2331C63.3877 65.8246 70.3479 66.3041 78.9337 66.3041Z" fill="#0A0A0A"/>
<path opacity="0.25" d="M78.9337 66.2611C87.1755 66.2611 93.8567 65.8008 93.8567 65.2331C93.8567 64.6653 87.1755 64.2051 78.9337 64.2051C70.692 64.2051 64.0107 64.6653 64.0107 65.2331C64.0107 65.8008 70.692 66.2611 78.9337 66.2611Z" fill="#0A0A0A"/>
<path opacity="0.25" d="M93.2339 65.233C93.2339 65.777 86.8338 66.218 78.9338 66.218C71.0338 66.218 64.6338 65.777 64.6338 65.233C64.6338 64.689 71.0338 64.248 78.9338 64.248C86.8338 64.248 93.2339 64.689 93.2339 65.233Z" fill="#0A0A0A"/>
<path opacity="0.25" d="M78.9338 66.175C86.4874 66.175 92.6108 65.7533 92.6108 65.233C92.6108 64.7128 86.4874 64.291 78.9338 64.291C71.3802 64.291 65.2568 64.7128 65.2568 65.233C65.2568 65.7533 71.3802 66.175 78.9338 66.175Z" fill="#0A0A0A"/>
<path opacity="0.25" d="M91.9878 65.234C91.9878 65.734 86.1419 66.134 78.9329 66.134C71.7239 66.134 65.8799 65.734 65.8799 65.234C65.8799 64.734 71.7239 64.334 78.9329 64.334C86.1419 64.334 91.9878 64.736 91.9878 65.234Z" fill="#0A0A0A"/>
<path opacity="0.25" d="M78.9339 66.089C85.7994 66.089 91.3649 65.7057 91.3649 65.233C91.3649 64.7602 85.7994 64.377 78.9339 64.377C72.0685 64.377 66.5029 64.7602 66.5029 65.233C66.5029 65.7057 72.0685 66.089 78.9339 66.089Z" fill="#0A0A0A"/>
<path opacity="0.25" d="M78.934 66.0469C85.4554 66.0469 90.742 65.6825 90.742 65.2329C90.742 64.7834 85.4554 64.4189 78.934 64.4189C72.4126 64.4189 67.126 64.7834 67.126 65.2329C67.126 65.6825 72.4126 66.0469 78.934 66.0469Z" fill="#0A0A0A"/>
<path opacity="0.25" d="M90.1208 65.2329C90.1208 65.6589 85.113 66.0039 78.936 66.0039C72.759 66.0039 67.749 65.6589 67.749 65.2329C67.749 64.8069 72.757 64.4619 78.936 64.4619C85.115 64.4619 90.1208 64.8069 90.1208 65.2329Z" fill="#0A0A0A"/>
<path opacity="0.25" d="M89.4966 65.2309C89.4966 65.6309 84.7676 65.9589 78.9336 65.9589C73.0996 65.9589 68.3716 65.6329 68.3716 65.2309C68.3716 64.8289 73.1016 64.5029 78.9336 64.5029C84.7656 64.5029 89.4966 64.8309 89.4966 65.2309Z" fill="#0A0A0A"/>
<path opacity="0.25" d="M88.873 65.2331C88.873 65.6111 84.4231 65.9171 78.9331 65.9171C73.4431 65.9171 68.9951 65.6111 68.9951 65.2331C68.9951 64.8551 73.4451 64.5481 78.9331 64.5481C84.4211 64.5481 88.873 64.8541 88.873 65.2331Z" fill="#0A0A0A"/>
<path opacity="0.25" d="M88.2517 65.2331C88.2517 65.5881 84.0806 65.8751 78.9346 65.8751C73.7886 65.8751 69.6187 65.5881 69.6187 65.2331C69.6187 64.8781 73.7896 64.5911 78.9346 64.5911C84.0796 64.5911 88.2517 64.8781 88.2517 65.2331Z" fill="#0A0A0A"/>
<path opacity="0.25" d="M87.6267 65.233C87.6267 65.564 83.7358 65.8331 78.9338 65.8331C74.1318 65.8331 70.2407 65.564 70.2407 65.233C70.2407 64.902 74.1328 64.6331 78.9338 64.6331C83.7348 64.6331 87.6267 64.903 87.6267 65.233Z" fill="#0A0A0A"/>
<path opacity="0.25" d="M87.0037 65.233C87.0037 65.54 83.3906 65.789 78.9326 65.789C74.4746 65.789 70.8638 65.54 70.8638 65.233C70.8638 64.926 74.4766 64.677 78.9326 64.677C83.3886 64.677 87.0037 64.926 87.0037 65.233Z" fill="#0A0A0A"/>
<path opacity="0.25" d="M78.9338 65.746C83.0467 65.746 86.3808 65.5163 86.3808 65.233C86.3808 64.9496 83.0467 64.72 78.9338 64.72C74.821 64.72 71.4868 64.9496 71.4868 65.233C71.4868 65.5163 74.821 65.746 78.9338 65.746Z" fill="#0A0A0A"/>
<path opacity="0.25" d="M78.9339 65.7029C82.7027 65.7029 85.7579 65.4925 85.7579 65.2329C85.7579 64.9734 82.7027 64.7629 78.9339 64.7629C75.1651 64.7629 72.1099 64.9734 72.1099 65.2329C72.1099 65.4925 75.1651 65.7029 78.9339 65.7029Z" fill="#0A0A0A"/>
<path opacity="0.25" d="M85.1338 65.2339C85.1338 65.4699 82.3578 65.6619 78.9338 65.6619C75.5098 65.6619 72.7339 65.4709 72.7339 65.2339C72.7339 64.9969 75.5108 64.8059 78.9338 64.8059C82.3568 64.8059 85.1338 64.9979 85.1338 65.2339Z" fill="#0A0A0A"/>
<path opacity="0.25" d="M78.934 65.6171C82.0146 65.6171 84.512 65.4452 84.512 65.2331C84.512 65.021 82.0146 64.8491 78.934 64.8491C75.8533 64.8491 73.356 65.021 73.356 65.2331C73.356 65.4452 75.8533 65.6171 78.934 65.6171Z" fill="#0A0A0A"/>
<path opacity="0.25" d="M83.8896 65.2331C83.8896 65.4221 81.6706 65.5751 78.9326 65.5751C76.1946 65.5751 73.9785 65.4221 73.9785 65.2331C73.9785 65.0441 76.1966 64.8921 78.9326 64.8921C81.6686 64.8921 83.8896 65.0451 83.8896 65.2331Z" fill="#0A0A0A"/>
<path opacity="0.25" d="M83.2668 65.2339C80.3922 65.632 77.4767 65.632 74.6021 65.2339C77.4766 64.8355 80.3923 64.8355 83.2668 65.2339Z" fill="#0A0A0A"/>
</g>
<path d="M86.2586 0.000412333L79.376 6.88306L102.917 30.424L109.8 23.5414L86.2586 0.000412333Z" fill="#4B7184"/>
<path d="M55.8309 30.4284L48.9482 37.311L72.4892 60.852L79.3719 53.9694L55.8309 30.4284Z" fill="#4B7184"/>
<path d="M102.92 30.4283L79.376 53.9722L86.2597 60.8559L109.803 37.312L102.92 30.4283Z" fill="#4A7282"/>
<path d="M72.4921 0.000361455L48.9482 23.5442L55.8319 30.4279L79.3758 6.88405L72.4921 0.000361455Z" fill="#4A7282"/>
<path d="M79.377 6.88403V19.1L90.7058 30.4291H102.921L79.377 6.88403Z" fill="#4AA6A4"/>
<path d="M102.92 30.428H90.7048L79.376 41.756V53.971L102.92 30.428Z" fill="#19313A"/>
<path d="M79.3772 53.972V41.757L68.0481 30.429H55.832L79.3772 53.972Z" fill="#4AA6A4"/>
<path d="M55.832 30.428H68.0471L79.3762 19.0991V6.88403L55.832 30.428Z" fill="#19313A"/>
<path d="M39.325 40.7239C39.325 48.5239 33.5599 52.975 22.0959 52.975H0.996094V7.11499H20.781C31.002 7.11499 36.897 11.438 36.897 18.907C36.9831 21.1621 36.3505 23.3863 35.0906 25.2585C33.8306 27.1308 32.0085 28.5544 29.887 29.324C35.787 30.634 39.325 34.4989 39.325 40.7239ZM5.84692 11.1119V27.752H20.4561C27.7931 27.752 32.0559 24.9349 32.0559 19.4319C32.0559 13.9289 27.7971 11.1119 20.4561 11.1119H5.84692ZM34.4771 40.331C34.4771 34.369 30.087 31.749 22.03 31.749H5.84692V48.9789H22.03C30.087 48.9779 34.4771 46.358 34.4771 40.33V40.331Z" fill="white"/>
<path d="M155.941 52.975L141.141 32.797L126.4 52.975H120.828L138.255 29.39L121.942 7.11597H127.511L141.328 25.852L155.087 7.11499H160.328L144.081 29.258L161.573 52.9739L155.941 52.975Z" fill="white"/>
<path d="M183.459 32.534V7.11499H196.431V32.141C196.431 40.003 199.707 43.1479 205.145 43.1479C210.517 43.1479 213.793 40.003 213.793 32.141V7.11499H226.568V32.534C226.568 46.227 218.575 53.891 205.012 53.891C191.449 53.891 183.459 46.227 183.459 32.534Z" fill="white"/>
<path d="M286.517 24.0829C286.517 34.4999 278.655 40.983 266.141 40.983H258.148V52.975H245.177V7.11499H266.141C278.652 7.11499 286.517 13.6049 286.517 24.0829ZM273.417 24.0829C273.417 19.8239 270.731 17.335 265.358 17.335H258.152V30.765H265.358C270.724 30.765 273.409 28.2759 273.409 24.0829H273.417Z" fill="white"/>
</svg>
