<svg width="9" height="10" viewBox="0 0 9 10" fill="none" xmlns="http://www.w3.org/2000/svg">
<path d="M5 5.75V3C5 2.46957 4.78929 1.96086 4.41421 1.58579C4.03914 1.21071 3.53043 1 3 1C2.46957 1 1.96086 1.21071 1.58579 1.58579C1.21071 1.96086 1 2.46957 1 3V5.75C1 6.61195 1.34241 7.4386 1.9519 8.0481C2.5614 8.65759 3.38805 9 4.25 9C5.11195 9 5.9386 8.65759 6.5481 8.0481C7.15759 7.4386 7.5 6.61195 7.5 5.75V1H8.5V5.75C8.5 6.87717 8.05223 7.95817 7.2552 8.7552C6.45817 9.55223 5.37717 10 4.25 10C3.12283 10 2.04183 9.55223 1.2448 8.7552C0.447767 7.95817 0 6.87717 0 5.75V3C0 2.20435 0.316071 1.44129 0.87868 0.87868C1.44129 0.31607 2.20435 0 3 0C3.79565 0 4.55871 0.31607 5.12132 0.87868C5.68393 1.44129 6 2.20435 6 3V5.75C6 6.21413 5.81563 6.65925 5.48744 6.98744C5.15925 7.31563 4.71413 7.5 4.25 7.5C3.78587 7.5 3.34075 7.31563 3.01256 6.98744C2.68437 6.65925 2.5 6.21413 2.5 5.75V3H3.5V5.75C3.5 5.94891 3.57902 6.13968 3.71967 6.28033C3.86032 6.42098 4.05109 6.5 4.25 6.5C4.44891 6.5 4.63968 6.42098 4.78033 6.28033C4.92098 6.13968 5 5.94891 5 5.75Z" fill="white"/>
</svg>
