<svg xmlns="http://www.w3.org/2000/svg" xmlns:xlink="http://www.w3.org/1999/xlink" width="24.051" height="23" viewBox="0 0 24.051 23">
  <defs>
    <clipPath id="clip-path">
      <rect id="Retângulo_42" data-name="Retângulo 42" width="24" height="23" transform="translate(0.093)" fill="#ffa238"/>
    </clipPath>
  </defs>
  <g id="clock" transform="translate(-0.042)">
    <g id="Grupo_32" data-name="Grupo 32">
      <g id="Grupo_31" data-name="Grupo 31" transform="translate(0 0)" clip-path="url(#clip-path)">
        <path id="Caminho_66" data-name="Caminho 66" d="M1267.768,1266.529a9.388,9.388,0,0,0-7.3-8.232v-1.182a1.581,1.581,0,0,0-.382-3.116h-3.349a1.581,1.581,0,0,0-.382,3.116v1.185a9.4,9.4,0,0,0-5.37,3.416l-.035,0h-3.315a.465.465,0,0,0,0,.93h2.717a9.332,9.332,0,0,0-.825,1.788h-5.062a.465.465,0,0,0,0,.93h4.8a9.435,9.435,0,0,0-.231,1.788h-2.057a.465.465,0,0,0,0,.93h2.072a9.448,9.448,0,0,0,.29,1.787h-3.013a.465.465,0,0,0,0,.93h3.31a9.394,9.394,0,0,0,7.854,6.014q.461.046.922.045a9.419,9.419,0,0,0,5.128-1.515.465.465,0,0,0-.508-.78,8.465,8.465,0,1,1,2.493-2.5.465.465,0,0,0,.78.506,9.423,9.423,0,0,0,1.463-6.045Zm-11.682-10.948a.652.652,0,0,1,.651-.651h3.349a.651.651,0,1,1,0,1.3h-3.349a.652.652,0,0,1-.651-.651Zm1.2,2.56v-.978h2.252v.976a9.459,9.459,0,0,0-2.252,0Zm0,0" transform="translate(-1243.958 -1253.924)" fill="#ffa238"/>
      </g>
    </g>
    <path id="Caminho_67" data-name="Caminho 67" d="M1680.242,1669.246a.465.465,0,1,0,.329.136.468.468,0,0,0-.329-.136Zm0,0" transform="translate(-1659.467 -1649.856)" fill="#ffa238"/>
    <path id="Caminho_68" data-name="Caminho 68" d="M1406.09,1388.348a7.215,7.215,0,1,0,7.215,7.215,7.224,7.224,0,0,0-7.215-7.215Zm0,13.5a6.285,6.285,0,1,1,6.285-6.285,6.292,6.292,0,0,1-6.285,6.285Zm0,0" transform="translate(-1391.63 -1382.023)" fill="#ffa238"/>
    <path id="Caminho_69" data-name="Caminho 69" d="M1506.445,1463.289l-2.3,2.3a1.437,1.437,0,0,0-1.277,0l-1.031-1.031a.465.465,0,0,0-.658.658l1.031,1.031a1.445,1.445,0,1,0,2.592,0l2.3-2.3a.465.465,0,0,0-.658-.658Zm-2.942,4.115a.515.515,0,1,1,.516-.515.516.516,0,0,1-.516.515Zm0,0" transform="translate(-1489.042 -1453.349)" fill="#ffa238"/>
    <path id="Caminho_70" data-name="Caminho 70" d="M1642.556,1533.6h-.431a.465.465,0,0,0,0,.93h.431a.465.465,0,0,0,0-.93Zm0,0" transform="translate(-1623.123 -1520.521)" fill="#ffa238"/>
    <path id="Caminho_71" data-name="Caminho 71" d="M1437.982,1533.359h-.431a.465.465,0,0,0,0,.93h.431a.465.465,0,0,0,0-.93Zm0,0" transform="translate(-1428.064 -1520.29)" fill="#ffa238"/>
    <path id="Caminho_72" data-name="Caminho 72" d="M1544.594,1427.92a.465.465,0,0,0,.465-.465v-.431a.465.465,0,0,0-.93,0v.431a.465.465,0,0,0,.465.465Zm0,0" transform="translate(-1530.128 -1418.457)" fill="#ffa238"/>
    <path id="Caminho_73" data-name="Caminho 73" d="M1544.348,1631.137a.465.465,0,0,0-.465.465v.431a.465.465,0,0,0,.93,0v-.431a.465.465,0,0,0-.465-.465Zm0,0" transform="translate(-1529.893 -1613.52)" fill="#ffa238"/>
    <path id="Caminho_74" data-name="Caminho 74" d="M1244.465,1595.184a.465.465,0,1,0,.329.136.469.469,0,0,0-.329-.136Zm0,0" transform="translate(-1243.958 -1579.239)" fill="#ffa238"/>
  </g>
</svg>
