<svg id="clock" xmlns="http://www.w3.org/2000/svg" width="18.751" height="18" viewBox="0 0 18.751 18">
  <path id="Caminho_196" data-name="Caminho 196" d="M1262.715,1263.866a7.392,7.392,0,0,0-5.748-6.482v-.93a1.245,1.245,0,0,0-.3-2.454h-2.637a1.245,1.245,0,0,0-.3,2.454v.933a7.351,7.351,0,0,0-3.607,1.984,7.448,7.448,0,0,0-.622.706l-.028,0h-2.61a.366.366,0,0,0,0,.733H1249a7.317,7.317,0,0,0-.65,1.408h-3.986a.366.366,0,0,0,0,.732h3.779a7.423,7.423,0,0,0-.182,1.408h-1.62a.366.366,0,1,0,0,.732h1.631a7.444,7.444,0,0,0,.229,1.408h-2.373a.366.366,0,0,0,0,.732h2.607a7.4,7.4,0,0,0,6.185,4.736q.363.036.726.036a7.416,7.416,0,0,0,4.038-1.193.366.366,0,0,0-.4-.614,6.666,6.666,0,1,1,1.963-1.966.366.366,0,0,0,.614.4,7.418,7.418,0,0,0,1.152-4.76Zm-9.2-8.621a.513.513,0,0,1,.513-.513h2.637a.513.513,0,1,1,0,1.026h-2.637a.513.513,0,0,1-.513-.513Zm.945,2.016v-.77h1.773v.769a7.472,7.472,0,0,0-1.773,0Zm0,0" transform="translate(-1244 -1254)" fill="#fff"/>
  <path id="Caminho_197" data-name="Caminho 197" d="M1680.143,1669.246a.366.366,0,1,0,.259.107.368.368,0,0,0-.259-.107Zm0,0" transform="translate(-1663.817 -1654.038)" fill="#fff"/>
  <path id="Caminho_198" data-name="Caminho 198" d="M1404.556,1388.348a5.682,5.682,0,1,0,5.681,5.682,5.688,5.688,0,0,0-5.681-5.682Zm0,10.631a4.949,4.949,0,1,1,4.949-4.949,4.955,4.955,0,0,1-4.949,4.949Zm0,0" transform="translate(-1393.203 -1383.428)" fill="#fff"/>
  <path id="Caminho_199" data-name="Caminho 199" d="M1505.295,1463.26l-1.814,1.814a1.134,1.134,0,0,0-1.005,0l-.812-.812a.366.366,0,0,0-.518.518l.812.812a1.138,1.138,0,1,0,2.042,0l1.814-1.814a.366.366,0,0,0-.518-.518Zm-2.317,3.24a.406.406,0,1,1,.405-.406.406.406,0,0,1-.405.406Zm0,0" transform="translate(-1491.625 -1455.493)" fill="#fff"/>
  <path id="Caminho_200" data-name="Caminho 200" d="M1642.366,1533.6h-.339a.366.366,0,1,0,0,.732h.339a.366.366,0,0,0,0-.732Zm0,0" transform="translate(-1627.096 -1523.362)" fill="#fff"/>
  <path id="Caminho_201" data-name="Caminho 201" d="M1437.792,1533.359h-.339a.366.366,0,0,0,0,.733h.339a.366.366,0,0,0,0-.733Zm0,0" transform="translate(-1430.015 -1523.127)" fill="#fff"/>
  <path id="Caminho_202" data-name="Caminho 202" d="M1544.5,1427.631a.367.367,0,0,0,.366-.366v-.339a.366.366,0,0,0-.733,0v.339a.366.366,0,0,0,.366.366Zm0,0" transform="translate(-1533.137 -1420.239)" fill="#fff"/>
  <path id="Caminho_203" data-name="Caminho 203" d="M1544.249,1631.137a.366.366,0,0,0-.366.366v.339a.366.366,0,1,0,.732,0v-.339a.366.366,0,0,0-.366-.366Zm0,0" transform="translate(-1532.9 -1617.324)" fill="#fff"/>
  <path id="Caminho_204" data-name="Caminho 204" d="M1244.366,1595.184a.366.366,0,1,0,.259.107.37.37,0,0,0-.259-.107Zm0,0" transform="translate(-1244 -1582.688)" fill="#fff"/>
</svg>
