<svg width="30" height="27" viewBox="0 0 30 27" fill="none" xmlns="http://www.w3.org/2000/svg">
<path d="M25.1205 2.233V9.33333H23.9538V2.233L20.8248 5.362L20 4.53717L24.5372 0L29.0743 4.53717L28.2495 5.362L25.1205 2.233Z" fill="#EA7171"/>
<path d="M12.0001 25C6.47712 25 2.00012 20.523 2.00012 15C2.00012 9.477 6.47712 5 12.0001 5C17.5231 5 22.0001 9.477 22.0001 15C22.0001 20.523 17.5231 25 12.0001 25ZM12.0001 23C14.1219 23 16.1567 22.1571 17.657 20.6569C19.1573 19.1566 20.0001 17.1217 20.0001 15C20.0001 12.8783 19.1573 10.8434 17.657 9.34315C16.1567 7.84285 14.1219 7 12.0001 7C9.87839 7 7.84356 7.84285 6.34327 9.34315C4.84298 10.8434 4.00012 12.8783 4.00012 15C4.00012 17.1217 4.84298 19.1566 6.34327 20.6569C7.84356 22.1571 9.87839 23 12.0001 23ZM8.50012 17H14.0001C14.1327 17 14.2599 16.9473 14.3537 16.8536C14.4474 16.7598 14.5001 16.6326 14.5001 16.5C14.5001 16.3674 14.4474 16.2402 14.3537 16.1464C14.2599 16.0527 14.1327 16 14.0001 16H10.0001C9.33708 16 8.7012 15.7366 8.23236 15.2678C7.76351 14.7989 7.50012 14.163 7.50012 13.5C7.50012 12.837 7.76351 12.2011 8.23236 11.7322C8.7012 11.2634 9.33708 11 10.0001 11H11.0001V9H13.0001V11H15.5001V13H10.0001C9.86751 13 9.74034 13.0527 9.64657 13.1464C9.5528 13.2402 9.50012 13.3674 9.50012 13.5C9.50012 13.6326 9.5528 13.7598 9.64657 13.8536C9.74034 13.9473 9.86751 14 10.0001 14H14.0001C14.6632 14 15.299 14.2634 15.7679 14.7322C16.2367 15.2011 16.5001 15.837 16.5001 16.5C16.5001 17.163 16.2367 17.7989 15.7679 18.2678C15.299 18.7366 14.6632 19 14.0001 19H13.0001V21H11.0001V19H8.50012V17Z" fill="#EA7171"/>
</svg>
