<svg xmlns="http://www.w3.org/2000/svg" width="36.847" height="36.878" viewBox="0 0 36.847 36.878">
  <g id="enginne" transform="translate(-1260.045 -1260)">
    <path id="Caminho_121" data-name="Caminho 121" d="M1311.859,1314.437a3.164,3.164,0,1,0-3.164-3.164,3.164,3.164,0,0,0,3.164,3.164Zm0-5.1a1.936,1.936,0,1,1-1.936,1.936,1.936,1.936,0,0,1,1.936-1.936Zm0,0" transform="translate(-44.954 -44.413)" fill="#4aa6a4"/>
    <path id="Caminho_122" data-name="Caminho 122" d="M1294.974,1288.75l-.237-6.194,1.155-1.589-1.4-2.575.281-.865,2.646-1.26V1273.7l-2.646-1.26-.281-.865,1.4-2.575-1.507-2.074-2.882.536-.736-.535-.381-2.906-2.437-.792-2.017,2.127h-.91l-2.016-2.127-2.438.792-.119.906-8.526-.508-.575-.575-.159-1.289-2.3-.956-1.025.8h-.832l-1.028-.8-2.3.955-.158,1.289-.589.589-1.289.158-.956,2.3.8,1.028v.833l-.8,1.023.761,1.835-.847,10.861a3.591,3.591,0,0,0-.032.417v.023h0v.048a3.678,3.678,0,0,0,5.17,3.367l3.633-1.514a3.66,3.66,0,0,0,1.618,4.391l-5.612,1.808a3.683,3.683,0,0,0,.715,7.3h.032l22.6-1.186.346.83,1.952.4,1.585-1.539.4-.134,2.191.282,1.323-1.491-.541-2.141.086-.417,1.34-1.756-.627-1.891Zm-13.29-23.8.964-.313,1.847,1.948h1.965l1.846-1.948.965.313.348,2.661,1.59,1.155,2.64-.491.595.82-1.282,2.359.607,1.869,2.423,1.154v1.013l-2.423,1.154-.607,1.869,1.282,2.358-.595.82-2.64-.491-1.59,1.155-.348,2.661-.965.313-1.846-1.948h-1.965l-1.847,1.948-.964-.313-.349-2.66-1.59-1.156-2.64.491-.6-.82,1.282-2.357-.607-1.87-2.423-1.154v-1.013l2.423-1.154.607-1.87-1.282-2.358.6-.82,2.64.491,1.59-1.157Zm-19.563,1.755.405-.982,1-.123,1.186-1.184.123-1,.982-.405.794.62h1.679l.79-.618.982.405.123,1,1.183,1.186,1,.123.406.982-.62.794v1.679l.62.794-.406.982-1,.123-1.186,1.186-.123,1-.982.406-.794-.62h-1.676l-.794.62-.982-.406-.123-1-1.185-1.192-1-.123-.405-.982.62-.794V1267.5Zm-.307,16.27.007-.1a2.32,2.32,0,1,1-.007.1Zm11.05.6a2.456,2.456,0,1,1-2.456,2.456,2.456,2.456,0,0,1,2.456-2.456Zm-9.208,11.05a2.455,2.455,0,0,1,1.423-2.221l.594-.191a2.453,2.453,0,1,1,.462,4.867h-.03a2.456,2.456,0,0,1-2.448-2.456Zm5.325,2.3a3.671,3.671,0,0,0-.982-5.464l6-1.929a3.683,3.683,0,1,0-2.517-6.915l-3.729,1.555a3.676,3.676,0,0,0-5.7-4.141l.614-7.832.3.036.589.589.158,1.289,2.3.953,1.025-.8h.833l1.025.8,2.3-.95.159-1.289.589-.589,1.289-.159.953-2.3-.8-1.025v-.836l.8-1.025-.471-1.139,6.584.39-.1.78-.737.535-2.881-.536-1.508,2.074,1.4,2.575-.281.864-2.646,1.261v2.565l2.646,1.26.281.865-1.4,2.575,1.508,2.074,2.881-.536.737.535.38,2.906,2.438.793,2.016-2.127h.91l2.016,2.127,2.438-.793.38-2.905.736-.535,2.019.375.147,3.841-.157-.375-1.953-.4-1.588,1.538-.4.135-2.191-.282-1.323,1.49.54,2.142-.086.417-1.339,1.756.629,1.891,2.125.6.318.282v0Zm25.968-4.537-.2.966.45,1.785-.461.519-1.825-.234-.936.311-1.32,1.281-.68-.139-.708-1.7-.737-.655-1.77-.5-.22-.659,1.116-1.463.2-.965-.45-1.785.461-.519,1.825.235.936-.311,1.321-1.282.68.14.709,1.7.736.654,1.77.5.219.66Zm0,0" transform="translate(-0.541 -1.479)" fill="#4aa6a4"/>
    <path id="Caminho_123" data-name="Caminho 123" d="M1295,1524.908a1.228,1.228,0,1,1-1.228-1.228,1.228,1.228,0,0,1,1.228,1.228Zm0,0" transform="translate(-30.046 -243.422)" fill="#4aa6a4"/>
    <path id="Caminho_124" data-name="Caminho 124" d="M1406.865,1564.857a1.228,1.228,0,1,1-1.228-1.228,1.228,1.228,0,0,1,1.228,1.228Zm0,0" transform="translate(-133.315 -280.301)" fill="#4aa6a4"/>
    <path id="Caminho_125" data-name="Caminho 125" d="M1318.972,1676.724a1.228,1.228,0,1,1-1.228-1.228,1.228,1.228,0,0,1,1.228,1.228Zm0,0" transform="translate(-52.174 -383.573)" fill="#4aa6a4"/>
    <path id="Caminho_126" data-name="Caminho 126" d="M1623.217,1619.562a3.069,3.069,0,1,0,3.07,3.07,3.069,3.069,0,0,0-3.07-3.07Zm0,4.911a1.842,1.842,0,1,1,1.842-1.842,1.842,1.842,0,0,1-1.842,1.842Zm0,0" transform="translate(-332.478 -331.937)" fill="#4aa6a4"/>
    <path id="Caminho_127" data-name="Caminho 127" d="M1506.432,1368.161a6.139,6.139,0,1,0-6.139-6.139,6.139,6.139,0,0,0,6.139,6.139Zm0-11.05a4.911,4.911,0,1,1-4.911,4.911,4.911,4.911,0,0,1,4.911-4.911Zm0,0" transform="translate(-221.831 -88.516)" fill="#4aa6a4"/>
    <path id="Caminho_128" data-name="Caminho 128" d="M1535.937,1395.211a3.683,3.683,0,1,0-3.683-3.683,3.683,3.683,0,0,0,3.683,3.683Zm0-6.139a2.456,2.456,0,1,1-2.456,2.456,2.456,2.456,0,0,1,2.456-2.456Zm0,0" transform="translate(-251.337 -118.022)" fill="#4aa6a4"/>
    <path id="Caminho_129" data-name="Caminho 129" d="M1692.059,1261.842A1.842,1.842,0,1,0,1693.9,1260a1.842,1.842,0,0,0-1.842,1.842Zm2.456,0a.614.614,0,1,1-.614-.614.614.614,0,0,1,.614.614Zm0,0" transform="translate(-398.864)" fill="#4aa6a4"/>
    <path id="Caminho_130" data-name="Caminho 130" d="M1454.807,1261.228a1.228,1.228,0,1,1-1.228-1.228,1.228,1.228,0,0,1,1.228,1.228Zm0,0" transform="translate(-177.574)" fill="#4aa6a4"/>
  </g>
</svg>
