<svg xmlns="http://www.w3.org/2000/svg" width="17.694" height="9.47" viewBox="0 0 17.694 9.47">
  <g id="Grupo_36" data-name="Grupo 36" opacity="0.5">
    <path id="Caminho_86" data-name="Caminho 86" d="M17.57,73.383A11.694,11.694,0,0,0,15.253,71.2a10.883,10.883,0,0,0-6.406-2.175A10.884,10.884,0,0,0,2.441,71.2,11.7,11.7,0,0,0,.125,73.383a.623.623,0,0,0,0,.748,11.7,11.7,0,0,0,2.317,2.186,10.884,10.884,0,0,0,6.406,2.175,10.883,10.883,0,0,0,6.406-2.175,11.7,11.7,0,0,0,2.317-2.186A.623.623,0,0,0,17.57,73.383Zm-5.233.374a3.489,3.489,0,1,1-3.489-3.489A3.493,3.493,0,0,1,12.337,73.757Zm-10.9,0A11.426,11.426,0,0,1,4.87,71.192a4.718,4.718,0,0,0,.005,5.137,10.873,10.873,0,0,1-1.668-1A11.5,11.5,0,0,1,1.439,73.757Zm13.048,1.576a10.888,10.888,0,0,1-1.668,1,4.719,4.719,0,0,0,0-5.145,10.883,10.883,0,0,1,1.668,1,11.5,11.5,0,0,1,1.768,1.576A11.5,11.5,0,0,1,14.487,75.333Z" transform="translate(0 -69.022)"/>
    <circle id="Elipse_40" data-name="Elipse 40" cx="1.028" cy="1.028" r="1.028" transform="translate(7.819 3.707)"/>
  </g>
</svg>
