<svg xmlns="http://www.w3.org/2000/svg" width="17.694" height="11.526" viewBox="0 0 17.694 11.526">
  <path id="Caminho_87" data-name="Caminho 87" d="M17.57,56.127a11.693,11.693,0,0,0-2.316-2.186,10.883,10.883,0,0,0-6.406-2.175,10.884,10.884,0,0,0-6.406,2.175A11.7,11.7,0,0,0,.125,56.127a.623.623,0,0,0,0,.748,11.206,11.206,0,0,0,1.8,1.792l-.834,1.667a.623.623,0,1,0,1.115.557l.74-1.481a11.655,11.655,0,0,0,1.967,1.037l-.738,1.475a.623.623,0,1,0,1.115.557L6.1,60.856a10.258,10.258,0,0,0,2.12.36v1.453a.623.623,0,0,0,1.246,0V61.217a10.256,10.256,0,0,0,2.12-.36L12.4,62.48a.623.623,0,0,0,1.115-.557l-.738-1.475a11.656,11.656,0,0,0,1.967-1.037l.74,1.481a.623.623,0,0,0,1.115-.557l-.834-1.667a11.2,11.2,0,0,0,1.8-1.792A.623.623,0,0,0,17.57,56.127Zm-3.083,1.95a9.51,9.51,0,0,1-5.64,1.913,9.511,9.511,0,0,1-5.64-1.913A11.5,11.5,0,0,1,1.439,56.5a11.494,11.494,0,0,1,1.768-1.576,9.51,9.51,0,0,1,5.64-1.913,9.51,9.51,0,0,1,5.64,1.913A11.5,11.5,0,0,1,16.256,56.5,11.5,11.5,0,0,1,14.487,58.077Z" transform="translate(0 -51.766)" opacity="0.5"/>
</svg>
