<svg width="14" height="17" viewBox="0 0 14 17" fill="none" xmlns="http://www.w3.org/2000/svg">
<path d="M5.22655 12.9522H8.7738C8.8893 11.9791 9.42567 11.176 10.2963 10.2993C10.3952 10.2005 11.0243 9.59736 11.0987 9.51155C11.7167 8.79722 12.104 7.93591 12.2162 7.02682C12.3283 6.11773 12.1606 5.19782 11.7324 4.37304C11.3042 3.54826 10.6329 2.85215 9.79589 2.36487C8.95885 1.87759 7.99007 1.61897 7.00112 1.61877C6.01217 1.61857 5.04327 1.87682 4.206 2.36377C3.36874 2.85072 2.69715 3.54656 2.26858 4.37117C1.84001 5.19578 1.6719 6.11562 1.7836 7.02476C1.89529 7.93389 2.28226 8.79535 2.89993 9.50993C2.97518 9.59655 3.60605 10.2005 3.70318 10.2984C4.57468 11.176 5.11105 11.9791 5.22655 12.9522ZM8.75017 14.5713H5.25018V15.3809H8.75017V14.5713ZM1.53493 10.5235C0.710845 9.57088 0.194383 8.42226 0.0450348 7.20994C-0.104313 5.99761 0.119529 4.77092 0.690775 3.67116C1.26202 2.5714 2.15743 1.64331 3.27386 0.993804C4.39029 0.344301 5.68232 -0.0001953 7.00112 8.30638e-08C8.31992 0.000195467 9.61183 0.345074 10.728 0.994908C11.8442 1.64474 12.7393 2.5731 13.3102 3.67303C13.8811 4.77296 14.1045 5.99972 13.9547 7.212C13.8049 8.42427 13.2881 9.57275 12.4637 10.5251C11.9212 11.1501 10.5002 12.1426 10.5002 13.357V15.3809C10.5002 15.8103 10.3158 16.2221 9.98761 16.5258C9.65942 16.8294 9.2143 17 8.75017 17H5.25018C4.78605 17 4.34093 16.8294 4.01274 16.5258C3.68455 16.2221 3.50018 15.8103 3.50018 15.3809V13.357C3.50018 12.1426 2.0783 11.1501 1.53493 10.5235ZM7.87517 6.47893H10.0627L6.12517 11.3363V8.09805H3.93768L7.87517 3.23744V6.47974V6.47893Z" fill="white"/>
</svg>
