<svg width="14" height="19" viewBox="0 0 14 19" fill="none" xmlns="http://www.w3.org/2000/svg">
<path d="M10.0642 15.982C9.48538 17.3456 8.38453 18.4299 7 19C5.61547 18.4299 4.51462 17.3456 3.93575 15.982H5.91325C6.1985 16.4034 6.56687 16.768 7 17.0532C7.43313 16.7688 7.8015 16.4034 8.08763 15.982H10.0642ZM12.25 11.505L14 13.4595V15.1202H0V13.4595L1.75 11.505V6.50225C1.75 3.50061 3.941 0.946251 7 0C10.059 0.946251 12.25 3.50061 12.25 6.50225V11.505ZM11.6112 13.3966L10.5 12.1556V6.50225C10.5 4.5046 9.12625 2.68449 7 1.83131C4.87375 2.68449 3.5 4.50374 3.5 6.50225V12.1556L2.38875 13.3966H11.6112ZM7 8.22584C6.53587 8.22584 6.09075 8.04424 5.76256 7.72101C5.43437 7.39777 5.25 6.95937 5.25 6.50225C5.25 6.04512 5.43437 5.60672 5.76256 5.28348C6.09075 4.96025 6.53587 4.77865 7 4.77865C7.46413 4.77865 7.90925 4.96025 8.23744 5.28348C8.56563 5.60672 8.75 6.04512 8.75 6.50225C8.75 6.95937 8.56563 7.39777 8.23744 7.72101C7.90925 8.04424 7.46413 8.22584 7 8.22584Z" fill="#0EF4BD"/>
</svg>
