<svg width="13" height="18" viewBox="0 0 13 18" fill="none" xmlns="http://www.w3.org/2000/svg">
<path d="M9.34538 15.1408C8.80786 16.4327 7.78564 17.4599 6.5 18C5.21436 17.4599 4.19214 16.4327 3.65463 15.1408H5.49088C5.75575 15.5401 6.09781 15.8854 6.5 16.1557C6.90219 15.8862 7.24425 15.5401 7.50994 15.1408H9.34538ZM11.375 10.8994L13 12.7511V14.3244H0V12.7511L1.625 10.8994V6.16002C1.625 3.31637 3.6595 0.896449 6.5 0C9.3405 0.896449 11.375 3.31637 11.375 6.16002V10.8994ZM10.7819 12.6915L9.75 11.5159V6.16002C9.75 4.26752 8.47437 2.5432 6.5 1.73493C4.52562 2.5432 3.25 4.2667 3.25 6.16002V11.5159L2.21813 12.6915H10.7819ZM6.5 7.7929C6.06902 7.7929 5.6557 7.62086 5.35095 7.31464C5.04621 7.00842 4.875 6.59309 4.875 6.16002C4.875 5.72696 5.04621 5.31163 5.35095 5.0054C5.6557 4.69918 6.06902 4.52715 6.5 4.52715C6.93098 4.52715 7.3443 4.69918 7.64905 5.0054C7.95379 5.31163 8.125 5.72696 8.125 6.16002C8.125 6.59309 7.95379 7.00842 7.64905 7.31464C7.3443 7.62086 6.93098 7.7929 6.5 7.7929Z" fill="white"/>
</svg>
