<svg width="103" height="34" viewBox="0 0 103 34" fill="none" xmlns="http://www.w3.org/2000/svg">
<path d="M73 15H52V18H73V15Z" fill="#4AA6A4"/>
<path d="M52 15H31V18H52V15Z" fill="#4AA6A4"/>
<path d="M100.113 14.1421L88.799 2.82843C87.2369 1.26633 84.7043 1.26633 83.1422 2.82843L71.8284 14.1421C70.2663 15.7042 70.2663 18.2369 71.8284 19.799L83.1422 31.1127C84.7043 32.6748 87.2369 32.6748 88.799 31.1127L100.113 19.799C101.675 18.2369 101.675 15.7042 100.113 14.1421Z" fill="#4AA6A4"/>
<path d="M83.32 21.976L87.128 18.232C88.632 16.76 88.968 15.8 88.968 14.728C88.968 12.856 87.528 11.704 85.256 11.704C83.544 11.704 82.152 12.28 81.288 13.304L82.104 14.008C82.84 13.16 83.848 12.76 85.16 12.76C86.872 12.76 87.784 13.56 87.784 14.856C87.784 15.624 87.544 16.376 86.28 17.624L81.624 22.184V23H89.48V21.976H83.32Z" fill="white"/>
<path d="M31.1127 14.1421L19.799 2.82843C18.2369 1.26633 15.7043 1.26633 14.1422 2.82843L2.82845 14.1421C1.26635 15.7042 1.26635 18.2369 2.82845 19.799L14.1422 31.1127C15.7043 32.6748 18.2369 32.6748 19.799 31.1127L31.1127 19.799C32.6748 18.2369 32.6748 15.7042 31.1127 14.1421Z" fill="#4AA6A4"/>
<path d="M14.144 11.8V12.824H16.784V23H17.936V11.8H14.144Z" fill="white"/>
</svg>
