<svg xmlns="http://www.w3.org/2000/svg" width="114.54" height="118.146" viewBox="0 0 114.54 118.146">
  <g id="Grupo_59" data-name="Grupo 59" transform="translate(-7.813)">
    <path id="Caminho_176" data-name="Caminho 176" d="M405.888,193.291a2.308,2.308,0,0,0,0,3.264c.036.036.072.072.108.1a2.309,2.309,0,1,0-.108-3.369Z" transform="translate(-305.698 -148.168)" fill="#4aa6a4"/>
    <path id="Caminho_177" data-name="Caminho 177" d="M304.884,159.2a36.124,36.124,0,0,0-4.031-2.378,30.948,30.948,0,0,0-23.468-2.237A2.308,2.308,0,1,0,278.755,159a26.418,26.418,0,0,1,20.024,1.952,32.136,32.136,0,0,1,3.513,2.074,2.307,2.307,0,1,0,2.592-3.818Z" transform="translate(-206.119 -117.871)" fill="#4aa6a4"/>
    <path id="Caminho_178" data-name="Caminho 178" d="M168.877,120.009c-.946-1.984-2.513-5.271-2.541-6.358,2.7-6.651,1.714-14.012-2.781-20.744-6.912-10.355-21.078-17.87-33.683-17.87a41.292,41.292,0,0,0-19.024,4.622,19.753,19.753,0,1,0-29.736,20.409,3.857,3.857,0,0,1,2.228,3.428V117a4.677,4.677,0,0,0,4.672,4.673H88.8a41.1,41.1,0,0,0,13.917,26.022c.073.228.287,1.3-.63,4.485-.714,2.484-1.81,5.243-2.777,7.677-.647,1.629-1.206,3.036-1.544,4.1a2.308,2.308,0,0,0,2.2,3.006H132.9c1.082,0,2.569-.485,3.5-2.793a22.558,22.558,0,0,0,.955-3.493c.274-1.247.917-4.168,1.556-4.52a.469.469,0,0,1,.128.008,2.269,2.269,0,0,0,.358.028c3.45,0,6.268.156,8.755.294,7.294.4,11.7.649,15.559-4.914,1.964-2.829,1.742-6.956,1.506-11.325a41.211,41.211,0,0,1-.024-6.508,20.134,20.134,0,0,1,2.043-1.523c2.175-1.494,4.23-2.9,4.23-5.05C171.472,125.534,170.486,123.383,168.877,120.009Zm-92.6-36.8a15.14,15.14,0,1,1,23.036,12.92,8.4,8.4,0,0,0-4.045,4.944h-7.7a8.4,8.4,0,0,0-4.045-4.944A15.05,15.05,0,0,1,76.281,83.212Zm11.675,22.48h6.929v3.375H87.957Zm0,11.306v-3.317h6.929V117a.067.067,0,0,1-.057.058H88.013A.067.067,0,0,1,87.957,117Zm76.673,11.411c-1.986,1.364-3.7,2.542-3.954,4.324a41.08,41.08,0,0,0-.061,7.76c.175,3.241.373,6.915-.689,8.445-2.3,3.308-4.282,3.34-11.512,2.938-2.386-.132-5.346-.3-8.855-.3-1.348-.159-3.628.094-5.15,3.053a21.44,21.44,0,0,0-1.555,5.055,24.518,24.518,0,0,1-.685,2.664H103.284l.312-.787c3.324-8.37,5.43-14.509,2.225-17.28a36.517,36.517,0,0,1-12.366-22.608h1.374A4.678,4.678,0,0,0,99.5,117V103.5a3.858,3.858,0,0,1,2.228-3.432,19.619,19.619,0,0,0,9.383-15.275,36.663,36.663,0,0,1,18.761-5.141c10.995,0,23.826,6.8,29.845,15.817,2.58,3.865,5.072,9.877,2.292,16.571-.905,2.18.437,5.2,2.7,9.955a41.641,41.641,0,0,1,2.076,4.805A21.8,21.8,0,0,1,164.63,128.409Z" transform="translate(-49.119 -48.815)" fill="#4aa6a4"/>
    <path id="Caminho_179" data-name="Caminho 179" d="M171.762,112.828a4.626,4.626,0,0,1,2.559,2.951,7,7,0,0,1-.64,4.768,2.308,2.308,0,1,0,3.891,2.481,11.567,11.567,0,0,0,1.2-8.451,9.238,9.238,0,0,0-4.9-5.851,2.308,2.308,0,0,0-2.116,4.1Z" transform="translate(-125.155 -83.44)" fill="#4aa6a4"/>
    <path id="Caminho_180" data-name="Caminho 180" d="M149.585,11.193a2.308,2.308,0,0,0,2.308-2.308V2.308a2.308,2.308,0,1,0-4.615,0V8.886A2.308,2.308,0,0,0,149.585,11.193Z" transform="translate(-107.282)" fill="#4aa6a4"/>
    <path id="Caminho_181" data-name="Caminho 181" d="M19.006,141.773a2.308,2.308,0,0,0-2.308-2.308H10.121a2.308,2.308,0,1,0,0,4.615H16.7A2.307,2.307,0,0,0,19.006,141.773Z" transform="translate(0 -107.283)" fill="#4aa6a4"/>
    <path id="Caminho_182" data-name="Caminho 182" d="M81.141,27.84a2.307,2.307,0,0,0,4-2.308l-3.288-5.695a2.307,2.307,0,1,0-4,2.308Z" transform="translate(-53.64 -14.373)" fill="#4aa6a4"/>
    <path id="Caminho_183" data-name="Caminho 183" d="M27.647,74.041l5.7,3.288a2.307,2.307,0,0,0,2.308-4l-5.7-3.288a2.307,2.307,0,0,0-2.308,4Z" transform="translate(-14.37 -53.643)" fill="#4aa6a4"/>
    <path id="Caminho_184" data-name="Caminho 184" d="M245.69,77.636a2.3,2.3,0,0,0,1.152-.31l5.7-3.288a2.307,2.307,0,1,0-2.308-4l-5.7,3.288a2.308,2.308,0,0,0,1.156,4.306Z" transform="translate(-181.209 -53.641)" fill="#4aa6a4"/>
    <path id="Caminho_185" data-name="Caminho 185" d="M33.344,195.255l-5.7,3.288a2.308,2.308,0,1,0,2.307,4l5.7-3.288a2.308,2.308,0,0,0-2.307-4Z" transform="translate(-14.37 -149.961)" fill="#4aa6a4"/>
    <path id="Caminho_186" data-name="Caminho 186" d="M83.818,239.436a2.308,2.308,0,0,0-3.152.845l-2.814,4.874a2.308,2.308,0,1,0,4,2.308l2.814-4.874A2.307,2.307,0,0,0,83.818,239.436Z" transform="translate(-53.64 -183.947)" fill="#4aa6a4"/>
    <path id="Caminho_187" data-name="Caminho 187" d="M203.915,28.684a2.306,2.306,0,0,0,3.152-.845l3.288-5.695a2.307,2.307,0,0,0-4-2.308l-3.288,5.695A2.307,2.307,0,0,0,203.915,28.684Z" transform="translate(-149.963 -14.372)" fill="#4aa6a4"/>
  </g>
</svg>
