<svg xmlns="http://www.w3.org/2000/svg" width="36.878" height="36.877" viewBox="0 0 36.878 36.877">
  <g id="letter" transform="translate(-1308 -1308.001)">
    <path id="Caminho_117" data-name="Caminho 117" d="M1343.953,1320.306l-11.374-11.374a3.161,3.161,0,0,0-4.465,0l-17.75,17.75a3.161,3.161,0,0,0,0,4.465l2.854,2.854-3.134,3.134a.72.72,0,0,0,1.019,1.019l3.133-3.133,1.305,1.305-7.332,7.331a.72.72,0,0,0,1.019,1.019l7.332-7.332,5.177,5.177a3.161,3.161,0,0,0,4.465,0l17.75-17.75a3.157,3.157,0,0,0,0-4.465Zm-20.505,21.615a1.708,1.708,0,0,1-.691-.419l-11.374-11.374a1.716,1.716,0,0,1-.442-1.659h12.506Zm-2.6-14.893,2.136-2.136a.72.72,0,0,0-1.018-1.018l-3.155,3.154h-2.1l6.512-6.512a.72.72,0,0,0-1.019-1.018l-7.53,7.53h-2.615l16.406-16.406v14.689a1.719,1.719,0,0,1-1.717,1.717Zm22.09-3.276-17.75,17.75a1.726,1.726,0,0,1-.3.236v-13.269h1.856a3.161,3.161,0,0,0,3.157-3.157v-1.856h8.256l-4.168,4.168a.72.72,0,0,0,1.018,1.018l5.186-5.186h2.977a1.738,1.738,0,0,1-.237.3Zm-13.033-1.737v-12.506a1.717,1.717,0,0,1,1.659.442l11.374,11.374a1.706,1.706,0,0,1,.421.691Zm0,0" transform="translate(0 -0.008)" fill="#4aa6a4"/>
    <path id="Caminho_118" data-name="Caminho 118" d="M1473.269,1407.3a.72.72,0,1,0,.211.509.723.723,0,0,0-.211-.509Zm0,0" transform="translate(-148.285 -89.574)" fill="#4aa6a4"/>
    <path id="Caminho_119" data-name="Caminho 119" d="M1309.26,1628.777a.72.72,0,1,0,.211.509.725.725,0,0,0-.211-.509Zm0,0" transform="translate(-0.028 -289.78)" fill="#4aa6a4"/>
    <path id="Caminho_120" data-name="Caminho 120" d="M1360.9,1643.137a.721.721,0,0,0-1.019,0l-3.271,3.271a.72.72,0,0,0,1.019,1.019l3.271-3.271a.721.721,0,0,0,0-1.019Zm0,0" transform="translate(-43.75 -302.761)" fill="#4aa6a4"/>
  </g>
</svg>
