<svg id="Grupo_34" data-name="Grupo 34" xmlns="http://www.w3.org/2000/svg" width="22.2" height="28.37" viewBox="0 0 22.2 28.37">
  <path id="Caminho_75" data-name="Caminho 75" d="M125.97,70.445a.554.554,0,0,0,.7-.352,6.414,6.414,0,0,1,12.5,2.015,8.8,8.8,0,0,1-2.208,5.678,4.868,4.868,0,0,0-1.334,2.778q0,.1,0,.2h-2.315V79.486a.554.554,0,1,0-1.108,0v1.273H129.89q0-.1,0-.2a4.869,4.869,0,0,0-1.333-2.779,10.132,10.132,0,0,1-1.953-3.618.554.554,0,1,0-1.072.28,11.2,11.2,0,0,0,2.138,4,4.157,4.157,0,0,1,1.112,2.114c0,.265.011.524.033.771v4.687c0,.015,0,.029,0,.044s0,.007,0,.011a.554.554,0,0,0,.009.06h0a4.152,4.152,0,0,0,1.388,2.311,3.957,3.957,0,0,0,5.095,0,4.152,4.152,0,0,0,1.387-2.311h0a.606.606,0,0,0,.009-.06s0-.007,0-.011,0-.029,0-.044V81.335c.022-.247.033-.506.033-.771a4.157,4.157,0,0,1,1.112-2.114,9.866,9.866,0,0,0,2.429-6.342,7.522,7.522,0,0,0-14.663-2.362A.554.554,0,0,0,125.97,70.445Zm6.79,17.824a2.934,2.934,0,0,1-2.624-1.693h5.248A2.934,2.934,0,0,1,132.76,88.269Zm2.839-2.8h-5.678V84.222H135.6Zm0-2.354h-5.678V81.867H135.6Z" transform="translate(-121.66 -61.007)" fill="#ffa238" fill-rule="evenodd"/>
  <path id="Caminho_76" data-name="Caminho 76" d="M246.878,2.585a.554.554,0,0,0,.554-.554V.554a.554.554,0,0,0-1.108,0V2.03A.554.554,0,0,0,246.878,2.585Z" transform="translate(-235.778)" fill="#ffa238" fill-rule="evenodd"/>
  <path id="Caminho_77" data-name="Caminho 77" d="M56.554,191.432H58.03a.554.554,0,0,0,0-1.108H56.554a.554.554,0,0,0,0,1.108Z" transform="translate(-56 -179.778)" fill="#ffa238" fill-rule="evenodd"/>
  <path id="Caminho_78" data-name="Caminho 78" d="M215.613,211.081a.554.554,0,0,0-.554-.554h-3.966a.554.554,0,0,0,0,1.108h1.429v1.273a.554.554,0,1,0,1.108,0v-1.273h1.429A.554.554,0,0,0,215.613,211.081Z" transform="translate(-201.976 -198.862)" fill="#ffa238" fill-rule="evenodd"/>
  <path id="Caminho_79" data-name="Caminho 79" d="M112.952,57.736a.554.554,0,0,0,.783-.783l-1.044-1.044a.554.554,0,1,0-.784.783Z" transform="translate(-108.657 -52.658)" fill="#ffa238" fill-rule="evenodd"/>
  <path id="Caminho_80" data-name="Caminho 80" d="M105.4,315.113a.552.552,0,0,0,.392-.162l1.044-1.044a.554.554,0,0,0-.784-.784l-1.044,1.044a.554.554,0,0,0,.392.946Z" transform="translate(-102.14 -295.62)" fill="#ffa238" fill-rule="evenodd"/>
  <path id="Caminho_81" data-name="Caminho 81" d="M362.616,57.9a.552.552,0,0,0,.392-.162l1.044-1.044a.554.554,0,0,0-.784-.784l-1.044,1.044a.554.554,0,0,0,.392.946Z" transform="translate(-345.103 -52.655)" fill="#ffa238" fill-rule="evenodd"/>
  <path id="Caminho_82" data-name="Caminho 82" d="M369.123,313.123a.554.554,0,0,0,0,.784l1.044,1.044a.554.554,0,1,0,.784-.784l-1.044-1.044A.554.554,0,0,0,369.123,313.123Z" transform="translate(-351.62 -295.62)" fill="#ffa238" fill-rule="evenodd"/>
  <path id="Caminho_83" data-name="Caminho 83" d="M410.558,191.432h1.476a.554.554,0,1,0,0-1.108h-1.476a.554.554,0,0,0,0,1.108Z" transform="translate(-390.389 -179.778)" fill="#ffa238" fill-rule="evenodd"/>
  <path id="Caminho_84" data-name="Caminho 84" d="M246.878,283.5a.554.554,0,1,0,.554.554A.555.555,0,0,0,246.878,283.5Z" transform="translate(-235.778 -267.791)" fill="#ffa238" fill-rule="evenodd"/>
  <path id="Caminho_85" data-name="Caminho 85" d="M121.694,190.878a.554.554,0,1,0-.554.554A.555.555,0,0,0,121.694,190.878Z" transform="translate(-117.007 -179.778)" fill="#ffa238" fill-rule="evenodd"/>
</svg>
