<svg xmlns="http://www.w3.org/2000/svg" width="57.589" height="73.594" viewBox="0 0 57.589 73.594">
  <g id="light" transform="translate(-1299 -1244)">
    <path id="Caminho_142" data-name="Caminho 142" d="M1369.7,1323.784a1.437,1.437,0,0,0,1.816-.913,16.639,16.639,0,0,1,32.434,5.226c0,7.09-3.175,11.325-5.727,14.729-1.856,2.476-3.459,4.614-3.459,7.208,0,.171,0,.34-.006.508h-6.006v-3.3a1.437,1.437,0,0,0-2.875,0v3.3h-6.007c0-.168-.006-.337-.006-.508,0-2.594-1.6-4.732-3.459-7.208a26.284,26.284,0,0,1-5.065-9.386,1.437,1.437,0,1,0-2.781.727,29.058,29.058,0,0,0,5.546,10.383c1.612,2.15,2.884,3.848,2.884,5.484,0,.688.029,1.36.086,2v12.158c0,.039,0,.077.005.114,0,.009,0,.018,0,.027a1.439,1.439,0,0,0,.024.157h0a10.772,10.772,0,0,0,3.6,5.995,10.264,10.264,0,0,0,13.216,0,10.772,10.772,0,0,0,3.6-5.995v0c.011-.051.018-.1.024-.156,0-.009,0-.018,0-.027,0-.038.005-.076.005-.115v-12.158c.057-.641.086-1.312.086-2,0-1.636,1.273-3.334,2.884-5.484,2.659-3.547,6.3-8.405,6.3-16.453a19.513,19.513,0,0,0-38.038-6.128,1.437,1.437,0,0,0,.913,1.816Zm17.614,46.238a7.61,7.61,0,0,1-6.807-4.393h13.614a7.612,7.612,0,0,1-6.807,4.393Zm7.365-7.267H1379.95v-3.232h14.729Zm0-6.107H1379.95v-3.232h14.729Zm0,0" transform="translate(-59.52 -55.303)" fill="#4aa6a4" fill-rule="evenodd"/>
    <path id="Caminho_143" data-name="Caminho 143" d="M1490.761,1250.7a1.437,1.437,0,0,0,1.438-1.437v-3.83a1.437,1.437,0,0,0-2.875,0v3.83a1.437,1.437,0,0,0,1.437,1.437Zm0,0" transform="translate(-162.967 0)" fill="#4aa6a4" fill-rule="evenodd"/>
    <path id="Caminho_144" data-name="Caminho 144" d="M1300.437,1437.2h3.83a1.437,1.437,0,1,0,0-2.875h-3.83a1.437,1.437,0,0,0,0,2.875Zm0,0" transform="translate(0 -162.967)" fill="#4aa6a4" fill-rule="evenodd"/>
    <path id="Caminho_145" data-name="Caminho 145" d="M1466.7,1455.965a1.437,1.437,0,0,0-1.437-1.437h-10.287a1.437,1.437,0,1,0,0,2.875h3.706v3.3a1.437,1.437,0,1,0,2.875,0v-3.3h3.706a1.437,1.437,0,0,0,1.437-1.437Zm0,0" transform="translate(-132.326 -180.266)" fill="#4aa6a4" fill-rule="evenodd"/>
    <path id="Caminho_146" data-name="Caminho 146" d="M1357.875,1304.908a1.437,1.437,0,1,0,2.032-2.033l-2.708-2.708a1.437,1.437,0,0,0-2.033,2.032Zm0,0" transform="translate(-47.733 -47.734)" fill="#4aa6a4" fill-rule="evenodd"/>
    <path id="Caminho_147" data-name="Caminho 147" d="M1349.284,1562.544a1.433,1.433,0,0,0,1.016-.421l2.708-2.708a1.437,1.437,0,0,0-2.033-2.033l-2.708,2.708a1.438,1.438,0,0,0,1.017,2.454Zm0,0" transform="translate(-41.826 -267.976)" fill="#4aa6a4" fill-rule="evenodd"/>
    <path id="Caminho_148" data-name="Caminho 148" d="M1606.5,1305.327a1.433,1.433,0,0,0,1.016-.421l2.708-2.708a1.437,1.437,0,0,0-2.032-2.033l-2.708,2.708a1.437,1.437,0,0,0,1.016,2.454Zm0,0" transform="translate(-262.069 -47.732)" fill="#4aa6a4" fill-rule="evenodd"/>
    <path id="Caminho_149" data-name="Caminho 149" d="M1612.382,1557.382a1.436,1.436,0,0,0,0,2.033l2.708,2.708a1.437,1.437,0,1,0,2.032-2.033l-2.708-2.708a1.436,1.436,0,0,0-2.032,0Zm0,0" transform="translate(-267.976 -267.976)" fill="#4aa6a4" fill-rule="evenodd"/>
    <path id="Caminho_150" data-name="Caminho 150" d="M1654.441,1437.2h3.83a1.437,1.437,0,0,0,0-2.875h-3.83a1.437,1.437,0,0,0,0,2.875Zm0,0" transform="translate(-303.12 -162.967)" fill="#4aa6a4" fill-rule="evenodd"/>
    <path id="Caminho_151" data-name="Caminho 151" d="M1490.761,1527.5a1.437,1.437,0,1,0,1.438,1.438,1.44,1.44,0,0,0-1.437-1.437Zm0,0" transform="translate(-162.967 -242.75)" fill="#4aa6a4" fill-rule="evenodd"/>
    <path id="Caminho_152" data-name="Caminho 152" d="M1366.461,1435.761a1.437,1.437,0,1,0-1.437,1.437,1.44,1.44,0,0,0,1.437-1.437Zm0,0" transform="translate(-55.303 -162.967)" fill="#4aa6a4" fill-rule="evenodd"/>
  </g>
</svg>
