<svg id="logo" xmlns="http://www.w3.org/2000/svg" xmlns:xlink="http://www.w3.org/1999/xlink" width="106.478" height="24.987" viewBox="0 0 106.478 24.987">
  <defs>
    <clipPath id="clip-path">
      <path id="SVGID" d="M2967.3,880.419c0,.318-5.29.576-11.814.576s-11.815-.258-11.815-.576,5.29-.577,11.815-.577S2967.3,880.1,2967.3,880.419Z" transform="translate(-2943.67 -879.842)" fill="#0a0a0a"/>
    </clipPath>
  </defs>
  <g id="Grupo_5" data-name="Grupo 5" transform="translate(17.414 23.833)" opacity="0.25" clip-path="url(#clip-path)">
    <rect id="Retângulo_6" data-name="Retângulo 6" width="23.629" height="1.153" transform="translate(0 0)" fill="#0a0a0a"/>
    <path id="Caminho_28" data-name="Caminho 28" d="M2969.587,879.17c0,.415-4.884.752-10.909.752s-10.909-.337-10.909-.752,4.884-.752,10.909-.752S2969.587,878.755,2969.587,879.17Z" transform="translate(-2947.028 -878.676)" fill="#0a0a0a"/>
    <ellipse id="Elipse_19" data-name="Elipse 19" cx="10.677" cy="0.736" rx="10.677" ry="0.736" transform="translate(0.973 -0.241)" fill="#0a0a0a"/>
    <path id="Caminho_29" data-name="Caminho 29" d="M2971.227,879.315c0,.4-4.676.72-10.445.72s-10.444-.322-10.444-.72,4.676-.72,10.444-.72S2971.227,878.917,2971.227,879.315Z" transform="translate(-2949.132 -878.82)" fill="#0a0a0a"/>
    <ellipse id="Elipse_20" data-name="Elipse 20" cx="10.212" cy="0.704" rx="10.212" ry="0.704" transform="translate(1.438 -0.209)" fill="#0a0a0a"/>
    <path id="Caminho_30" data-name="Caminho 30" d="M2972.867,879.46c0,.38-4.468.688-9.98.688s-9.979-.308-9.979-.687,4.468-.687,9.979-.687S2972.867,879.081,2972.867,879.46Z" transform="translate(-2951.238 -878.966)" fill="#0a0a0a"/>
    <path id="Caminho_31" data-name="Caminho 31" d="M2973.688,879.533c0,.371-4.364.672-9.748.672s-9.747-.3-9.747-.672,4.364-.672,9.747-.672S2973.688,879.162,2973.688,879.533Z" transform="translate(-2952.291 -879.038)" fill="#0a0a0a"/>
    <ellipse id="Elipse_21" data-name="Elipse 21" cx="9.515" cy="0.656" rx="9.515" ry="0.656" transform="translate(2.135 -0.161)" fill="#0a0a0a"/>
    <path id="Caminho_32" data-name="Caminho 32" d="M2975.328,879.678c0,.353-4.156.64-9.282.64s-9.283-.286-9.283-.64,4.156-.64,9.283-.64S2975.328,879.324,2975.328,879.678Z" transform="translate(-2954.395 -879.183)" fill="#0a0a0a"/>
    <ellipse id="Elipse_22" data-name="Elipse 22" cx="9.05" cy="0.624" rx="9.05" ry="0.624" transform="translate(2.6 -0.129)" fill="#0a0a0a"/>
    <ellipse id="Elipse_23" data-name="Elipse 23" cx="8.818" cy="0.608" rx="8.818" ry="0.608" transform="translate(2.832 -0.113)" fill="#0a0a0a"/>
    <path id="Caminho_33" data-name="Caminho 33" d="M2977.788,879.895c0,.327-3.844.592-8.585.592s-8.586-.265-8.586-.592,3.844-.592,8.586-.592S2977.788,879.568,2977.788,879.895Z" transform="translate(-2957.552 -879.4)" fill="#0a0a0a"/>
    <ellipse id="Elipse_24" data-name="Elipse 24" cx="8.353" cy="0.576" rx="8.353" ry="0.576" transform="translate(3.297 -0.081)" fill="#0a0a0a"/>
    <path id="Caminho_34" data-name="Caminho 34" d="M2979.429,880.041c0,.309-3.636.559-8.121.559s-8.121-.25-8.121-.559,3.636-.56,8.121-.56S2979.429,879.732,2979.429,880.041Z" transform="translate(-2959.658 -879.546)" fill="#0a0a0a"/>
    <path id="Caminho_35" data-name="Caminho 35" d="M2980.25,880.113c0,.3-3.532.544-7.889.544s-7.889-.243-7.889-.544,3.532-.544,7.889-.544S2980.25,879.812,2980.25,880.113Z" transform="translate(-2960.71 -879.618)" fill="#0a0a0a"/>
    <ellipse id="Elipse_25" data-name="Elipse 25" cx="7.656" cy="0.528" rx="7.656" ry="0.528" transform="translate(3.994 -0.033)" fill="#0a0a0a"/>
    <path id="Caminho_36" data-name="Caminho 36" d="M2981.889,880.258c0,.282-3.324.512-7.424.512s-7.424-.229-7.424-.512,3.324-.512,7.424-.512S2981.889,879.975,2981.889,880.258Z" transform="translate(-2962.815 -879.763)" fill="#0a0a0a"/>
    <path id="Caminho_37" data-name="Caminho 37" d="M2982.709,880.331c0,.274-3.22.5-7.192.5s-7.192-.222-7.192-.5,3.22-.5,7.192-.5S2982.709,880.057,2982.709,880.331Z" transform="translate(-2963.868 -879.836)" fill="#0a0a0a"/>
    <ellipse id="Elipse_26" data-name="Elipse 26" cx="6.959" cy="0.479" rx="6.959" ry="0.479" transform="translate(4.691 0.015)" fill="#0a0a0a"/>
    <path id="Caminho_38" data-name="Caminho 38" d="M2984.35,880.475c0,.256-3.012.463-6.727.463s-6.727-.207-6.727-.463,3.012-.463,6.727-.463S2984.35,880.219,2984.35,880.475Z" transform="translate(-2965.973 -879.981)" fill="#0a0a0a"/>
    <ellipse id="Elipse_27" data-name="Elipse 27" cx="6.495" cy="0.448" rx="6.495" ry="0.448" transform="translate(5.155 0.047)" fill="#0a0a0a"/>
    <ellipse id="Elipse_28" data-name="Elipse 28" cx="6.262" cy="0.432" rx="6.262" ry="0.432" transform="translate(5.388 0.063)" fill="#0a0a0a"/>
    <path id="Caminho_39" data-name="Caminho 39" d="M2986.811,880.693c0,.229-2.7.416-6.03.416s-6.03-.186-6.03-.416,2.7-.416,6.03-.416S2986.811,880.463,2986.811,880.693Z" transform="translate(-2969.131 -880.198)" fill="#0a0a0a"/>
    <ellipse id="Elipse_29" data-name="Elipse 29" cx="5.798" cy="0.399" rx="5.798" ry="0.399" transform="translate(5.852 0.095)" fill="#0a0a0a"/>
    <ellipse id="Elipse_30" data-name="Elipse 30" cx="5.565" cy="0.384" rx="5.565" ry="0.384" transform="translate(6.085 0.111)" fill="#0a0a0a"/>
    <path id="Caminho_40" data-name="Caminho 40" d="M2989.271,880.91c0,.2-2.388.367-5.333.367s-5.333-.164-5.333-.367,2.388-.367,5.333-.367S2989.271,880.707,2989.271,880.91Z" transform="translate(-2972.288 -880.416)" fill="#0a0a0a"/>
    <ellipse id="Elipse_31" data-name="Elipse 31" cx="5.101" cy="0.351" rx="5.101" ry="0.351" transform="translate(6.549 0.143)" fill="#0a0a0a"/>
    <path id="Caminho_41" data-name="Caminho 41" d="M2990.912,881.055c0,.185-2.18.335-4.868.335s-4.868-.15-4.868-.335,2.179-.335,4.868-.335S2990.912,880.87,2990.912,881.055Z" transform="translate(-2974.394 -880.561)" fill="#0a0a0a"/>
    <ellipse id="Elipse_32" data-name="Elipse 32" cx="4.636" cy="0.319" rx="4.636" ry="0.319" transform="translate(7.014 0.175)" fill="#0a0a0a"/>
    <ellipse id="Elipse_33" data-name="Elipse 33" cx="4.404" cy="0.303" rx="4.404" ry="0.303" transform="translate(7.246 0.191)" fill="#0a0a0a"/>
    <path id="Caminho_42" data-name="Caminho 42" d="M2993.372,881.273a30.412,30.412,0,0,1-8.343,0,30.4,30.4,0,0,1,8.343,0Z" transform="translate(-2977.55 -880.778)" fill="#0a0a0a"/>
    <path id="Caminho_43" data-name="Caminho 43" d="M2994.192,881.345a28.721,28.721,0,0,1-7.878,0,28.721,28.721,0,0,1,7.878,0Z" transform="translate(-2978.603 -880.851)" fill="#0a0a0a"/>
    <path id="Caminho_44" data-name="Caminho 44" d="M2995.013,881.418a27.043,27.043,0,0,1-7.414,0,27.037,27.037,0,0,1,7.414,0Z" transform="translate(-2979.656 -880.924)" fill="#0a0a0a"/>
    <path id="Caminho_45" data-name="Caminho 45" d="M2995.833,881.49a25.335,25.335,0,0,1-6.949,0,25.335,25.335,0,0,1,6.949,0Z" transform="translate(-2980.708 -880.996)" fill="#0a0a0a"/>
    <path id="Caminho_46" data-name="Caminho 46" d="M2996.653,881.562a23.617,23.617,0,0,1-6.484,0,23.623,23.623,0,0,1,6.484,0Z" transform="translate(-2981.761 -881.068)" fill="#0a0a0a"/>
    <path id="Caminho_47" data-name="Caminho 47" d="M2997.474,881.635a21.941,21.941,0,0,1-6.019,0,21.941,21.941,0,0,1,6.019,0Z" transform="translate(-2982.814 -881.141)" fill="#0a0a0a"/>
    <ellipse id="Elipse_34" data-name="Elipse 34" cx="2.777" cy="0.191" rx="2.777" ry="0.191" transform="translate(8.873 0.303)" fill="#0a0a0a"/>
    <ellipse id="Elipse_35" data-name="Elipse 35" cx="2.545" cy="0.175" rx="2.545" ry="0.175" transform="translate(9.105 0.319)" fill="#0a0a0a"/>
    <path id="Caminho_48" data-name="Caminho 48" d="M2999.933,881.852a16.841,16.841,0,0,1-4.625,0,16.847,16.847,0,0,1,4.625,0Z" transform="translate(-2985.971 -881.358)" fill="#0a0a0a"/>
    <ellipse id="Elipse_36" data-name="Elipse 36" cx="2.08" cy="0.143" rx="2.08" ry="0.143" transform="translate(9.57 0.351)" fill="#0a0a0a"/>
    <path id="Caminho_49" data-name="Caminho 49" d="M3001.574,882a13.476,13.476,0,0,1-3.7,0,13.476,13.476,0,0,1,3.7,0Z" transform="translate(-2988.076 -881.504)" fill="#0a0a0a"/>
    <path id="Caminho_50" data-name="Caminho 50" d="M3002.395,882.07a11.78,11.78,0,0,1-3.231,0,11.768,11.768,0,0,1,3.231,0Z" transform="translate(-2989.129 -881.576)" fill="#0a0a0a"/>
  </g>
  <rect id="Retângulo_7" data-name="Retângulo 7" width="3.63" height="12.418" transform="matrix(0.707, -0.707, 0.707, 0.707, 29.229, 2.567)" fill="#4b7184"/>
  <rect id="Retângulo_8" data-name="Retângulo 8" width="3.63" height="12.417" transform="matrix(0.707, -0.707, 0.707, 0.707, 17.882, 13.915)" fill="#4b7184"/>
  <rect id="Retângulo_9" data-name="Retângulo 9" width="12.417" height="3.63" transform="translate(29.229 20.128) rotate(-45)" fill="#4a7282"/>
  <rect id="Retângulo_10" data-name="Retângulo 10" width="12.417" height="3.631" transform="translate(17.882 8.78) rotate(-45)" fill="#4a7282"/>
  <path id="Caminho_51" data-name="Caminho 51" d="M3009.009,762.233v4.556l4.225,4.225h4.555Z" transform="translate(-2979.78 -759.666)" fill="#4aa6a4"/>
  <path id="Caminho_52" data-name="Caminho 52" d="M3017.79,810.791h-4.555l-4.225,4.225v4.555Z" transform="translate(-2979.78 -799.444)" fill="#19313a"/>
  <path id="Caminho_53" data-name="Caminho 53" d="M2969.231,819.571v-4.556l-4.225-4.225h-4.555Z" transform="translate(-2940.002 -799.443)" fill="#4aa6a4"/>
  <path id="Caminho_54" data-name="Caminho 54" d="M2960.451,771.013h4.555l4.225-4.225v-4.556Z" transform="translate(-2940.003 -759.666)" fill="#19313a"/>
  <path id="Caminho_55" data-name="Caminho 55" d="M2861.657,775.244c0,2.907-2.15,4.569-6.426,4.569h-7.867v-17.1h7.378c3.812,0,6.01,1.612,6.01,4.4a3.971,3.971,0,0,1-2.614,3.885A4.083,4.083,0,0,1,2861.657,775.244ZM2849.172,764.2v6.206h5.448c2.736,0,4.325-1.051,4.325-3.1s-1.588-3.1-4.325-3.1Zm10.677,10.9c0-2.223-1.637-3.2-4.642-3.2h-6.035v6.426h6.035C2858.212,778.322,2859.849,777.345,2859.849,775.1Z" transform="translate(-2847.364 -760.057)" fill="#fff"/>
  <path id="Caminho_56" data-name="Caminho 56" d="M3107.594,779.813l-5.521-7.525-5.5,7.525H3094.5l6.5-8.8-6.084-8.307h2.077l5.155,6.988,5.131-6.988h1.954l-6.059,8.258,6.523,8.845Z" transform="translate(-3049.812 -760.057)" fill="#fff"/>
  <path id="Caminho_57" data-name="Caminho 57" d="M3223.673,772.19v-9.48h4.837v9.333c0,2.932,1.222,4.1,3.25,4.1,2,0,3.225-1.173,3.225-4.1V762.71h4.764v9.48c0,5.106-2.981,7.965-8.039,7.965S3223.673,777.3,3223.673,772.19Z" transform="translate(-3155.628 -760.057)" fill="#fff"/>
  <path id="Caminho_58" data-name="Caminho 58" d="M3366.374,769.038c0,3.885-2.932,6.3-7.6,6.3h-2.981v4.471h-4.837v-17.1h7.818C3363.442,762.71,3366.374,765.129,3366.374,769.038Zm-4.887,0c0-1.588-1-2.517-3.005-2.517h-2.687v5.009h2.688C3360.486,771.53,3361.487,770.6,3361.487,769.038Z" transform="translate(-3259.896 -760.057)" fill="#fff"/>
</svg>
