<svg width="223" height="222" viewBox="0 0 223 222" fill="none" xmlns="http://www.w3.org/2000/svg" class="test">
<path d="M136.632 0.0039872L111.535 25.1011L197.382 110.949L222.479 85.8515L136.632 0.0039872Z" fill="#4B7184"/>
<path d="M25.6718 110.967L0.573975 136.065L86.42 221.911L111.518 196.813L25.6718 110.967Z" fill="#4B7184"/>
<path d="M197.394 110.963L111.535 196.822L136.636 221.923L222.495 136.064L197.394 110.963Z" fill="#4A7282"/>
<path d="M86.433 -1.39735e-05L0.573975 85.859L25.6763 110.961L111.535 25.1023L86.433 -1.39735e-05Z" fill="#4A7282"/>
<path d="M111.535 25.1021V69.6501L152.846 110.963H197.392L111.535 25.1021Z" fill="#4AA6A4"/>
<path d="M197.392 110.961H152.846L111.535 152.27V196.82L197.392 110.961Z" fill="#19313A"/>
<path d="M111.532 196.822V152.275L70.2239 110.963H25.6738L111.532 196.822Z" fill="#4AA6A4"/>
<path d="M25.6719 110.963H70.2148L111.53 69.6501V25.1021L25.6719 110.963Z" fill="#19313A"/>
</svg>
