<svg xmlns="http://www.w3.org/2000/svg" xmlns:xlink="http://www.w3.org/1999/xlink" width="140.4" height="148.467" viewBox="0 0 140.4 148.467">
  <defs>
    <clipPath id="clip-path">
      <path id="SVGID" d="M3084.069,883.268c0,1.892-31.432,3.425-70.2,3.425s-70.2-1.533-70.2-3.425,31.43-3.426,70.2-3.426S3084.069,881.377,3084.069,883.268Z" transform="translate(-2943.669 -879.842)" fill="#0a0a0a"/>
    </clipPath>
  </defs>
  <g id="Grupo_73" data-name="Grupo 73" transform="translate(-109.414 -111.001)">
    <g id="Grupo_5" data-name="Grupo 5" transform="translate(109.414 252.616)" opacity="0.25" clip-path="url(#clip-path)">
      <rect id="Retângulo_6" data-name="Retângulo 6" width="140.401" height="6.851" transform="translate(0 0)" fill="#0a0a0a"/>
      <path id="Caminho_28" data-name="Caminho 28" d="M3077.4,882.884c0,2.467-29.019,4.467-64.818,4.467s-64.817-2-64.817-4.467,29.02-4.466,64.817-4.466S3077.4,880.418,3077.4,882.884Z" transform="translate(-2943.363 -879.948)" fill="#0a0a0a"/>
      <ellipse id="Elipse_19" data-name="Elipse 19" cx="63.438" cy="4.371" rx="63.438" ry="4.371" transform="translate(5.784 -1.435)" fill="#0a0a0a"/>
      <path id="Caminho_29" data-name="Caminho 29" d="M3074.455,882.871c0,2.362-27.786,4.276-62.06,4.276s-62.058-1.914-62.058-4.276,27.784-4.276,62.058-4.276S3074.455,880.51,3074.455,882.871Z" transform="translate(-2943.172 -879.935)" fill="#0a0a0a"/>
      <ellipse id="Elipse_20" data-name="Elipse 20" cx="60.677" cy="4.181" rx="60.677" ry="4.181" transform="translate(8.545 -1.244)" fill="#0a0a0a"/>
      <path id="Caminho_30" data-name="Caminho 30" d="M3071.5,882.858c0,2.258-26.547,4.085-59.3,4.085s-59.3-1.828-59.3-4.085,26.549-4.085,59.3-4.085S3071.5,880.6,3071.5,882.858Z" transform="translate(-2942.982 -879.922)" fill="#0a0a0a"/>
      <path id="Caminho_31" data-name="Caminho 31" d="M3070.025,882.851c0,2.2-25.931,3.992-57.918,3.992s-57.915-1.789-57.915-3.992,25.929-3.99,57.915-3.99S3070.025,880.648,3070.025,882.851Z" transform="translate(-2942.887 -879.915)" fill="#0a0a0a"/>
      <ellipse id="Elipse_21" data-name="Elipse 21" cx="56.536" cy="3.896" rx="56.536" ry="3.896" transform="translate(12.686 -0.959)" fill="#0a0a0a"/>
      <path id="Caminho_32" data-name="Caminho 32" d="M3067.074,882.839c0,2.1-24.693,3.8-55.154,3.8s-55.158-1.7-55.158-3.8,24.7-3.8,55.158-3.8S3067.074,880.74,3067.074,882.839Z" transform="translate(-2942.695 -879.902)" fill="#0a0a0a"/>
      <ellipse id="Elipse_22" data-name="Elipse 22" cx="53.775" cy="3.705" rx="53.775" ry="3.705" transform="translate(15.447 -0.769)" fill="#0a0a0a"/>
      <ellipse id="Elipse_23" data-name="Elipse 23" cx="52.394" cy="3.611" rx="52.394" ry="3.611" transform="translate(16.828 -0.674)" fill="#0a0a0a"/>
      <path id="Caminho_33" data-name="Caminho 33" d="M3062.645,882.818c0,1.942-22.838,3.516-51.013,3.516s-51.015-1.574-51.015-3.516,22.842-3.516,51.015-3.516S3062.645,880.877,3062.645,882.818Z" transform="translate(-2942.409 -879.882)" fill="#0a0a0a"/>
      <ellipse id="Elipse_24" data-name="Elipse 24" cx="49.633" cy="3.42" rx="49.633" ry="3.42" transform="translate(19.589 -0.484)" fill="#0a0a0a"/>
      <path id="Caminho_34" data-name="Caminho 34" d="M3059.694,882.806c0,1.836-21.6,3.324-48.253,3.324s-48.254-1.488-48.254-3.324,21.6-3.325,48.254-3.325S3059.694,880.969,3059.694,882.806Z" transform="translate(-2942.216 -879.869)" fill="#0a0a0a"/>
      <path id="Caminho_35" data-name="Caminho 35" d="M3058.218,882.8c0,1.784-20.986,3.23-46.874,3.23s-46.872-1.446-46.872-3.23,20.985-3.229,46.872-3.229S3058.218,881.015,3058.218,882.8Z" transform="translate(-2942.122 -879.862)" fill="#0a0a0a"/>
      <ellipse id="Elipse_25" data-name="Elipse 25" cx="45.492" cy="3.135" rx="45.492" ry="3.135" transform="translate(23.73 -0.198)" fill="#0a0a0a"/>
      <path id="Caminho_36" data-name="Caminho 36" d="M3055.265,882.786c0,1.678-19.749,3.04-44.114,3.04s-44.11-1.362-44.11-3.04,19.749-3.04,44.11-3.04S3055.265,881.108,3055.265,882.786Z" transform="translate(-2941.932 -879.849)" fill="#0a0a0a"/>
      <path id="Caminho_37" data-name="Caminho 37" d="M3053.787,882.779c0,1.626-19.132,2.943-42.73,2.943s-42.732-1.317-42.732-2.943,19.131-2.944,42.732-2.944S3053.787,881.152,3053.787,882.779Z" transform="translate(-2941.835 -879.842)" fill="#0a0a0a"/>
      <ellipse id="Elipse_26" data-name="Elipse 26" cx="41.351" cy="2.849" rx="41.351" ry="2.849" transform="translate(27.872 0.087)" fill="#0a0a0a"/>
      <path id="Caminho_38" data-name="Caminho 38" d="M3050.837,882.766c0,1.521-17.9,2.754-39.973,2.754s-39.969-1.232-39.969-2.754,17.9-2.754,39.969-2.754S3050.837,881.245,3050.837,882.766Z" transform="translate(-2941.644 -879.829)" fill="#0a0a0a"/>
      <ellipse id="Elipse_27" data-name="Elipse 27" cx="38.59" cy="2.659" rx="38.59" ry="2.659" transform="translate(30.633 0.277)" fill="#0a0a0a"/>
      <ellipse id="Elipse_28" data-name="Elipse 28" cx="37.21" cy="2.564" rx="37.21" ry="2.564" transform="translate(32.013 0.373)" fill="#0a0a0a"/>
      <path id="Caminho_39" data-name="Caminho 39" d="M3046.408,882.746c0,1.363-16.042,2.469-35.829,2.469s-35.829-1.106-35.829-2.469,16.041-2.469,35.829-2.469S3046.408,881.383,3046.408,882.746Z" transform="translate(-2941.356 -879.81)" fill="#0a0a0a"/>
      <ellipse id="Elipse_29" data-name="Elipse 29" cx="34.449" cy="2.373" rx="34.449" ry="2.373" transform="translate(34.774 0.563)" fill="#0a0a0a"/>
      <ellipse id="Elipse_30" data-name="Elipse 30" cx="33.068" cy="2.279" rx="33.068" ry="2.279" transform="translate(36.154 0.658)" fill="#0a0a0a"/>
      <path id="Caminho_40" data-name="Caminho 40" d="M3041.979,882.726c0,1.206-14.187,2.183-31.687,2.183s-31.687-.976-31.687-2.183,14.188-2.183,31.688-2.183S3041.979,881.52,3041.979,882.726Z" transform="translate(-2941.071 -879.79)" fill="#0a0a0a"/>
      <ellipse id="Elipse_31" data-name="Elipse 31" cx="30.307" cy="2.088" rx="30.307" ry="2.088" transform="translate(38.915 0.848)" fill="#0a0a0a"/>
      <path id="Caminho_41" data-name="Caminho 41" d="M3039.028,882.713c0,1.1-12.953,1.993-28.927,1.993s-28.926-.891-28.926-1.993,12.95-1.993,28.926-1.993S3039.028,881.611,3039.028,882.713Z" transform="translate(-2940.879 -879.776)" fill="#0a0a0a"/>
      <ellipse id="Elipse_32" data-name="Elipse 32" cx="27.546" cy="1.898" rx="27.546" ry="1.898" transform="translate(41.676 1.039)" fill="#0a0a0a"/>
      <ellipse id="Elipse_33" data-name="Elipse 33" cx="26.166" cy="1.803" rx="26.166" ry="1.803" transform="translate(43.056 1.133)" fill="#0a0a0a"/>
      <path id="Caminho_42" data-name="Caminho 42" d="M3034.6,882.694c0,.943-11.1,1.708-24.786,1.708s-24.787-.765-24.787-1.708,11.1-1.709,24.787-1.709S3034.6,881.749,3034.6,882.694Z" transform="translate(-2940.591 -879.757)" fill="#0a0a0a"/>
      <path id="Caminho_43" data-name="Caminho 43" d="M3033.125,882.687c0,.891-10.479,1.613-23.407,1.613s-23.4-.722-23.4-1.613,10.481-1.613,23.4-1.613S3033.125,881.8,3033.125,882.687Z" transform="translate(-2940.497 -879.75)" fill="#0a0a0a"/>
      <path id="Caminho_44" data-name="Caminho 44" d="M3031.648,882.68c0,.838-9.862,1.517-22.027,1.517s-22.023-.679-22.023-1.517,9.861-1.517,22.023-1.517S3031.648,881.842,3031.648,882.68Z" transform="translate(-2940.401 -879.744)" fill="#0a0a0a"/>
      <path id="Caminho_45" data-name="Caminho 45" d="M3030.173,882.673c0,.786-9.244,1.423-20.647,1.423s-20.642-.636-20.642-1.423,9.241-1.422,20.642-1.422S3030.173,881.888,3030.173,882.673Z" transform="translate(-2940.305 -879.737)" fill="#0a0a0a"/>
      <path id="Caminho_46" data-name="Caminho 46" d="M3028.694,882.667c0,.733-8.623,1.328-19.262,1.328s-19.263-.6-19.263-1.328,8.622-1.328,19.263-1.328S3028.694,881.935,3028.694,882.667Z" transform="translate(-2940.209 -879.73)" fill="#0a0a0a"/>
      <path id="Caminho_47" data-name="Caminho 47" d="M3027.219,882.661c0,.681-8.007,1.232-17.884,1.232s-17.88-.551-17.88-1.232,8.006-1.233,17.88-1.233S3027.219,881.979,3027.219,882.661Z" transform="translate(-2940.115 -879.724)" fill="#0a0a0a"/>
      <ellipse id="Elipse_34" data-name="Elipse 34" cx="16.503" cy="1.137" rx="16.503" ry="1.137" transform="translate(52.72 1.799)" fill="#0a0a0a"/>
      <ellipse id="Elipse_35" data-name="Elipse 35" cx="15.122" cy="1.042" rx="15.122" ry="1.042" transform="translate(54.1 1.895)" fill="#0a0a0a"/>
      <path id="Caminho_48" data-name="Caminho 48" d="M3022.79,882.641c0,.524-6.153.948-13.743.948s-13.739-.424-13.739-.948,6.153-.948,13.739-.948S3022.79,882.118,3022.79,882.641Z" transform="translate(-2939.828 -879.704)" fill="#0a0a0a"/>
      <ellipse id="Elipse_36" data-name="Elipse 36" cx="12.361" cy="0.852" rx="12.361" ry="0.852" transform="translate(56.861 2.085)" fill="#0a0a0a"/>
      <path id="Caminho_49" data-name="Caminho 49" d="M3019.838,882.628c0,.418-4.918.756-10.983.756s-10.978-.338-10.978-.756,4.914-.756,10.978-.756S3019.838,882.21,3019.838,882.628Z" transform="translate(-2939.637 -879.691)" fill="#0a0a0a"/>
      <path id="Caminho_50" data-name="Caminho 50" d="M3018.363,882.621c0,.366-4.3.661-9.6.661s-9.6-.3-9.6-.661,4.3-.662,9.6-.662S3018.363,882.256,3018.363,882.621Z" transform="translate(-2939.54 -879.684)" fill="#0a0a0a"/>
    </g>
    <rect id="Retângulo_7" data-name="Retângulo 7" width="21.57" height="73.783" transform="matrix(0.707, -0.707, 0.707, 0.707, 179.618, 126.253)" fill="#4b7184"/>
    <rect id="Retângulo_8" data-name="Retângulo 8" width="21.571" height="73.782" transform="matrix(0.707, -0.707, 0.707, 0.707, 112.193, 193.679)" fill="#4b7184"/>
    <rect id="Retângulo_9" data-name="Retângulo 9" width="73.781" height="21.57" transform="translate(179.618 230.598) rotate(-45)" fill="#4a7282"/>
    <rect id="Retângulo_10" data-name="Retângulo 10" width="73.782" height="21.571" transform="translate(112.193 163.172) rotate(-45)" fill="#4a7282"/>
    <path id="Caminho_51" data-name="Caminho 51" d="M3009.009,762.233V789.3l25.1,25.1h27.068Z" transform="translate(-2829.392 -635.979)" fill="#4aa6a4"/>
    <path id="Caminho_52" data-name="Caminho 52" d="M3061.179,810.792h-27.068l-25.1,25.1v27.068Z" transform="translate(-2829.392 -632.366)" fill="#19313a"/>
    <path id="Caminho_53" data-name="Caminho 53" d="M3012.622,862.963V835.895l-25.1-25.1H2960.45Z" transform="translate(-2833.005 -632.365)" fill="#4aa6a4"/>
    <path id="Caminho_54" data-name="Caminho 54" d="M2960.45,814.406h27.066l25.1-25.1V762.233Z" transform="translate(-2833.006 -635.979)" fill="#19313a"/>
  </g>
</svg>
