<svg xmlns="http://www.w3.org/2000/svg" width="37.276" height="38.461" viewBox="0 0 37.276 38.461">
  <g id="map" transform="translate(-1313.092 -1308.122)">
    <path id="Caminho_111" data-name="Caminho 111" d="M1350.906,1310.685a.826.826,0,0,0-.657-.2l-11.692,1.626-11.653-4.067h0c-.018-.006-.036-.01-.053-.015s-.027-.009-.042-.011a.828.828,0,0,0-.2-.019l-.021,0c-.026,0-.052,0-.078.007l-.032.006c-.022,0-.044.008-.066.014l-.034.011-.061.021-.006,0-11.889,4.96a.826.826,0,0,0-.508.762v31.848a.826.826,0,0,0,1.144.763l11.6-4.839,11.546,4.029.029.009.031.01.041.009.029.006.047.006.024,0c.024,0,.048,0,.072,0a.83.83,0,0,0,.1-.007h.009l11.89-1.654a.826.826,0,0,0,.712-.818v-31.848a.827.827,0,0,0-.284-.623Zm-35.34,33.712v-30.058l10.237-4.271v13.4l-.148.021-.062.009c-.1.015-.2.032-.292.051l-.073.015c-.078.016-.156.034-.233.053l-.076.019q-.144.037-.286.081l-.05.016q-.121.038-.241.081l-.077.028c-.095.035-.189.072-.282.111l-.152.066c-.062.028-.124.057-.186.088-.185.09-.367.19-.542.3-.093.057-.185.116-.275.177-.18.122-.356.253-.523.391a6.78,6.78,0,0,0-2.473,5.245c0,.078,0,.156,0,.233,0,.025,0,.049,0,.074,0,.053.005.107.008.16,0,.028,0,.056.006.084,0,.051.008.1.013.153,0,.027.005.055.008.083.006.056.013.112.02.167,0,.022.005.043.008.065q.016.115.034.23l.007.042c.01.063.021.125.034.188l.016.078c.01.05.021.1.032.152.006.028.012.056.019.083.011.051.024.1.036.151.006.026.012.052.019.078.015.059.031.118.047.177,0,.016.009.032.013.048q.032.112.066.223l.019.06q.026.081.053.163c.009.027.018.053.027.079l.05.144.029.082.056.148.028.072q.039.1.079.2l.008.019c.03.072.06.143.091.215l.03.068c.022.05.044.1.066.147l.037.079c.022.046.043.092.065.138l.037.077.073.147.031.062c.035.069.071.138.108.206l.018.033q.046.087.094.173l.039.069.077.135.043.075.077.131.042.071.09.148.031.05c.04.065.08.129.121.193l.033.05q.046.072.092.142l.046.07.081.121.049.072.084.122.045.065.106.15.023.032.129.178.043.057.09.121.05.066.085.111.05.065.09.114.044.056.131.164.02.024.113.138.048.059.085.1.053.063.081.1.052.061.09.1.04.046.127.144.037.042.092.1.051.055.078.085.051.055.078.085.048.051.089.094.035.036.117.122.045.047.073.075.051.052.066.066.05.051.065.064.047.047.08.079.054.053.074.072.047.045.055.053.047.045.053.05.045.042.05.047.042.039.067.062.056.051.035.032Zm11.063-5.359-.072-.065-.015-.014-.064-.06-.027-.025-.058-.054-.03-.028-.06-.057-.03-.028-.076-.073-.016-.016-.1-.092-.027-.027-.071-.07-.036-.036-.066-.065-.039-.039-.071-.071-.034-.035-.1-.1-.005-.006-.109-.113-.035-.036-.077-.08-.042-.045-.074-.079-.041-.045-.083-.089-.033-.036-.117-.129-.012-.014-.105-.118-.039-.045-.08-.092-.044-.051-.078-.091-.044-.05-.088-.1-.033-.039c-.04-.047-.08-.1-.12-.145l-.026-.031-.1-.117-.042-.052-.08-.1-.044-.057-.08-.1-.042-.054-.095-.124-.025-.033-.119-.159-.031-.043-.087-.12-.042-.058-.076-.109-.043-.062c-.026-.037-.052-.075-.078-.113l-.038-.056-.1-.151-.013-.019-.111-.172-.032-.052-.078-.123-.038-.063-.07-.116-.039-.065-.072-.123-.032-.056c-.034-.06-.068-.12-.1-.18l-.005-.011c-.031-.057-.062-.114-.093-.171l-.03-.059c-.022-.042-.044-.084-.065-.126l-.034-.067-.06-.122c-.011-.022-.021-.044-.032-.067-.021-.045-.043-.09-.063-.135l-.025-.053c-.028-.062-.056-.125-.083-.188l-.014-.034c-.022-.052-.044-.1-.065-.155l-.026-.065-.05-.127-.026-.071-.047-.126-.024-.068c-.017-.049-.034-.1-.05-.148-.005-.015-.01-.03-.015-.045-.021-.064-.041-.129-.06-.193l-.014-.048c-.015-.048-.028-.1-.042-.146l-.018-.069c-.011-.043-.022-.086-.032-.129-.006-.024-.012-.048-.017-.072-.01-.044-.02-.088-.029-.131-.005-.022-.01-.044-.014-.066-.011-.056-.022-.111-.032-.167l-.006-.03c-.011-.065-.022-.131-.031-.2,0-.019-.005-.038-.007-.056-.006-.047-.013-.094-.018-.141,0-.024-.005-.048-.007-.071,0-.043-.008-.086-.012-.129,0-.024,0-.048-.006-.072,0-.046-.005-.091-.007-.136,0-.021,0-.042,0-.062,0-.066,0-.132,0-.2a5.15,5.15,0,0,1,1.873-3.971c.126-.1.26-.2.4-.3.068-.046.139-.091.209-.134.088-.054.178-.1.27-.153h0c.092-.048.185-.094.279-.136l.042-.018.073-.032a5.164,5.164,0,0,1,4,0l.115.05a5.092,5.092,0,0,1,.55.29c.072.043.142.088.209.134.136.092.27.192.4.3a5.133,5.133,0,0,1,1.873,3.971c0,.068,0,.135,0,.2,0,.017,0,.034,0,.051q0,.076-.008.151l0,.061q-.006.074-.013.149c0,.018,0,.036-.006.054-.007.061-.015.122-.023.183,0,.005,0,.01,0,.016-.01.07-.021.14-.033.211a.061.061,0,0,0,0,.01c-.011.064-.024.128-.037.193l-.008.038c-.012.057-.025.114-.038.171l-.009.036c-.016.064-.032.129-.049.193l0,.007c-.057.212-.124.423-.2.633v0a18.135,18.135,0,0,1-4.7,6.467Zm11.019,4.609-9.847-3.437c1.436-1.311,4.778-4.715,5.49-8.566v0q.049-.266.081-.536c0-.032.008-.064.011-.1s.008-.078.011-.117.007-.079.01-.119,0-.07.007-.106,0-.092.007-.138c0-.031,0-.061,0-.091q0-.1,0-.2c0-.009,0-.018,0-.027a6.782,6.782,0,0,0-2.473-5.245c-.084-.069-.17-.136-.257-.2s-.177-.129-.266-.19h0c-.088-.06-.18-.119-.274-.176a6.794,6.794,0,0,0-.728-.384l-.151-.066c-.093-.04-.187-.076-.282-.111l-.077-.028c-.08-.029-.161-.056-.242-.081l-.049-.016c-.1-.029-.191-.056-.287-.081l-.074-.018q-.118-.029-.236-.054l-.07-.015q-.146-.029-.293-.052l-.06-.008c-.05-.008-.1-.015-.149-.021v-13.472l10.193,3.557Zm11.889-1.209-10.237,1.424v-30.18l10.237-1.424Zm0,0" transform="translate(-0.822 0.12)" fill="#4aa6a4"/>
    <path id="Caminho_112" data-name="Caminho 112" d="M1408.6,1493.883a3.592,3.592,0,1,0,3.592,3.592,3.6,3.6,0,0,0-3.592-3.592Zm0,5.531a1.939,1.939,0,1,1,1.939-1.939,1.942,1.942,0,0,1-1.939,1.939Zm0,0" transform="translate(-82.793 -167.144)" fill="#4aa6a4"/>
    <path id="Caminho_113" data-name="Caminho 113" d="M1584.959,1423.184a.826.826,0,0,0-.826.826v18.445a.826.826,0,1,0,1.652,0V1424.01a.827.827,0,0,0-.826-.826Zm0,0" transform="translate(-243.977 -103.526)" fill="#4aa6a4"/>
    <path id="Caminho_114" data-name="Caminho 114" d="M1585.773,1396.629a.844.844,0,0,0-.047-.155.818.818,0,0,0-.076-.143.792.792,0,0,0-.1-.125.823.823,0,0,0-.125-.1.9.9,0,0,0-.143-.076.827.827,0,0,0-.632,0,.9.9,0,0,0-.143.076.88.88,0,0,0-.126.1.8.8,0,0,0-.1.125.844.844,0,0,0-.076.143.868.868,0,0,0-.047.155.831.831,0,0,0-.015.162.818.818,0,0,0,.015.161.841.841,0,0,0,.047.155.823.823,0,0,0,.076.143.8.8,0,0,0,.1.126.852.852,0,0,0,.126.1.9.9,0,0,0,.143.076.83.83,0,0,0,.155.047.811.811,0,0,0,.323,0,.829.829,0,0,0,.155-.047.883.883,0,0,0,.143-.076.834.834,0,0,0,.228-.228.833.833,0,0,0,.076-.143.879.879,0,0,0,.047-.155.827.827,0,0,0,.016-.161.841.841,0,0,0-.016-.162Zm0,0" transform="translate(-243.98 -79.032)" fill="#4aa6a4"/>
    <path id="Caminho_115" data-name="Caminho 115" d="M1349.306,1439.691a.827.827,0,0,0-.826.826v18.445a.826.826,0,1,0,1.652,0v-18.445a.826.826,0,0,0-.826-.826Zm0,0" transform="translate(-31.926 -118.38)" fill="#4aa6a4"/>
    <path id="Caminho_116" data-name="Caminho 116" d="M1349.888,1412.716a.805.805,0,0,0-.268-.179.893.893,0,0,0-.155-.048.809.809,0,0,0-.478.048.8.8,0,0,0-.143.075.809.809,0,0,0-.125.1.83.83,0,0,0-.242.584.813.813,0,0,0,.017.161.846.846,0,0,0,.123.3.8.8,0,0,0,.1.126.832.832,0,0,0,.584.242.811.811,0,0,0,.162-.017.8.8,0,0,0,.155-.047.852.852,0,0,0,.142-.076.8.8,0,0,0,.126-.1.849.849,0,0,0,.1-.126.837.837,0,0,0,.076-.143.862.862,0,0,0,.047-.155.816.816,0,0,0,.016-.161.83.83,0,0,0-.242-.584Zm0,0" transform="translate(-31.924 -93.888)" fill="#4aa6a4"/>
  </g>
</svg>
