<svg id="money" xmlns="http://www.w3.org/2000/svg" width="106.848" height="106.848" viewBox="0 0 106.848 106.848">
  <path id="Caminho_153" data-name="Caminho 153" d="M116.428,153.237A36.808,36.808,0,1,0,79.62,116.428,36.85,36.85,0,0,0,116.428,153.237Zm0-70.155a33.347,33.347,0,1,1-33.347,33.347A33.385,33.385,0,0,1,116.428,83.082Z" transform="translate(-63.004 -63.004)" fill="#4aa6a4"/>
  <path id="Caminho_154" data-name="Caminho 154" d="M189.242,181.778a1.731,1.731,0,1,0-3.462,0c0,4.686,5.551,8.428,12.923,8.939v2.023a1.731,1.731,0,1,0,3.462,0v-2.023c7.372-.511,12.923-4.252,12.923-8.939,0-6.278-5.969-8.728-12.923-10.668V157.617c5.655.455,9.462,3.085,9.462,5.469a1.731,1.731,0,1,0,3.462,0c0-4.686-5.551-8.428-12.923-8.939v-2.023a1.731,1.731,0,0,0-3.462,0v2.023c-7.372.511-12.923,4.252-12.923,8.939,0,6.278,5.969,8.728,12.923,10.668v13.494C193.048,186.793,189.242,184.162,189.242,181.778Zm22.385,0c0,2.384-3.807,5.015-9.462,5.469V174.716C209.185,176.79,211.627,178.674,211.627,181.778Zm-22.385-18.693c0-2.384,3.807-5.015,9.462-5.469v12.532C191.683,168.074,189.242,166.19,189.242,163.086Z" transform="translate(-147.01 -119.008)" fill="#4aa6a4"/>
  <path id="Caminho_155" data-name="Caminho 155" d="M126.2,15.648a53.424,53.424,0,0,0-77.627,2.2l.948-6.636a1.731,1.731,0,1,0-3.427-.489L44.25,23.64a1.731,1.731,0,0,0,2.261,1.887l11.077-3.693a1.731,1.731,0,0,0-1.095-3.284l-5.565,1.855a49.963,49.963,0,1,1,72.827,68.347,49.637,49.637,0,0,1-35.329,14.634,1.731,1.731,0,1,0,0,3.462,53.424,53.424,0,0,0,37.777-91.2Z" transform="translate(-35.002 0)" fill="#4b7184"/>
  <path id="Caminho_156" data-name="Caminho 156" d="M6.688,288.789c-.244-1.12-.452-2.264-.619-3.4a1.731,1.731,0,1,0-3.425.5c.178,1.214.4,2.437.662,3.635a1.731,1.731,0,0,0,3.382-.738Z" transform="translate(-2.078 -224.661)" fill="#4b7184"/>
  <path id="Caminho_157" data-name="Caminho 157" d="M6.242,188.9a1.751,1.751,0,0,0,.343.034,1.731,1.731,0,0,0,1.695-1.39c.226-1.125.495-2.257.8-3.363a1.731,1.731,0,1,0-3.338-.916c-.325,1.183-.612,2.393-.854,3.6A1.731,1.731,0,0,0,6.242,188.9Z" transform="translate(-3.839 -144.01)" fill="#4b7184"/>
  <path id="Caminho_158" data-name="Caminho 158" d="M19.97,337.953c-.472-1.045-.912-2.12-1.31-3.2a1.731,1.731,0,0,0-3.247,1.2c.425,1.15.9,2.3,1.4,3.418a1.731,1.731,0,0,0,3.155-1.424Z" transform="translate(-12.112 -264.003)" fill="#4b7184"/>
  <path id="Caminho_159" data-name="Caminho 159" d="M1.746,239.671a1.731,1.731,0,0,0,1.717-1.744c0-.139,0-.278,0-.416,0-1.012.031-2.035.091-3.042A1.731,1.731,0,1,0,.1,234.261c-.064,1.075-.1,2.168-.1,3.251q0,.221,0,.442a1.731,1.731,0,0,0,1.73,1.717Z" transform="translate(0 -184.086)" fill="#4b7184"/>
  <path id="Caminho_160" data-name="Caminho 160" d="M41.21,380.438a1.731,1.731,0,1,0-2.928,1.846c.654,1.038,1.353,2.066,2.077,3.055a1.731,1.731,0,0,0,2.794-2.044C42.475,382.37,41.822,381.409,41.21,380.438Z" transform="translate(-30.081 -300.406)" fill="#4b7184"/>
  <path id="Caminho_161" data-name="Caminho 161" d="M75.181,422.909c-.853-.767-1.69-1.575-2.488-2.4a1.731,1.731,0,0,0-2.487,2.408c.853.881,1.748,1.744,2.659,2.565a1.731,1.731,0,0,0,2.316-2.573Z" transform="translate(-55.169 -332.337)" fill="#4b7184"/>
  <path id="Caminho_162" data-name="Caminho 162" d="M21.231,146.543a1.729,1.729,0,0,0,2.275-.9c.234-.543.482-1.089.736-1.624a1.731,1.731,0,1,0-3.127-1.486c-.272.572-.537,1.156-.787,1.737A1.731,1.731,0,0,0,21.231,146.543Z" transform="translate(-15.974 -112.004)" fill="#4b7184"/>
</svg>
