<svg id="money" xmlns="http://www.w3.org/2000/svg" width="81.848" height="81.848" viewBox="0 0 81.848 81.848">
  <path id="Caminho_153" data-name="Caminho 153" d="M107.816,136.012a28.2,28.2,0,1,0-28.2-28.2A28.228,28.228,0,0,0,107.816,136.012Zm0-53.74a25.544,25.544,0,1,1-25.544,25.544A25.573,25.573,0,0,1,107.816,82.272Z" transform="translate(-66.892 -66.892)" fill="#4aa6a4"/>
  <path id="Caminho_154" data-name="Caminho 154" d="M188.432,174.435a1.326,1.326,0,1,0-2.652,0c0,3.59,4.252,6.456,9.9,6.847v1.55a1.326,1.326,0,1,0,2.652,0v-1.55c5.647-.391,9.9-3.257,9.9-6.847,0-4.809-4.573-6.686-9.9-8.172V155.926c4.332.348,7.248,2.364,7.248,4.189a1.326,1.326,0,1,0,2.652,0c0-3.59-4.252-6.456-9.9-6.847v-1.55a1.326,1.326,0,0,0-2.652,0v1.55c-5.647.391-9.9,3.257-9.9,6.847,0,4.809,4.573,6.686,9.9,8.172v10.337C191.348,178.276,188.432,176.261,188.432,174.435Zm17.147,0c0,1.826-2.916,3.841-7.248,4.189v-9.6C203.709,170.614,205.579,172.056,205.579,174.435Zm-17.147-14.319c0-1.826,2.916-3.841,7.248-4.189v9.6C190.3,163.937,188.432,162.494,188.432,160.116Z" transform="translate(-156.081 -126.351)" fill="#4aa6a4"/>
  <path id="Caminho_155" data-name="Caminho 155" d="M107.023,11.986a40.924,40.924,0,0,0-59.464,1.682l.726-5.084a1.326,1.326,0,1,0-2.625-.375l-1.414,9.9a1.326,1.326,0,0,0,1.732,1.445l8.485-2.829a1.326,1.326,0,0,0-.838-2.516l-4.263,1.421a38.273,38.273,0,1,1,55.787,52.355A38.023,38.023,0,0,1,78.086,79.2a1.326,1.326,0,1,0,0,2.652,40.924,40.924,0,0,0,28.938-69.862Z" transform="translate(-37.162 0)" fill="#4b7184"/>
  <path id="Caminho_156" data-name="Caminho 156" d="M5.738,287.647c-.187-.858-.347-1.734-.474-2.6a1.326,1.326,0,1,0-2.623.384c.136.93.307,1.867.507,2.785a1.326,1.326,0,0,0,2.591-.565Z" transform="translate(-2.206 -238.524)" fill="#4b7184"/>
  <path id="Caminho_157" data-name="Caminho 157" d="M5.917,187.281a1.341,1.341,0,0,0,.262.026,1.326,1.326,0,0,0,1.3-1.065c.173-.862.379-1.729.611-2.576a1.326,1.326,0,1,0-2.557-.7c-.249.906-.469,1.833-.654,2.755A1.326,1.326,0,0,0,5.917,187.281Z" transform="translate(-4.076 -152.897)" fill="#4b7184"/>
  <path id="Caminho_158" data-name="Caminho 158" d="M18.879,336.941c-.361-.8-.7-1.624-1-2.448a1.326,1.326,0,0,0-2.487.92c.326.881.687,1.762,1.073,2.618a1.326,1.326,0,0,0,2.417-1.091Z" transform="translate(-12.859 -280.294)" fill="#4b7184"/>
  <path id="Caminho_159" data-name="Caminho 159" d="M1.338,238.024a1.326,1.326,0,0,0,1.315-1.336c0-.107,0-.213,0-.319,0-.775.024-1.559.07-2.33a1.326,1.326,0,1,0-2.647-.159C.025,234.7,0,235.541,0,236.37q0,.169,0,.339a1.326,1.326,0,0,0,1.326,1.315Z" transform="translate(0 -195.445)" fill="#4b7184"/>
  <path id="Caminho_160" data-name="Caminho 160" d="M40.462,380.249a1.326,1.326,0,1,0-2.243,1.414c.5.8,1.036,1.582,1.591,2.341a1.326,1.326,0,0,0,2.14-1.565C41.432,381.729,40.931,380.993,40.462,380.249Z" transform="translate(-31.938 -318.943)" fill="#4b7184"/>
  <path id="Caminho_161" data-name="Caminho 161" d="M73.9,422.224c-.653-.588-1.295-1.207-1.906-1.838a1.326,1.326,0,1,0-1.9,1.845c.654.675,1.339,1.336,2.037,1.965a1.326,1.326,0,0,0,1.774-1.971Z" transform="translate(-58.573 -352.844)" fill="#4b7184"/>
  <path id="Caminho_162" data-name="Caminho 162" d="M20.987,145.373a1.324,1.324,0,0,0,1.743-.691c.18-.416.369-.834.564-1.244a1.326,1.326,0,1,0-2.4-1.138c-.208.438-.411.886-.6,1.331A1.326,1.326,0,0,0,20.987,145.373Z" transform="translate(-16.959 -118.915)" fill="#4b7184"/>
</svg>
