<svg width="10" height="11" viewBox="0 0 10 11" fill="none" xmlns="http://www.w3.org/2000/svg">
<path d="M0.714625 0.645565L9.17637 5.29948C9.2123 5.31927 9.24227 5.34833 9.26313 5.38364C9.284 5.41895 9.29501 5.45922 9.29501 5.50023C9.29501 5.54125 9.284 5.58151 9.26313 5.61683C9.24227 5.65214 9.2123 5.6812 9.17637 5.70098L0.714625 10.3549C0.679734 10.3741 0.640443 10.3839 0.600625 10.3832C0.560807 10.3826 0.521837 10.3717 0.487556 10.3514C0.453275 10.3311 0.424865 10.3023 0.405128 10.2677C0.385391 10.2331 0.375007 10.194 0.375 10.1541V0.846315C0.375007 0.806493 0.385391 0.767359 0.405128 0.732772C0.424865 0.698185 0.453275 0.669338 0.487556 0.649074C0.521837 0.628811 0.560807 0.61783 0.600625 0.617215C0.640443 0.616599 0.679734 0.626371 0.714625 0.645565ZM1.29167 5.95857V8.99136L7.63958 5.50023L1.29167 2.00911V5.0419H3.58333V5.95857H1.29167Z" fill="white"/>
</svg>
