<svg xmlns="http://www.w3.org/2000/svg" xmlns:xlink="http://www.w3.org/1999/xlink" width="120" height="120" viewBox="0 0 120 120">
  <defs>
    <clipPath id="clip-path">
      <rect width="120" height="120" fill="none"/>
    </clipPath>
    <clipPath id="clip-path-2">
      <rect id="Retângulo_86" data-name="Retângulo 86" width="120" height="120" transform="translate(0.392)" fill="#4aa6a4"/>
    </clipPath>
  </defs>
  <g id="Repetição_de_grade_3" data-name="Repetição de grade 3" clip-path="url(#clip-path)">
    <g id="Grupo_64" data-name="Grupo 64" transform="translate(-1322.139 -1321.747)">
      <g id="Grupo_62" data-name="Grupo 62" transform="translate(1321.747 1321.747)" clip-path="url(#clip-path-2)">
        <path id="Caminho_193" data-name="Caminho 193" d="M1440.08,1337.162a16.829,16.829,0,0,0-11.546-8.215l-1.294-5.344a1.773,1.773,0,0,0-2.145-1.306l-9.927,2.4a1.774,1.774,0,0,0-1.306,2.14l.947,3.907-65.861,15.948a1.773,1.773,0,0,0-1.3,2.138l.634,2.622-11.959,2.9a1.774,1.774,0,0,0-1.305,2.141l.936,3.868-12.332,2.985a1.772,1.772,0,0,0-1.306,2.139l2.279,9.41a1.776,1.776,0,0,0,1.722,1.357,1.856,1.856,0,0,0,.418-.052l12.33-2.984.935,3.856a1.773,1.773,0,0,0,1.721,1.357,1.719,1.719,0,0,0,.418-.051l11.961-2.895.636,2.624a1.771,1.771,0,0,0,2.141,1.3l17.714-4.293a7.806,7.806,0,0,0,1.216,2.836l-28.219,57.381a4.808,4.808,0,1,0,8.63,4.24l21.249-43.216v41.1a4.811,4.811,0,0,0,9.622,0v-41.1l21.247,43.216a4.842,4.842,0,0,0,4.32,2.692,4.686,4.686,0,0,0,2.115-.495,4.8,4.8,0,0,0,2.2-6.435l-28.218-57.386a7.768,7.768,0,0,0,1.084-6.523l32.9-7.976.948,3.912a1.775,1.775,0,0,0,2.14,1.306l9.925-2.406a1.771,1.771,0,0,0,1.306-2.141l-1.292-5.341a16.859,16.859,0,0,0,4.319-21.622Zm-112.456,35.177-1.446-5.964,10.609-2.568,1.446,5.964Zm15.405,2.179-.925-3.815a.12.12,0,0,0-.005-.042.226.226,0,0,1-.014-.042l-2.259-9.326v-.037a.152.152,0,0,0-.013-.037l-.928-3.833,10.238-2.477,4.153,17.135Zm42.848-3.342a4.277,4.277,0,0,1-.551,5.375l-.009.012a4.3,4.3,0,0,1-6.082,0l-.009-.012a4.3,4.3,0,1,1,6.651-5.381Zm-32.841,66.838a1.263,1.263,0,1,1-2.267-1.112l26.7-54.3v5.726Zm29.242.708a1.266,1.266,0,0,1-1.266-1.266v-56.2a7.3,7.3,0,0,0,2.532,0v56.2a1.267,1.267,0,0,1-1.266,1.266Zm31.57-.859a1.261,1.261,0,0,1-.652.732,1.289,1.289,0,0,1-1.678-.584l-24.429-49.683V1382.6l26.7,54.3a1.245,1.245,0,0,1,.062.958Zm-31.57-72.191a7.858,7.858,0,0,0-7.562,5.774l-16.956,4.1-5.617-23.194v-.017l-.633-2.614,64.135-15.533,6.252,25.814-33.853,8.208a7.827,7.827,0,0,0-5.767-2.543Zm44.432-.866-8.022-33.119a.136.136,0,0,0-.008-.055.283.283,0,0,1-.017-.05l-.934-3.849,6.482-1.569,8.982,37.078Zm2.765-31.961a13.262,13.262,0,0,1,5.344,22.066Zm0,0" transform="translate(-1321.974 -1321.961)" fill="#4aa6a4"/>
      </g>
      <path id="Caminho_194" data-name="Caminho 194" d="M1509.634,1379.7l-13.614,3.3a1.772,1.772,0,1,0,.835,3.444l13.614-3.3a1.772,1.772,0,1,0-.835-3.443Zm0,0" transform="translate(-114.388 -38.233)" fill="#4aa6a4"/>
      <path id="Caminho_195" data-name="Caminho 195" d="M1563.241,1373.106a1.767,1.767,0,0,0-2.139-1.307l-4.052.982a1.772,1.772,0,1,0,.833,3.443l4.048-.98a1.771,1.771,0,0,0,1.309-2.138Zm0,0" transform="translate(-154.814 -33.004)" fill="#4aa6a4"/>
    </g>
  </g>
</svg>
