<svg width="690" height="70" viewBox="0 0 690 70" fill="none" xmlns="http://www.w3.org/2000/svg">
<line x1="346" y1="38.5" x2="473" y2="38.5" stroke="#559484"/>
<path d="M8.52161 65.956L11.0896 63.484C12.2296 62.392 12.4696 61.66 12.4696 60.844C12.4696 59.404 11.3416 58.504 9.58961 58.504C8.28161 58.504 7.16561 58.972 6.51761 59.776L7.33361 60.484C7.84961 59.86 8.58161 59.572 9.48161 59.572C10.6576 59.572 11.2696 60.1 11.2696 60.964C11.2696 61.492 11.1016 62.02 10.2136 62.884L6.79361 66.184V67H12.8296V65.956H8.52161ZM17.0322 62.128L19.2282 59.416V58.6H13.6842V59.644H17.7282L15.6162 62.236V63.076H16.2882C17.7282 63.076 18.3642 63.652 18.3642 64.54C18.3642 65.452 17.6442 66.028 16.3842 66.028C15.3522 66.028 14.4162 65.656 13.8522 65.128L13.3002 66.076C14.0082 66.712 15.1842 67.096 16.3842 67.096C18.5202 67.096 19.5642 65.944 19.5642 64.528C19.5642 63.232 18.7122 62.284 17.0322 62.128ZM19.7714 68.2H20.8154L24.7754 56.896H23.7314L19.7714 68.2ZM24.7855 58.6V59.644H26.6815V67H27.8695V58.6H24.7855ZM29.2269 58.6V59.644H31.1229V67H32.3109V58.6H29.2269ZM33.2363 68.2H34.2803L38.2403 56.896H37.1963L33.2363 68.2ZM39.963 65.956L42.531 63.484C43.671 62.392 43.911 61.66 43.911 60.844C43.911 59.404 42.783 58.504 41.031 58.504C39.723 58.504 38.607 58.972 37.959 59.776L38.775 60.484C39.291 59.86 40.023 59.572 40.923 59.572C42.099 59.572 42.711 60.1 42.711 60.964C42.711 61.492 42.543 62.02 41.655 62.884L38.235 66.184V67H44.271V65.956H39.963ZM48.6545 67.096C50.6105 67.096 52.0745 65.536 52.0745 62.8C52.0745 60.064 50.6105 58.504 48.6545 58.504C46.6865 58.504 45.2225 60.064 45.2225 62.8C45.2225 65.536 46.6865 67.096 48.6545 67.096ZM48.6545 66.028C47.3345 66.028 46.4225 64.948 46.4225 62.8C46.4225 60.652 47.3345 59.572 48.6545 59.572C49.9625 59.572 50.8745 60.652 50.8745 62.8C50.8745 64.948 49.9625 66.028 48.6545 66.028Z" fill="#B4B7BA"/>
<path d="M157.143 58.6V59.644H159.039V67H160.227V58.6H157.143ZM169.372 63.904H167.776V62.08H166.648V63.904H163.42L167.536 58.6H166.24L161.944 64.096V64.936H166.612V67H167.776V64.936H169.372V63.904ZM169.508 68.2H170.552L174.512 56.896H173.468L169.508 68.2ZM174.522 58.6V59.644H176.418V67H177.606V58.6H174.522ZM181.039 65.956L183.607 63.484C184.747 62.392 184.987 61.66 184.987 60.844C184.987 59.404 183.859 58.504 182.107 58.504C180.799 58.504 179.683 58.972 179.035 59.776L179.851 60.484C180.367 59.86 181.099 59.572 181.999 59.572C183.175 59.572 183.787 60.1 183.787 60.964C183.787 61.492 183.619 62.02 182.731 62.884L179.311 66.184V67H185.347V65.956H181.039ZM185.539 68.2H186.583L190.543 56.896H189.499L185.539 68.2ZM192.266 65.956L194.834 63.484C195.974 62.392 196.214 61.66 196.214 60.844C196.214 59.404 195.086 58.504 193.334 58.504C192.026 58.504 190.91 58.972 190.262 59.776L191.078 60.484C191.594 59.86 192.326 59.572 193.226 59.572C194.402 59.572 195.014 60.1 195.014 60.964C195.014 61.492 194.846 62.02 193.958 62.884L190.538 66.184V67H196.574V65.956H192.266ZM200.957 67.096C202.913 67.096 204.377 65.536 204.377 62.8C204.377 60.064 202.913 58.504 200.957 58.504C198.989 58.504 197.525 60.064 197.525 62.8C197.525 65.536 198.989 67.096 200.957 67.096ZM200.957 66.028C199.637 66.028 198.725 64.948 198.725 62.8C198.725 60.652 199.637 59.572 200.957 59.572C202.265 59.572 203.177 60.652 203.177 62.8C203.177 64.948 202.265 66.028 200.957 66.028Z" fill="#B4B7BA"/>
<path d="M309.543 58.6V59.644H311.439V67H312.627V58.6H309.543ZM317.897 67.096C319.853 67.096 321.317 65.536 321.317 62.8C321.317 60.064 319.853 58.504 317.897 58.504C315.929 58.504 314.465 60.064 314.465 62.8C314.465 65.536 315.929 67.096 317.897 67.096ZM317.897 66.028C316.577 66.028 315.665 64.948 315.665 62.8C315.665 60.652 316.577 59.572 317.897 59.572C319.205 59.572 320.117 60.652 320.117 62.8C320.117 64.948 319.205 66.028 317.897 66.028ZM321.322 68.2H322.366L326.326 56.896H325.282L321.322 68.2ZM329.651 67.096C331.607 67.096 333.071 65.536 333.071 62.8C333.071 60.064 331.607 58.504 329.651 58.504C327.683 58.504 326.219 60.064 326.219 62.8C326.219 65.536 327.683 67.096 329.651 67.096ZM329.651 66.028C328.331 66.028 327.419 64.948 327.419 62.8C327.419 60.652 328.331 59.572 329.651 59.572C330.959 59.572 331.871 60.652 331.871 62.8C331.871 64.948 330.959 66.028 329.651 66.028ZM341.53 63.904H339.934V62.08H338.806V63.904H335.578L339.694 58.6H338.398L334.102 64.096V64.936H338.77V67H339.934V64.936H341.53V63.904ZM341.666 68.2H342.71L346.67 56.896H345.626L341.666 68.2ZM348.393 65.956L350.961 63.484C352.101 62.392 352.341 61.66 352.341 60.844C352.341 59.404 351.213 58.504 349.461 58.504C348.153 58.504 347.037 58.972 346.389 59.776L347.205 60.484C347.721 59.86 348.453 59.572 349.353 59.572C350.529 59.572 351.141 60.1 351.141 60.964C351.141 61.492 350.973 62.02 350.085 62.884L346.665 66.184V67H352.701V65.956H348.393ZM353.207 58.6V59.644H355.103V67H356.291V58.6H353.207Z" fill="#B4B7BA"/>
<path d="M465.029 67.096C466.985 67.096 468.449 65.536 468.449 62.8C468.449 60.064 466.985 58.504 465.029 58.504C463.061 58.504 461.597 60.064 461.597 62.8C461.597 65.536 463.061 67.096 465.029 67.096ZM465.029 66.028C463.709 66.028 462.797 64.948 462.797 62.8C462.797 60.652 463.709 59.572 465.029 59.572C466.337 59.572 467.249 60.652 467.249 62.8C467.249 64.948 466.337 66.028 465.029 66.028ZM472.001 61.948H471.065L471.293 59.644H475.025V58.6H470.285L469.841 62.992H471.749C473.693 62.992 474.293 63.58 474.293 64.528C474.293 65.44 473.573 66.028 472.301 66.028C471.281 66.028 470.345 65.656 469.781 65.128L469.229 66.076C469.949 66.712 471.125 67.096 472.313 67.096C474.461 67.096 475.493 65.932 475.493 64.48C475.493 62.992 474.509 61.948 472.001 61.948ZM475.58 68.2H476.624L480.584 56.896H479.54L475.58 68.2ZM483.908 67.096C485.864 67.096 487.328 65.536 487.328 62.8C487.328 60.064 485.864 58.504 483.908 58.504C481.94 58.504 480.476 60.064 480.476 62.8C480.476 65.536 481.94 67.096 483.908 67.096ZM483.908 66.028C482.588 66.028 481.676 64.948 481.676 62.8C481.676 60.652 482.588 59.572 483.908 59.572C485.216 59.572 486.128 60.652 486.128 62.8C486.128 64.948 485.216 66.028 483.908 66.028ZM492.104 61.9C491.06 61.9 490.172 62.284 489.692 63.004C489.68 62.896 489.68 62.8 489.68 62.704C489.68 60.604 490.772 59.536 492.476 59.536C493.076 59.536 493.652 59.644 494.084 59.932L494.54 58.996C494 58.66 493.244 58.504 492.452 58.504C490.1 58.504 488.48 60.04 488.48 62.908C488.48 65.584 489.752 67.096 492.008 67.096C493.676 67.096 494.984 66.064 494.984 64.444C494.984 62.896 493.772 61.9 492.104 61.9ZM491.96 66.124C490.664 66.124 489.968 65.368 489.968 64.504C489.968 63.58 490.76 62.872 491.9 62.872C493.076 62.872 493.82 63.508 493.82 64.492C493.82 65.488 493.052 66.124 491.96 66.124ZM495.092 68.2H496.136L500.096 56.896H499.052L495.092 68.2ZM501.818 65.956L504.386 63.484C505.526 62.392 505.766 61.66 505.766 60.844C505.766 59.404 504.638 58.504 502.886 58.504C501.578 58.504 500.462 58.972 499.814 59.776L500.63 60.484C501.146 59.86 501.878 59.572 502.778 59.572C503.954 59.572 504.566 60.1 504.566 60.964C504.566 61.492 504.398 62.02 503.51 62.884L500.09 66.184V67H506.126V65.956H501.818ZM506.633 58.6V59.644H508.529V67H509.717V58.6H506.633Z" fill="#B4B7BA"/>
<path d="M82.7587 56.066C84.5407 56.066 85.8387 54.603 85.8387 52.15C85.8387 49.697 84.5407 48.234 82.7587 48.234C80.9767 48.234 79.6897 49.697 79.6897 52.15C79.6897 54.603 80.9767 56.066 82.7587 56.066ZM82.7587 55.34C81.4167 55.34 80.4927 54.207 80.4927 52.15C80.4927 50.093 81.4167 48.96 82.7587 48.96C84.1007 48.96 85.0247 50.093 85.0247 52.15C85.0247 54.207 84.1007 55.34 82.7587 55.34ZM86.4784 48.3V49.004H88.2934V56H89.0854V48.3H86.4784ZM90.079 57.1H90.794L94.424 46.738H93.709L90.079 57.1ZM94.4706 48.3V49.004H96.2856V56H97.0776V48.3H94.4706ZM99.9412 55.296L102.559 52.722C103.593 51.71 103.824 51.05 103.824 50.313C103.824 49.026 102.834 48.234 101.272 48.234C100.095 48.234 99.1382 48.63 98.5442 49.334L99.1052 49.818C99.6112 49.235 100.304 48.96 101.206 48.96C102.383 48.96 103.01 49.51 103.01 50.401C103.01 50.929 102.845 51.446 101.976 52.304L98.7752 55.439V56H104.176V55.296H99.9412ZM104.431 57.1H105.146L108.776 46.738H108.061L104.431 57.1ZM109.985 55.296L112.603 52.722C113.637 51.71 113.868 51.05 113.868 50.313C113.868 49.026 112.878 48.234 111.316 48.234C110.139 48.234 109.182 48.63 108.588 49.334L109.149 49.818C109.655 49.235 110.348 48.96 111.25 48.96C112.427 48.96 113.054 49.51 113.054 50.401C113.054 50.929 112.889 51.446 112.02 52.304L108.819 55.439V56H114.22V55.296H109.985ZM118.24 56.066C120.022 56.066 121.32 54.603 121.32 52.15C121.32 49.697 120.022 48.234 118.24 48.234C116.458 48.234 115.171 49.697 115.171 52.15C115.171 54.603 116.458 56.066 118.24 56.066ZM118.24 55.34C116.898 55.34 115.974 54.207 115.974 52.15C115.974 50.093 116.898 48.96 118.24 48.96C119.582 48.96 120.506 50.093 120.506 52.15C120.506 54.207 119.582 55.34 118.24 55.34Z" fill="#B4B7BA"/>
<path d="M238.829 56.066C240.611 56.066 241.909 54.603 241.909 52.15C241.909 49.697 240.611 48.234 238.829 48.234C237.047 48.234 235.76 49.697 235.76 52.15C235.76 54.603 237.047 56.066 238.829 56.066ZM238.829 55.34C237.487 55.34 236.563 54.207 236.563 52.15C236.563 50.093 237.487 48.96 238.829 48.96C240.171 48.96 241.095 50.093 241.095 52.15C241.095 54.207 240.171 55.34 238.829 55.34ZM244.045 55.296L246.663 52.722C247.697 51.71 247.928 51.05 247.928 50.313C247.928 49.026 246.938 48.234 245.376 48.234C244.199 48.234 243.242 48.63 242.648 49.334L243.209 49.818C243.715 49.235 244.408 48.96 245.31 48.96C246.487 48.96 247.114 49.51 247.114 50.401C247.114 50.929 246.949 51.446 246.08 52.304L242.879 55.439V56H248.28V55.296H244.045ZM248.535 57.1H249.25L252.88 46.738H252.165L248.535 57.1ZM255.92 56.066C257.702 56.066 259 54.603 259 52.15C259 49.697 257.702 48.234 255.92 48.234C254.138 48.234 252.851 49.697 252.851 52.15C252.851 54.603 254.138 56.066 255.92 56.066ZM255.92 55.34C254.578 55.34 253.654 54.207 253.654 52.15C253.654 50.093 254.578 48.96 255.92 48.96C257.262 48.96 258.186 50.093 258.186 52.15C258.186 54.207 257.262 55.34 255.92 55.34ZM261.136 55.296L263.754 52.722C264.788 51.71 265.019 51.05 265.019 50.313C265.019 49.026 264.029 48.234 262.467 48.234C261.29 48.234 260.333 48.63 259.739 49.334L260.3 49.818C260.806 49.235 261.499 48.96 262.401 48.96C263.578 48.96 264.205 49.51 264.205 50.401C264.205 50.929 264.04 51.446 263.171 52.304L259.97 55.439V56H265.371V55.296H261.136ZM265.625 57.1H266.34L269.97 46.738H269.255L265.625 57.1ZM271.18 55.296L273.798 52.722C274.832 51.71 275.063 51.05 275.063 50.313C275.063 49.026 274.073 48.234 272.511 48.234C271.334 48.234 270.377 48.63 269.783 49.334L270.344 49.818C270.85 49.235 271.543 48.96 272.445 48.96C273.622 48.96 274.249 49.51 274.249 50.401C274.249 50.929 274.084 51.446 273.215 52.304L270.014 55.439V56H275.415V55.296H271.18ZM275.936 48.3V49.004H277.751V56H278.543V48.3H275.936Z" fill="#B4B7BA"/>
<path d="M391.001 56.066C392.783 56.066 394.081 54.603 394.081 52.15C394.081 49.697 392.783 48.234 391.001 48.234C389.219 48.234 387.932 49.697 387.932 52.15C387.932 54.603 389.219 56.066 391.001 56.066ZM391.001 55.34C389.659 55.34 388.735 54.207 388.735 52.15C388.735 50.093 389.659 48.96 391.001 48.96C392.343 48.96 393.267 50.093 393.267 52.15C393.267 54.207 392.343 55.34 391.001 55.34ZM397.726 51.6L399.904 48.861V48.3H394.954V49.004H398.892L396.758 51.677V52.26H397.308C398.738 52.26 399.387 52.865 399.387 53.789C399.387 54.746 398.683 55.34 397.407 55.34C396.406 55.34 395.515 54.966 395.02 54.449L394.635 55.076C395.229 55.681 396.296 56.066 397.407 56.066C399.266 56.066 400.201 55.076 400.201 53.789C400.201 52.557 399.376 51.688 397.726 51.6ZM400.47 57.1H401.185L404.815 46.738H404.1L400.47 57.1ZM407.856 56.066C409.638 56.066 410.936 54.603 410.936 52.15C410.936 49.697 409.638 48.234 407.856 48.234C406.074 48.234 404.787 49.697 404.787 52.15C404.787 54.603 406.074 56.066 407.856 56.066ZM407.856 55.34C406.514 55.34 405.59 54.207 405.59 52.15C405.59 50.093 406.514 48.96 407.856 48.96C409.198 48.96 410.122 50.093 410.122 52.15C410.122 54.207 409.198 55.34 407.856 55.34ZM414.094 51.457H413.104L413.368 49.004H416.888V48.3H412.675L412.279 52.161H413.918C415.876 52.161 416.492 52.777 416.492 53.767C416.492 54.702 415.799 55.34 414.49 55.34C413.5 55.34 412.62 54.966 412.125 54.449L411.74 55.076C412.334 55.681 413.39 56.066 414.501 56.066C416.382 56.066 417.295 55.043 417.295 53.734C417.295 52.37 416.415 51.457 414.094 51.457ZM417.454 57.1H418.169L421.799 46.738H421.084L417.454 57.1ZM423.008 55.296L425.626 52.722C426.66 51.71 426.891 51.05 426.891 50.313C426.891 49.026 425.901 48.234 424.339 48.234C423.162 48.234 422.205 48.63 421.611 49.334L422.172 49.818C422.678 49.235 423.371 48.96 424.273 48.96C425.45 48.96 426.077 49.51 426.077 50.401C426.077 50.929 425.912 51.446 425.043 52.304L421.842 55.439V56H427.243V55.296H423.008ZM427.764 48.3V49.004H429.579V56H430.371V48.3H427.764Z" fill="#B4B7BA"/>
<path d="M79.8477 31H80.6617V24.004H83.3677V23.3H77.1417V24.004H79.8477V31ZM85.1007 26.347V25.214H84.3527V31H85.1337V28.052C85.1337 26.688 85.8707 25.918 87.0807 25.918C87.1357 25.918 87.2017 25.929 87.2677 25.929V25.17C86.2007 25.17 85.4637 25.577 85.1007 26.347ZM89.0778 23.949C89.4078 23.949 89.6498 23.696 89.6498 23.377C89.6498 23.08 89.3968 22.838 89.0778 22.838C88.7588 22.838 88.5058 23.091 88.5058 23.388C88.5058 23.696 88.7588 23.949 89.0778 23.949ZM88.6818 31H89.4628V25.214H88.6818V31ZM93.6599 25.17C92.7469 25.17 91.8889 25.456 91.3059 25.951L91.6579 26.534C92.1309 26.116 92.8349 25.852 93.5829 25.852C94.6609 25.852 95.2219 26.391 95.2219 27.381V27.733H93.3849C91.7239 27.733 91.1519 28.481 91.1519 29.372C91.1519 30.373 91.9549 31.055 93.2639 31.055C94.2209 31.055 94.9029 30.692 95.2549 30.098V31H96.0029V27.414C96.0029 25.918 95.1559 25.17 93.6599 25.17ZM93.3849 30.439C92.4609 30.439 91.9219 30.021 91.9219 29.35C91.9219 28.756 92.2849 28.316 93.4069 28.316H95.2219V29.262C94.9139 30.021 94.2649 30.439 93.3849 30.439ZM102.755 25.214V26.325C102.271 25.566 101.435 25.17 100.467 25.17C98.8166 25.17 97.5626 26.303 97.5626 27.964C97.5626 29.625 98.8166 30.78 100.467 30.78C101.413 30.78 102.238 30.395 102.722 29.658V30.395C102.722 31.825 102.051 32.496 100.588 32.496C99.6966 32.496 98.8606 32.199 98.3106 31.704L97.9146 32.298C98.5196 32.87 99.5536 33.189 100.61 33.189C102.524 33.189 103.503 32.287 103.503 30.296V25.214H102.755ZM100.544 30.087C99.2676 30.087 98.3546 29.218 98.3546 27.964C98.3546 26.71 99.2676 25.852 100.544 25.852C101.82 25.852 102.744 26.71 102.744 27.964C102.744 29.218 101.82 30.087 100.544 30.087ZM110.736 28.107C110.736 26.369 109.559 25.17 107.931 25.17C106.303 25.17 105.104 26.391 105.104 28.107C105.104 29.823 106.336 31.055 108.14 31.055C109.053 31.055 109.856 30.725 110.373 30.109L109.933 29.603C109.493 30.109 108.866 30.362 108.162 30.362C106.897 30.362 105.973 29.559 105.885 28.349H110.725C110.725 28.261 110.736 28.173 110.736 28.107ZM107.931 25.841C109.064 25.841 109.889 26.633 109.988 27.766H105.885C105.984 26.633 106.809 25.841 107.931 25.841ZM119.541 25.17C118.496 25.17 117.671 25.643 117.253 26.391C116.901 25.577 116.153 25.17 115.196 25.17C114.228 25.17 113.48 25.577 113.073 26.27V25.214H112.325V31H113.106V27.964C113.106 26.644 113.865 25.874 115.042 25.874C116.098 25.874 116.714 26.501 116.714 27.722V31H117.495V27.964C117.495 26.644 118.243 25.874 119.431 25.874C120.476 25.874 121.092 26.501 121.092 27.722V31H121.873V27.645C121.873 25.984 120.949 25.17 119.541 25.17Z" fill="white"/>
<path d="M374.338 23.3H375.152V31H374.338V23.3ZM380.44 25.17C381.166 25.17 381.742 25.3827 382.167 25.808C382.6 26.226 382.816 26.8383 382.816 27.645V31H382.035V27.722C382.035 27.1207 381.885 26.6623 381.584 26.347C381.284 26.0317 380.855 25.874 380.297 25.874C379.674 25.874 379.179 26.061 378.812 26.435C378.453 26.8017 378.273 27.3113 378.273 27.964V31H377.492V25.214H378.24V26.281C378.453 25.929 378.746 25.6577 379.12 25.467C379.502 25.269 379.942 25.17 380.44 25.17ZM389.691 25.214L387.117 31H386.314L383.751 25.214H384.565L386.732 30.142L388.921 25.214H389.691ZM395.668 28.349H390.828C390.872 28.9503 391.103 29.438 391.521 29.812C391.939 30.1787 392.467 30.362 393.105 30.362C393.464 30.362 393.794 30.2997 394.095 30.175C394.396 30.043 394.656 29.8523 394.876 29.603L395.316 30.109C395.059 30.417 394.737 30.6517 394.348 30.813C393.967 30.9743 393.545 31.055 393.083 31.055C392.489 31.055 391.961 30.9303 391.499 30.681C391.044 30.4243 390.689 30.0723 390.432 29.625C390.175 29.1777 390.047 28.6717 390.047 28.107C390.047 27.5423 390.168 27.0363 390.41 26.589C390.659 26.1417 390.997 25.7933 391.422 25.544C391.855 25.2947 392.339 25.17 392.874 25.17C393.409 25.17 393.89 25.2947 394.315 25.544C394.74 25.7933 395.074 26.1417 395.316 26.589C395.558 27.029 395.679 27.535 395.679 28.107L395.668 28.349ZM392.874 25.841C392.317 25.841 391.847 26.0207 391.466 26.38C391.092 26.732 390.879 27.194 390.828 27.766H394.931C394.88 27.194 394.663 26.732 394.282 26.38C393.908 26.0207 393.439 25.841 392.874 25.841ZM398.82 31.055C398.35 31.055 397.899 30.989 397.467 30.857C397.041 30.7177 396.708 30.5453 396.466 30.34L396.818 29.724C397.06 29.9147 397.364 30.0723 397.731 30.197C398.097 30.3143 398.479 30.373 398.875 30.373C399.403 30.373 399.791 30.2923 400.041 30.131C400.297 29.9623 400.426 29.7277 400.426 29.427C400.426 29.2143 400.356 29.0493 400.217 28.932C400.077 28.8073 399.901 28.7157 399.689 28.657C399.476 28.591 399.194 28.5287 398.842 28.47C398.372 28.382 397.995 28.294 397.709 28.206C397.423 28.1107 397.177 27.953 396.972 27.733C396.774 27.513 396.675 27.2087 396.675 26.82C396.675 26.336 396.876 25.94 397.28 25.632C397.683 25.324 398.244 25.17 398.963 25.17C399.337 25.17 399.711 25.2213 400.085 25.324C400.459 25.4193 400.767 25.5477 401.009 25.709L400.668 26.336C400.191 26.006 399.623 25.841 398.963 25.841C398.464 25.841 398.086 25.929 397.83 26.105C397.58 26.281 397.456 26.512 397.456 26.798C397.456 27.018 397.525 27.194 397.665 27.326C397.811 27.458 397.991 27.557 398.204 27.623C398.416 27.6817 398.71 27.744 399.084 27.81C399.546 27.898 399.916 27.986 400.195 28.074C400.473 28.162 400.712 28.3123 400.91 28.525C401.108 28.7377 401.207 29.031 401.207 29.405C401.207 29.911 400.994 30.3143 400.569 30.615C400.151 30.9083 399.568 31.055 398.82 31.055ZM405.698 30.648C405.551 30.78 405.368 30.8827 405.148 30.956C404.935 31.022 404.711 31.055 404.477 31.055C403.934 31.055 403.516 30.9083 403.223 30.615C402.929 30.3217 402.783 29.9073 402.783 29.372V25.874H401.749V25.214H402.783V23.949H403.564V25.214H405.324V25.874H403.564V29.328C403.564 29.6727 403.648 29.9367 403.817 30.12C403.993 30.296 404.242 30.384 404.565 30.384C404.726 30.384 404.88 30.3583 405.027 30.307C405.181 30.2557 405.313 30.1823 405.423 30.087L405.698 30.648ZM407.119 25.214H407.9V31H407.119V25.214ZM407.515 23.949C407.354 23.949 407.218 23.894 407.108 23.784C406.998 23.674 406.943 23.542 406.943 23.388C406.943 23.2413 406.998 23.113 407.108 23.003C407.218 22.893 407.354 22.838 407.515 22.838C407.677 22.838 407.812 22.893 407.922 23.003C408.032 23.1057 408.087 23.2303 408.087 23.377C408.087 23.5383 408.032 23.674 407.922 23.784C407.812 23.894 407.677 23.949 407.515 23.949ZM417.289 25.17C418.015 25.17 418.584 25.379 418.994 25.797C419.412 26.215 419.621 26.831 419.621 27.645V31H418.84V27.722C418.84 27.1207 418.694 26.6623 418.4 26.347C418.114 26.0317 417.707 25.874 417.179 25.874C416.578 25.874 416.105 26.061 415.76 26.435C415.416 26.8017 415.243 27.3113 415.243 27.964V31H414.462V27.722C414.462 27.1207 414.316 26.6623 414.022 26.347C413.736 26.0317 413.326 25.874 412.79 25.874C412.196 25.874 411.723 26.061 411.371 26.435C411.027 26.8017 410.854 27.3113 410.854 27.964V31H410.073V25.214H410.821V26.27C411.027 25.918 411.313 25.6467 411.679 25.456C412.046 25.2653 412.468 25.17 412.944 25.17C413.428 25.17 413.846 25.2727 414.198 25.478C414.558 25.6833 414.825 25.9877 415.001 26.391C415.214 26.0097 415.518 25.7127 415.914 25.5C416.318 25.28 416.776 25.17 417.289 25.17ZM426.799 28.349H421.959C422.003 28.9503 422.234 29.438 422.652 29.812C423.07 30.1787 423.598 30.362 424.236 30.362C424.595 30.362 424.925 30.2997 425.226 30.175C425.527 30.043 425.787 29.8523 426.007 29.603L426.447 30.109C426.19 30.417 425.868 30.6517 425.479 30.813C425.098 30.9743 424.676 31.055 424.214 31.055C423.62 31.055 423.092 30.9303 422.63 30.681C422.175 30.4243 421.82 30.0723 421.563 29.625C421.306 29.1777 421.178 28.6717 421.178 28.107C421.178 27.5423 421.299 27.0363 421.541 26.589C421.79 26.1417 422.128 25.7933 422.553 25.544C422.986 25.2947 423.47 25.17 424.005 25.17C424.54 25.17 425.021 25.2947 425.446 25.544C425.871 25.7933 426.205 26.1417 426.447 26.589C426.689 27.029 426.81 27.535 426.81 28.107L426.799 28.349ZM424.005 25.841C423.448 25.841 422.978 26.0207 422.597 26.38C422.223 26.732 422.01 27.194 421.959 27.766H426.062C426.011 27.194 425.794 26.732 425.413 26.38C425.039 26.0207 424.57 25.841 424.005 25.841ZM431.348 25.17C432.074 25.17 432.649 25.3827 433.075 25.808C433.507 26.226 433.724 26.8383 433.724 27.645V31H432.943V27.722C432.943 27.1207 432.792 26.6623 432.492 26.347C432.191 26.0317 431.762 25.874 431.205 25.874C430.581 25.874 430.086 26.061 429.72 26.435C429.36 26.8017 429.181 27.3113 429.181 27.964V31H428.4V25.214H429.148V26.281C429.36 25.929 429.654 25.6577 430.028 25.467C430.409 25.269 430.849 25.17 431.348 25.17ZM438.891 30.648C438.744 30.78 438.561 30.8827 438.341 30.956C438.128 31.022 437.905 31.055 437.67 31.055C437.127 31.055 436.709 30.9083 436.416 30.615C436.123 30.3217 435.976 29.9073 435.976 29.372V25.874H434.942V25.214H435.976V23.949H436.757V25.214H438.517V25.874H436.757V29.328C436.757 29.6727 436.841 29.9367 437.01 30.12C437.186 30.296 437.435 30.384 437.758 30.384C437.919 30.384 438.073 30.3583 438.22 30.307C438.374 30.2557 438.506 30.1823 438.616 30.087L438.891 30.648ZM442.474 31.055C441.916 31.055 441.414 30.9303 440.967 30.681C440.519 30.4243 440.167 30.0723 439.911 29.625C439.654 29.1777 439.526 28.6717 439.526 28.107C439.526 27.5423 439.654 27.0363 439.911 26.589C440.167 26.1417 440.519 25.7933 440.967 25.544C441.414 25.2947 441.916 25.17 442.474 25.17C443.031 25.17 443.533 25.2947 443.981 25.544C444.428 25.7933 444.776 26.1417 445.026 26.589C445.282 27.0363 445.411 27.5423 445.411 28.107C445.411 28.6717 445.282 29.1777 445.026 29.625C444.776 30.0723 444.428 30.4243 443.981 30.681C443.533 30.9303 443.031 31.055 442.474 31.055ZM442.474 30.362C442.884 30.362 443.251 30.2703 443.574 30.087C443.904 29.8963 444.16 29.6287 444.344 29.284C444.527 28.9393 444.619 28.547 444.619 28.107C444.619 27.667 444.527 27.2747 444.344 26.93C444.16 26.5853 443.904 26.3213 443.574 26.138C443.251 25.9473 442.884 25.852 442.474 25.852C442.063 25.852 441.693 25.9473 441.363 26.138C441.04 26.3213 440.783 26.5853 440.593 26.93C440.409 27.2747 440.318 27.667 440.318 28.107C440.318 28.547 440.409 28.9393 440.593 29.284C440.783 29.6287 441.04 29.8963 441.363 30.087C441.693 30.2703 442.063 30.362 442.474 30.362Z" fill="white"/>
<path d="M238.749 31.066C240.718 31.066 241.62 30.098 241.62 28.965C241.62 26.16 236.879 27.436 236.879 25.324C236.879 24.554 237.506 23.927 238.914 23.927C239.596 23.927 240.366 24.136 241.026 24.565L241.301 23.916C240.685 23.487 239.783 23.234 238.914 23.234C236.956 23.234 236.076 24.213 236.076 25.346C236.076 28.195 240.817 26.897 240.817 29.009C240.817 29.768 240.19 30.373 238.749 30.373C237.737 30.373 236.758 29.977 236.208 29.438L235.889 30.065C236.461 30.659 237.594 31.066 238.749 31.066ZM246.209 25.17C245.252 25.17 244.449 25.588 243.976 26.358V25.214H243.228V33.134H244.009V29.911C244.493 30.659 245.285 31.055 246.209 31.055C247.859 31.055 249.091 29.867 249.091 28.107C249.091 26.358 247.859 25.17 246.209 25.17ZM246.154 30.362C244.922 30.362 243.998 29.46 243.998 28.107C243.998 26.765 244.922 25.852 246.154 25.852C247.375 25.852 248.31 26.765 248.31 28.107C248.31 29.46 247.375 30.362 246.154 30.362ZM253.048 31.055C254.742 31.055 255.985 29.823 255.985 28.107C255.985 26.391 254.742 25.17 253.048 25.17C251.354 25.17 250.1 26.391 250.1 28.107C250.1 29.823 251.354 31.055 253.048 31.055ZM253.048 30.362C251.816 30.362 250.892 29.46 250.892 28.107C250.892 26.754 251.816 25.852 253.048 25.852C254.28 25.852 255.193 26.754 255.193 28.107C255.193 29.46 254.28 30.362 253.048 30.362ZM260.528 25.17C259.527 25.17 258.746 25.577 258.328 26.281V25.214H257.58V31H258.361V27.964C258.361 26.644 259.142 25.874 260.385 25.874C261.485 25.874 262.123 26.501 262.123 27.722V31H262.904V27.645C262.904 25.984 261.936 25.17 260.528 25.17ZM266.575 31.055C268.082 31.055 268.962 30.406 268.962 29.405C268.962 27.183 265.211 28.36 265.211 26.798C265.211 26.248 265.673 25.841 266.718 25.841C267.312 25.841 267.917 25.984 268.423 26.336L268.764 25.709C268.28 25.379 267.466 25.17 266.718 25.17C265.244 25.17 264.43 25.874 264.43 26.82C264.43 29.108 268.181 27.92 268.181 29.427C268.181 29.999 267.73 30.373 266.63 30.373C265.816 30.373 265.035 30.087 264.573 29.724L264.221 30.34C264.694 30.747 265.618 31.055 266.575 31.055ZM272.771 31.055C274.465 31.055 275.708 29.823 275.708 28.107C275.708 26.391 274.465 25.17 272.771 25.17C271.077 25.17 269.823 26.391 269.823 28.107C269.823 29.823 271.077 31.055 272.771 31.055ZM272.771 30.362C271.539 30.362 270.615 29.46 270.615 28.107C270.615 26.754 271.539 25.852 272.771 25.852C274.003 25.852 274.916 26.754 274.916 28.107C274.916 29.46 274.003 30.362 272.771 30.362ZM278.05 26.347V25.214H277.302V31H278.083V28.052C278.083 26.688 278.82 25.918 280.03 25.918C280.085 25.918 280.151 25.929 280.217 25.929V25.17C279.15 25.17 278.413 25.577 278.05 26.347Z" fill="white"/>
<path d="M545.84 23.3L542.529 29.009L539.185 23.3H538.514V31H539.295V24.873L542.32 30.021H542.705L545.73 24.84V31H546.511V23.3H545.84ZM553.904 28.107C553.904 26.369 552.727 25.17 551.099 25.17C549.471 25.17 548.272 26.391 548.272 28.107C548.272 29.823 549.504 31.055 551.308 31.055C552.221 31.055 553.024 30.725 553.541 30.109L553.101 29.603C552.661 30.109 552.034 30.362 551.33 30.362C550.065 30.362 549.141 29.559 549.053 28.349H553.893C553.893 28.261 553.904 28.173 553.904 28.107ZM551.099 25.841C552.232 25.841 553.057 26.633 553.156 27.766H549.053C549.152 26.633 549.977 25.841 551.099 25.841ZM556.242 26.347V25.214H555.494V31H556.275V28.052C556.275 26.688 557.012 25.918 558.222 25.918C558.277 25.918 558.343 25.929 558.409 25.929V25.17C557.342 25.17 556.605 25.577 556.242 26.347ZM562.167 31.055C563.146 31.055 563.971 30.659 564.433 29.911L563.85 29.515C563.454 30.098 562.838 30.362 562.167 30.362C560.902 30.362 559.978 29.471 559.978 28.107C559.978 26.754 560.902 25.852 562.167 25.852C562.838 25.852 563.454 26.127 563.85 26.71L564.433 26.314C563.971 25.555 563.146 25.17 562.167 25.17C560.44 25.17 559.186 26.38 559.186 28.107C559.186 29.834 560.44 31.055 562.167 31.055ZM567.991 25.17C567.078 25.17 566.22 25.456 565.637 25.951L565.989 26.534C566.462 26.116 567.166 25.852 567.914 25.852C568.992 25.852 569.553 26.391 569.553 27.381V27.733H567.716C566.055 27.733 565.483 28.481 565.483 29.372C565.483 30.373 566.286 31.055 567.595 31.055C568.552 31.055 569.234 30.692 569.586 30.098V31H570.334V27.414C570.334 25.918 569.487 25.17 567.991 25.17ZM567.716 30.439C566.792 30.439 566.253 30.021 566.253 29.35C566.253 28.756 566.616 28.316 567.738 28.316H569.553V29.262C569.245 30.021 568.596 30.439 567.716 30.439ZM576.976 22.838V26.314C576.492 25.566 575.7 25.17 574.776 25.17C573.126 25.17 571.894 26.358 571.894 28.107C571.894 29.856 573.126 31.055 574.776 31.055C575.733 31.055 576.536 30.637 577.009 29.856V31H577.757V22.838H576.976ZM574.842 30.362C573.61 30.362 572.686 29.46 572.686 28.107C572.686 26.754 573.61 25.852 574.842 25.852C576.063 25.852 576.987 26.754 576.987 28.107C576.987 29.46 576.063 30.362 574.842 30.362ZM582.297 31.055C583.991 31.055 585.234 29.823 585.234 28.107C585.234 26.391 583.991 25.17 582.297 25.17C580.603 25.17 579.349 26.391 579.349 28.107C579.349 29.823 580.603 31.055 582.297 31.055ZM582.297 30.362C581.065 30.362 580.141 29.46 580.141 28.107C580.141 26.754 581.065 25.852 582.297 25.852C583.529 25.852 584.442 26.754 584.442 28.107C584.442 29.46 583.529 30.362 582.297 30.362Z" fill="white"/>
<path d="M5.46327 12.072C6.69927 12.072 7.80327 11.652 8.54727 10.836L7.98327 10.272C7.29927 10.98 6.45927 11.28 5.49927 11.28C3.47127 11.28 1.94727 9.792 1.94727 7.8C1.94727 5.808 3.47127 4.32 5.49927 4.32C6.45927 4.32 7.29927 4.62 7.98327 5.316L8.54727 4.752C7.80327 3.936 6.69927 3.528 5.47527 3.528C2.94327 3.528 1.07127 5.34 1.07127 7.8C1.07127 10.26 2.94327 12.072 5.46327 12.072ZM12.3745 5.64C11.3785 5.64 10.4425 5.952 9.80652 6.492L10.1905 7.128C10.7065 6.672 11.4745 6.384 12.2905 6.384C13.4665 6.384 14.0785 6.972 14.0785 8.052V8.436H12.0745C10.2625 8.436 9.63852 9.252 9.63852 10.224C9.63852 11.316 10.5145 12.06 11.9425 12.06C12.9865 12.06 13.7305 11.664 14.1145 11.016V12H14.9305V8.088C14.9305 6.456 14.0065 5.64 12.3745 5.64ZM12.0745 11.388C11.0665 11.388 10.4785 10.932 10.4785 10.2C10.4785 9.552 10.8745 9.072 12.0985 9.072H14.0785V10.104C13.7425 10.932 13.0345 11.388 12.0745 11.388ZM20.4966 5.64C19.4526 5.64 18.5766 6.096 18.0606 6.936V5.688H17.2446V14.328H18.0966V10.812C18.6246 11.628 19.4886 12.06 20.4966 12.06C22.2966 12.06 23.6406 10.764 23.6406 8.844C23.6406 6.936 22.2966 5.64 20.4966 5.64ZM20.4366 11.304C19.0926 11.304 18.0846 10.32 18.0846 8.844C18.0846 7.38 19.0926 6.384 20.4366 6.384C21.7686 6.384 22.7886 7.38 22.7886 8.844C22.7886 10.32 21.7686 11.304 20.4366 11.304ZM28.4015 11.004C28.1615 11.22 27.8135 11.328 27.4655 11.328C26.7575 11.328 26.3735 10.92 26.3735 10.176V6.408H28.2935V5.688H26.3735V4.308H25.5215V5.688H24.3935V6.408H25.5215V10.224C25.5215 11.388 26.1815 12.06 27.3695 12.06C27.8615 12.06 28.3655 11.916 28.7015 11.616L28.4015 11.004ZM32.4605 5.64C31.4645 5.64 30.5285 5.952 29.8925 6.492L30.2765 7.128C30.7925 6.672 31.5605 6.384 32.3765 6.384C33.5525 6.384 34.1645 6.972 34.1645 8.052V8.436H32.1605C30.3485 8.436 29.7245 9.252 29.7245 10.224C29.7245 11.316 30.6005 12.06 32.0285 12.06C33.0725 12.06 33.8165 11.664 34.2005 11.016V12H35.0165V8.088C35.0165 6.456 34.0925 5.64 32.4605 5.64ZM32.1605 11.388C31.1525 11.388 30.5645 10.932 30.5645 10.2C30.5645 9.552 30.9605 9.072 32.1845 9.072H34.1645V10.104C33.8285 10.932 33.1205 11.388 32.1605 11.388ZM39.97 11.304C38.59 11.304 37.582 10.332 37.582 8.844C37.582 7.368 38.59 6.384 39.97 6.384C40.702 6.384 41.374 6.684 41.806 7.32L42.442 6.888C41.938 6.06 41.038 5.64 39.97 5.64C38.086 5.64 36.718 6.96 36.718 8.844C36.718 10.548 37.834 11.796 39.442 12.024L39.178 13.02H39.454C39.958 13.02 40.198 13.248 40.198 13.572C40.198 13.932 39.934 14.136 39.454 14.136C39.166 14.136 38.902 14.064 38.662 13.908L38.458 14.364C38.746 14.556 39.07 14.64 39.466 14.64C40.27 14.64 40.822 14.244 40.822 13.596C40.822 13.068 40.462 12.684 39.802 12.624L39.946 12.06H39.97C41.038 12.06 41.938 11.628 42.442 10.812L41.806 10.38C41.374 11.016 40.702 11.304 39.97 11.304ZM45.5917 3.828C46.0717 3.828 46.4197 4.644 47.1637 4.644C47.7997 4.644 48.2197 4.128 48.2437 3.348H47.7277C47.7037 3.804 47.4637 4.092 47.1037 4.092C46.6357 4.092 46.2757 3.276 45.5317 3.276C44.8957 3.276 44.4757 3.792 44.4517 4.596H44.9677C44.9917 4.116 45.2317 3.828 45.5917 3.828ZM46.3237 5.64C45.3277 5.64 44.3917 5.952 43.7557 6.492L44.1397 7.128C44.6557 6.672 45.4237 6.384 46.2397 6.384C47.4157 6.384 48.0277 6.972 48.0277 8.052V8.436H46.0237C44.2117 8.436 43.5877 9.252 43.5877 10.224C43.5877 11.316 44.4637 12.06 45.8917 12.06C46.9357 12.06 47.6797 11.664 48.0637 11.016V12H48.8797V8.088C48.8797 6.456 47.9557 5.64 46.3237 5.64ZM46.0237 11.388C45.0157 11.388 44.4277 10.932 44.4277 10.2C44.4277 9.552 44.8237 9.072 46.0477 9.072H48.0277V10.104C47.6917 10.932 46.9837 11.388 46.0237 11.388ZM53.7973 12.06C55.6453 12.06 57.0013 10.716 57.0013 8.844C57.0013 6.972 55.6453 5.64 53.7973 5.64C51.9493 5.64 50.5813 6.972 50.5813 8.844C50.5813 10.716 51.9493 12.06 53.7973 12.06ZM53.7973 11.304C52.4533 11.304 51.4453 10.32 51.4453 8.844C51.4453 7.368 52.4533 6.384 53.7973 6.384C55.1413 6.384 56.1373 7.368 56.1373 8.844C56.1373 10.32 55.1413 11.304 53.7973 11.304Z" fill="white"/>
<path d="M288.79 12H289.726L285.886 3.6H285.01L281.17 12H282.094L283.102 9.756H287.782L288.79 12ZM283.426 9.036L285.442 4.524L287.458 9.036H283.426ZM294.188 5.64C293.144 5.64 292.268 6.096 291.752 6.936V5.688H290.936V14.328H291.788V10.812C292.316 11.628 293.18 12.06 294.188 12.06C295.988 12.06 297.332 10.764 297.332 8.844C297.332 6.936 295.988 5.64 294.188 5.64ZM294.128 11.304C292.784 11.304 291.776 10.32 291.776 8.844C291.776 7.38 292.784 6.384 294.128 6.384C295.46 6.384 296.48 7.38 296.48 8.844C296.48 10.32 295.46 11.304 294.128 11.304ZM299.885 6.924V5.688H299.069V12H299.921V8.784C299.921 7.296 300.725 6.456 302.045 6.456C302.105 6.456 302.177 6.468 302.249 6.468V5.64C301.085 5.64 300.281 6.084 299.885 6.924ZM306.313 12.06C308.161 12.06 309.517 10.716 309.517 8.844C309.517 6.972 308.161 5.64 306.313 5.64C304.465 5.64 303.097 6.972 303.097 8.844C303.097 10.716 304.465 12.06 306.313 12.06ZM306.313 11.304C304.969 11.304 303.961 10.32 303.961 8.844C303.961 7.368 304.969 6.384 306.313 6.384C307.657 6.384 308.653 7.368 308.653 8.844C308.653 10.32 307.657 11.304 306.313 11.304ZM313.344 3.756C313.704 3.756 314.04 3.864 314.28 4.068L314.568 3.432C314.256 3.168 313.776 3.036 313.308 3.036C312.072 3.036 311.4 3.78 311.4 4.908V5.688H310.272V6.408H311.4V12H312.252V6.408H314.172V5.688H312.228V4.944C312.228 4.164 312.612 3.756 313.344 3.756ZM320.159 5.688V9C320.159 10.44 319.331 11.292 318.011 11.292C316.811 11.292 316.115 10.608 316.115 9.264V5.688H315.263V9.348C315.263 11.16 316.319 12.06 317.927 12.06C318.935 12.06 319.751 11.616 320.195 10.848V12H321.011V5.688H320.159ZM326.613 5.64C325.521 5.64 324.669 6.084 324.213 6.852V5.688H323.397V12H324.249V8.688C324.249 7.248 325.101 6.408 326.457 6.408C327.657 6.408 328.353 7.092 328.353 8.424V12H329.205V8.34C329.205 6.528 328.149 5.64 326.613 5.64ZM336.45 3.096V6.888C335.922 6.072 335.058 5.64 334.05 5.64C332.25 5.64 330.906 6.936 330.906 8.844C330.906 10.752 332.25 12.06 334.05 12.06C335.094 12.06 335.97 11.604 336.486 10.752V12H337.302V3.096H336.45ZM334.122 11.304C332.778 11.304 331.77 10.32 331.77 8.844C331.77 7.368 332.778 6.384 334.122 6.384C335.454 6.384 336.462 7.368 336.462 8.844C336.462 10.32 335.454 11.304 334.122 11.304ZM341.882 5.64C340.886 5.64 339.95 5.952 339.314 6.492L339.698 7.128C340.214 6.672 340.982 6.384 341.798 6.384C342.974 6.384 343.586 6.972 343.586 8.052V8.436H341.582C339.77 8.436 339.146 9.252 339.146 10.224C339.146 11.316 340.022 12.06 341.45 12.06C342.494 12.06 343.238 11.664 343.622 11.016V12H344.438V8.088C344.438 6.456 343.514 5.64 341.882 5.64ZM341.582 11.388C340.574 11.388 339.986 10.932 339.986 10.2C339.986 9.552 340.382 9.072 341.606 9.072H343.586V10.104C343.25 10.932 342.542 11.388 341.582 11.388ZM354.624 5.64C353.484 5.64 352.584 6.156 352.128 6.972C351.744 6.084 350.928 5.64 349.884 5.64C348.828 5.64 348.012 6.084 347.568 6.84V5.688H346.752V12H347.604V8.688C347.604 7.248 348.432 6.408 349.716 6.408C350.868 6.408 351.54 7.092 351.54 8.424V12H352.392V8.688C352.392 7.248 353.208 6.408 354.504 6.408C355.644 6.408 356.316 7.092 356.316 8.424V12H357.168V8.34C357.168 6.528 356.16 5.64 354.624 5.64ZM365.01 8.844C365.01 6.948 363.726 5.64 361.95 5.64C360.174 5.64 358.866 6.972 358.866 8.844C358.866 10.716 360.21 12.06 362.178 12.06C363.174 12.06 364.05 11.7 364.614 11.028L364.134 10.476C363.654 11.028 362.97 11.304 362.202 11.304C360.822 11.304 359.814 10.428 359.718 9.108H364.998C364.998 9.012 365.01 8.916 365.01 8.844ZM361.95 6.372C363.186 6.372 364.086 7.236 364.194 8.472H359.718C359.826 7.236 360.726 6.372 361.95 6.372ZM369.961 5.64C368.869 5.64 368.017 6.084 367.561 6.852V5.688H366.745V12H367.597V8.688C367.597 7.248 368.449 6.408 369.805 6.408C371.005 6.408 371.701 7.092 371.701 8.424V12H372.553V8.34C372.553 6.528 371.497 5.64 369.961 5.64ZM377.89 11.004C377.65 11.22 377.302 11.328 376.954 11.328C376.246 11.328 375.862 10.92 375.862 10.176V6.408H377.782V5.688H375.862V4.308H375.01V5.688H373.882V6.408H375.01V10.224C375.01 11.388 375.67 12.06 376.858 12.06C377.35 12.06 377.854 11.916 378.19 11.616L377.89 11.004ZM382.098 12.06C383.946 12.06 385.302 10.716 385.302 8.844C385.302 6.972 383.946 5.64 382.098 5.64C380.25 5.64 378.882 6.972 378.882 8.844C378.882 10.716 380.25 12.06 382.098 12.06ZM382.098 11.304C380.754 11.304 379.746 10.32 379.746 8.844C379.746 7.368 380.754 6.384 382.098 6.384C383.442 6.384 384.438 7.368 384.438 8.844C384.438 10.32 383.442 11.304 382.098 11.304Z" fill="white"/>
<path d="M150.774 12H151.662V3.6H150.774V12ZM157.431 5.64C156.339 5.64 155.487 6.084 155.031 6.852V5.688H154.215V12H155.067V8.688C155.067 7.248 155.919 6.408 157.275 6.408C158.475 6.408 159.171 7.092 159.171 8.424V12H160.023V8.34C160.023 6.528 158.967 5.64 157.431 5.64ZM164.976 12.06C166.044 12.06 166.944 11.628 167.448 10.812L166.812 10.38C166.38 11.016 165.708 11.304 164.976 11.304C163.596 11.304 162.588 10.332 162.588 8.844C162.588 7.368 163.596 6.384 164.976 6.384C165.708 6.384 166.38 6.684 166.812 7.32L167.448 6.888C166.944 6.06 166.044 5.64 164.976 5.64C163.092 5.64 161.724 6.96 161.724 8.844C161.724 10.728 163.092 12.06 164.976 12.06ZM173.958 5.688V9C173.958 10.44 173.13 11.292 171.81 11.292C170.61 11.292 169.914 10.608 169.914 9.264V5.688H169.062V9.348C169.062 11.16 170.118 12.06 171.726 12.06C172.734 12.06 173.55 11.616 173.994 10.848V12H174.81V5.688H173.958ZM180.448 5.64C179.44 5.64 178.576 6.072 178.048 6.888V3.096H177.196V12H178.012V10.752C178.528 11.604 179.404 12.06 180.448 12.06C182.248 12.06 183.592 10.752 183.592 8.844C183.592 6.936 182.248 5.64 180.448 5.64ZM180.388 11.304C179.044 11.304 178.036 10.32 178.036 8.844C178.036 7.368 179.044 6.384 180.388 6.384C181.72 6.384 182.74 7.368 182.74 8.844C182.74 10.32 181.72 11.304 180.388 11.304ZM187.501 5.64C186.505 5.64 185.569 5.952 184.933 6.492L185.317 7.128C185.833 6.672 186.601 6.384 187.417 6.384C188.593 6.384 189.205 6.972 189.205 8.052V8.436H187.201C185.389 8.436 184.765 9.252 184.765 10.224C184.765 11.316 185.641 12.06 187.069 12.06C188.113 12.06 188.857 11.664 189.241 11.016V12H190.057V8.088C190.057 6.456 189.133 5.64 187.501 5.64ZM187.201 11.388C186.193 11.388 185.605 10.932 185.605 10.2C185.605 9.552 186.001 9.072 187.225 9.072H189.205V10.104C188.869 10.932 188.161 11.388 187.201 11.388ZM195.011 11.304C193.631 11.304 192.623 10.332 192.623 8.844C192.623 7.368 193.631 6.384 195.011 6.384C195.743 6.384 196.415 6.684 196.847 7.32L197.483 6.888C196.979 6.06 196.079 5.64 195.011 5.64C193.127 5.64 191.759 6.96 191.759 8.844C191.759 10.548 192.875 11.796 194.483 12.024L194.219 13.02H194.495C194.999 13.02 195.239 13.248 195.239 13.572C195.239 13.932 194.975 14.136 194.495 14.136C194.207 14.136 193.943 14.064 193.703 13.908L193.499 14.364C193.787 14.556 194.111 14.64 194.507 14.64C195.311 14.64 195.863 14.244 195.863 13.596C195.863 13.068 195.503 12.684 194.843 12.624L194.987 12.06H195.011C196.079 12.06 196.979 11.628 197.483 10.812L196.847 10.38C196.415 11.016 195.743 11.304 195.011 11.304ZM200.633 3.828C201.113 3.828 201.461 4.644 202.205 4.644C202.841 4.644 203.261 4.128 203.285 3.348H202.769C202.745 3.804 202.505 4.092 202.145 4.092C201.677 4.092 201.317 3.276 200.573 3.276C199.937 3.276 199.517 3.792 199.493 4.596H200.009C200.033 4.116 200.273 3.828 200.633 3.828ZM201.365 5.64C200.369 5.64 199.433 5.952 198.797 6.492L199.181 7.128C199.697 6.672 200.465 6.384 201.281 6.384C202.457 6.384 203.069 6.972 203.069 8.052V8.436H201.065C199.253 8.436 198.629 9.252 198.629 10.224C198.629 11.316 199.505 12.06 200.933 12.06C201.977 12.06 202.721 11.664 203.105 11.016V12H203.921V8.088C203.921 6.456 202.997 5.64 201.365 5.64ZM201.065 11.388C200.057 11.388 199.469 10.932 199.469 10.2C199.469 9.552 199.865 9.072 201.089 9.072H203.069V10.104C202.733 10.932 202.025 11.388 201.065 11.388ZM208.838 12.06C210.686 12.06 212.042 10.716 212.042 8.844C212.042 6.972 210.686 5.64 208.838 5.64C206.99 5.64 205.622 6.972 205.622 8.844C205.622 10.716 206.99 12.06 208.838 12.06ZM208.838 11.304C207.494 11.304 206.486 10.32 206.486 8.844C206.486 7.368 207.494 6.384 208.838 6.384C210.182 6.384 211.178 7.368 211.178 8.844C211.178 10.32 210.182 11.304 208.838 11.304Z" fill="white"/>
<path d="M449.791 3.6H446.647V12H447.535V9.348H449.791C451.927 9.348 453.223 8.268 453.223 6.48C453.223 4.68 451.927 3.6 449.791 3.6ZM449.767 8.568H447.535V4.368H449.767C451.447 4.368 452.335 5.136 452.335 6.48C452.335 7.8 451.447 8.568 449.767 8.568ZM455.615 6.924V5.688H454.799V12H455.651V8.784C455.651 7.296 456.455 6.456 457.775 6.456C457.835 6.456 457.907 6.468 457.979 6.468V5.64C456.815 5.64 456.011 6.084 455.615 6.924ZM462.043 12.06C463.891 12.06 465.247 10.716 465.247 8.844C465.247 6.972 463.891 5.64 462.043 5.64C460.195 5.64 458.827 6.972 458.827 8.844C458.827 10.716 460.195 12.06 462.043 12.06ZM462.043 11.304C460.699 11.304 459.691 10.32 459.691 8.844C459.691 7.368 460.699 6.384 462.043 6.384C463.387 6.384 464.383 7.368 464.383 8.844C464.383 10.32 463.387 11.304 462.043 11.304ZM471.895 3.096V6.888C471.367 6.072 470.503 5.64 469.495 5.64C467.695 5.64 466.351 6.936 466.351 8.844C466.351 10.752 467.695 12.06 469.495 12.06C470.539 12.06 471.415 11.604 471.931 10.752V12H472.747V3.096H471.895ZM469.567 11.304C468.223 11.304 467.215 10.32 467.215 8.844C467.215 7.368 468.223 6.384 469.567 6.384C470.899 6.384 471.907 7.368 471.907 8.844C471.907 10.32 470.899 11.304 469.567 11.304ZM479.956 5.688V9C479.956 10.44 479.128 11.292 477.808 11.292C476.608 11.292 475.912 10.608 475.912 9.264V5.688H475.06V9.348C475.06 11.16 476.116 12.06 477.724 12.06C478.732 12.06 479.548 11.616 479.992 10.848V12H480.808V5.688H479.956ZM486.218 11.004C485.978 11.22 485.63 11.328 485.282 11.328C484.574 11.328 484.19 10.92 484.19 10.176V6.408H486.11V5.688H484.19V4.308H483.338V5.688H482.21V6.408H483.338V10.224C483.338 11.388 483.998 12.06 485.186 12.06C485.678 12.06 486.182 11.916 486.518 11.616L486.218 11.004ZM488.501 4.308C488.861 4.308 489.125 4.032 489.125 3.684C489.125 3.36 488.849 3.096 488.501 3.096C488.153 3.096 487.877 3.372 487.877 3.696C487.877 4.032 488.153 4.308 488.501 4.308ZM488.069 12H488.921V5.688H488.069V12ZM491.7 11.292L495.672 6.252V5.688H490.68V6.408H494.58L490.608 11.436V12H495.744V11.292H491.7ZM499.628 5.64C498.632 5.64 497.696 5.952 497.06 6.492L497.444 7.128C497.96 6.672 498.728 6.384 499.544 6.384C500.72 6.384 501.332 6.972 501.332 8.052V8.436H499.328C497.516 8.436 496.892 9.252 496.892 10.224C496.892 11.316 497.768 12.06 499.196 12.06C500.24 12.06 500.984 11.664 501.368 11.016V12H502.184V8.088C502.184 6.456 501.26 5.64 499.628 5.64ZM499.328 11.388C498.32 11.388 497.732 10.932 497.732 10.2C497.732 9.552 498.128 9.072 499.352 9.072H501.332V10.104C500.996 10.932 500.288 11.388 499.328 11.388ZM507.138 11.304C505.758 11.304 504.75 10.332 504.75 8.844C504.75 7.368 505.758 6.384 507.138 6.384C507.87 6.384 508.542 6.684 508.974 7.32L509.61 6.888C509.106 6.06 508.206 5.64 507.138 5.64C505.254 5.64 503.886 6.96 503.886 8.844C503.886 10.548 505.002 11.796 506.61 12.024L506.346 13.02H506.622C507.126 13.02 507.366 13.248 507.366 13.572C507.366 13.932 507.102 14.136 506.622 14.136C506.334 14.136 506.07 14.064 505.83 13.908L505.626 14.364C505.914 14.556 506.238 14.64 506.634 14.64C507.438 14.64 507.99 14.244 507.99 13.596C507.99 13.068 507.63 12.684 506.97 12.624L507.114 12.06H507.138C508.206 12.06 509.106 11.628 509.61 10.812L508.974 10.38C508.542 11.016 507.87 11.304 507.138 11.304ZM512.76 3.828C513.24 3.828 513.588 4.644 514.332 4.644C514.968 4.644 515.388 4.128 515.412 3.348H514.896C514.872 3.804 514.632 4.092 514.272 4.092C513.804 4.092 513.444 3.276 512.7 3.276C512.064 3.276 511.644 3.792 511.62 4.596H512.136C512.16 4.116 512.4 3.828 512.76 3.828ZM513.492 5.64C512.496 5.64 511.56 5.952 510.924 6.492L511.308 7.128C511.824 6.672 512.592 6.384 513.408 6.384C514.584 6.384 515.196 6.972 515.196 8.052V8.436H513.192C511.38 8.436 510.756 9.252 510.756 10.224C510.756 11.316 511.632 12.06 513.06 12.06C514.104 12.06 514.848 11.664 515.232 11.016V12H516.048V8.088C516.048 6.456 515.124 5.64 513.492 5.64ZM513.192 11.388C512.184 11.388 511.596 10.932 511.596 10.2C511.596 9.552 511.992 9.072 513.216 9.072H515.196V10.104C514.86 10.932 514.152 11.388 513.192 11.388ZM520.965 12.06C522.813 12.06 524.169 10.716 524.169 8.844C524.169 6.972 522.813 5.64 520.965 5.64C519.117 5.64 517.749 6.972 517.749 8.844C517.749 10.716 519.117 12.06 520.965 12.06ZM520.965 11.304C519.621 11.304 518.613 10.32 518.613 8.844C518.613 7.368 519.621 6.384 520.965 6.384C522.309 6.384 523.305 7.368 523.305 8.844C523.305 10.32 522.309 11.304 520.965 11.304Z" fill="white"/>
<path d="M589.571 3.6H586.427V12H587.315V9.348H589.571C591.707 9.348 593.003 8.268 593.003 6.48C593.003 4.68 591.707 3.6 589.571 3.6ZM589.547 8.568H587.315V4.368H589.547C591.227 4.368 592.115 5.136 592.115 6.48C592.115 7.8 591.227 8.568 589.547 8.568ZM594.86 12H595.712V3.096H594.86V12ZM600.291 5.64C599.295 5.64 598.359 5.952 597.723 6.492L598.107 7.128C598.623 6.672 599.391 6.384 600.207 6.384C601.383 6.384 601.995 6.972 601.995 8.052V8.436H599.991C598.179 8.436 597.555 9.252 597.555 10.224C597.555 11.316 598.431 12.06 599.859 12.06C600.903 12.06 601.647 11.664 602.031 11.016V12H602.847V8.088C602.847 6.456 601.923 5.64 600.291 5.64ZM599.991 11.388C598.983 11.388 598.395 10.932 598.395 10.2C598.395 9.552 598.791 9.072 600.015 9.072H601.995V10.104C601.659 10.932 600.951 11.388 599.991 11.388ZM608.377 5.64C607.285 5.64 606.433 6.084 605.977 6.852V5.688H605.161V12H606.013V8.688C606.013 7.248 606.865 6.408 608.221 6.408C609.421 6.408 610.117 7.092 610.117 8.424V12H610.969V8.34C610.969 6.528 609.913 5.64 608.377 5.64ZM615.885 12.06C617.733 12.06 619.089 10.716 619.089 8.844C619.089 6.972 617.733 5.64 615.885 5.64C614.037 5.64 612.669 6.972 612.669 8.844C612.669 10.716 614.037 12.06 615.885 12.06ZM615.885 11.304C614.541 11.304 613.533 10.32 613.533 8.844C613.533 7.368 614.541 6.384 615.885 6.384C617.229 6.384 618.225 7.368 618.225 8.844C618.225 10.32 617.229 11.304 615.885 11.304ZM628.877 3.096V6.888C628.349 6.072 627.485 5.64 626.477 5.64C624.677 5.64 623.333 6.936 623.333 8.844C623.333 10.752 624.677 12.06 626.477 12.06C627.521 12.06 628.397 11.604 628.913 10.752V12H629.729V3.096H628.877ZM626.549 11.304C625.205 11.304 624.197 10.32 624.197 8.844C624.197 7.368 625.205 6.384 626.549 6.384C627.881 6.384 628.889 7.368 628.889 8.844C628.889 10.32 627.881 11.304 626.549 11.304ZM637.61 8.844C637.61 6.948 636.326 5.64 634.55 5.64C632.774 5.64 631.466 6.972 631.466 8.844C631.466 10.716 632.81 12.06 634.778 12.06C635.774 12.06 636.65 11.7 637.214 11.028L636.734 10.476C636.254 11.028 635.57 11.304 634.802 11.304C633.422 11.304 632.414 10.428 632.318 9.108H637.598C637.598 9.012 637.61 8.916 637.61 8.844ZM634.55 6.372C635.786 6.372 636.686 7.236 636.794 8.472H632.318C632.426 7.236 633.326 6.372 634.55 6.372ZM645.701 5.64C644.609 5.64 643.757 6.084 643.301 6.852V5.688H642.485V12H643.337V8.688C643.337 7.248 644.189 6.408 645.545 6.408C646.745 6.408 647.441 7.092 647.441 8.424V12H648.293V8.34C648.293 6.528 647.237 5.64 645.701 5.64ZM656.137 8.844C656.137 6.948 654.853 5.64 653.077 5.64C651.301 5.64 649.993 6.972 649.993 8.844C649.993 10.716 651.337 12.06 653.305 12.06C654.301 12.06 655.177 11.7 655.741 11.028L655.261 10.476C654.781 11.028 654.097 11.304 653.329 11.304C651.949 11.304 650.941 10.428 650.845 9.108H656.125C656.125 9.012 656.137 8.916 656.137 8.844ZM653.077 6.372C654.313 6.372 655.213 7.236 655.321 8.472H650.845C650.953 7.236 651.853 6.372 653.077 6.372ZM662.9 5.688V6.9C662.372 6.072 661.46 5.64 660.404 5.64C658.604 5.64 657.236 6.876 657.236 8.688C657.236 10.5 658.604 11.76 660.404 11.76C661.436 11.76 662.336 11.34 662.864 10.536V11.34C662.864 12.9 662.132 13.632 660.536 13.632C659.564 13.632 658.652 13.308 658.052 12.768L657.62 13.416C658.28 14.04 659.408 14.388 660.56 14.388C662.648 14.388 663.716 13.404 663.716 11.232V5.688H662.9ZM660.488 11.004C659.096 11.004 658.1 10.056 658.1 8.688C658.1 7.32 659.096 6.384 660.488 6.384C661.88 6.384 662.888 7.32 662.888 8.688C662.888 10.056 661.88 11.004 660.488 11.004ZM667.886 4.716H668.726L670.67 3.228H669.53L667.886 4.716ZM668.678 12.06C670.526 12.06 671.882 10.716 671.882 8.844C671.882 6.972 670.526 5.64 668.678 5.64C666.83 5.64 665.462 6.972 665.462 8.844C665.462 10.716 666.83 12.06 668.678 12.06ZM668.678 11.304C667.334 11.304 666.326 10.32 666.326 8.844C666.326 7.368 667.334 6.384 668.678 6.384C670.022 6.384 671.018 7.368 671.018 8.844C671.018 10.32 670.022 11.304 668.678 11.304ZM676.238 12.06C677.306 12.06 678.206 11.628 678.71 10.812L678.074 10.38C677.642 11.016 676.97 11.304 676.238 11.304C674.858 11.304 673.85 10.332 673.85 8.844C673.85 7.368 674.858 6.384 676.238 6.384C676.97 6.384 677.642 6.684 678.074 7.32L678.71 6.888C678.206 6.06 677.306 5.64 676.238 5.64C674.354 5.64 672.986 6.96 672.986 8.844C672.986 10.728 674.354 12.06 676.238 12.06ZM680.815 4.308C681.175 4.308 681.439 4.032 681.439 3.684C681.439 3.36 681.163 3.096 680.815 3.096C680.467 3.096 680.191 3.372 680.191 3.696C680.191 4.032 680.467 4.308 680.815 4.308ZM680.383 12H681.235V5.688H680.383V12ZM686.186 12.06C688.034 12.06 689.39 10.716 689.39 8.844C689.39 6.972 688.034 5.64 686.186 5.64C684.338 5.64 682.97 6.972 682.97 8.844C682.97 10.716 684.338 12.06 686.186 12.06ZM686.186 11.304C684.842 11.304 683.834 10.32 683.834 8.844C683.834 7.368 684.842 6.384 686.186 6.384C687.53 6.384 688.526 7.368 688.526 8.844C688.526 10.32 687.53 11.304 686.186 11.304Z" fill="white"/>
<line x1="42" y1="38.5" x2="169" y2="38.5" stroke="#559484"/>
<line x1="498" y1="38.5" x2="625" y2="38.5" stroke="white" stroke-opacity="0.4"/>
<line x1="194" y1="38.5" x2="321" y2="38.5" stroke="#EA7171"/>
<circle cx="181.5" cy="37.5" r="12.5" transform="rotate(-90 181.5 37.5)" fill="#EA7171"/>
<path d="M181.412 35.5H188L179.765 48V40.5H174L181.412 28V35.5ZM179.765 37.1667V34.0167L176.909 38.8333H181.412V42.495L184.922 37.1667H179.765Z" fill="white"/>
<circle cx="29.5" cy="37.5" r="12.5" transform="rotate(-90 29.5 37.5)" fill="#559484"/>
<path d="M28.2266 41.9522H31.7738C31.8893 40.9791 32.4257 40.176 33.2963 39.2993C33.3952 39.2005 34.0243 38.5974 34.0987 38.5115C34.7167 37.7972 35.104 36.9359 35.2162 36.0268C35.3283 35.1177 35.1606 34.1978 34.7324 33.373C34.3042 32.5483 33.6329 31.8522 32.7959 31.3649C31.9588 30.8776 30.9901 30.619 30.0011 30.6188C29.0122 30.6186 28.0433 30.8768 27.206 31.3638C26.3687 31.8507 25.6971 32.5466 25.2686 33.3712C24.84 34.1958 24.6719 35.1156 24.7836 36.0248C24.8953 36.9339 25.2823 37.7954 25.8999 38.5099C25.9752 38.5966 26.6061 39.2005 26.7032 39.2984C27.5747 40.176 28.1111 40.9791 28.2266 41.9522ZM31.7502 43.5713H28.2502V44.3809H31.7502V43.5713ZM24.5349 39.5235C23.7108 38.5709 23.1944 37.4223 23.045 36.2099C22.8957 34.9976 23.1195 33.7709 23.6908 32.6712C24.262 31.5714 25.1574 30.6433 26.2739 29.9938C27.3903 29.3443 28.6823 28.9998 30.0011 29C31.3199 29.0002 32.6118 29.3451 33.728 29.9949C34.8442 30.6447 35.7393 31.5731 36.3102 32.673C36.8811 33.773 37.1045 34.9997 36.9547 36.212C36.8049 37.4243 36.2881 38.5727 35.4637 39.5251C34.9212 40.1501 33.5002 41.1426 33.5002 42.357V44.3809C33.5002 44.8103 33.3158 45.2221 32.9876 45.5258C32.6594 45.8294 32.2143 46 31.7502 46H28.2502C27.786 46 27.3409 45.8294 27.0127 45.5258C26.6846 45.2221 26.5002 44.8103 26.5002 44.3809V42.357C26.5002 41.1426 25.0783 40.1501 24.5349 39.5235ZM30.8752 35.4789H33.0627L29.1252 40.3363V37.0981H26.9377L30.8752 32.2374V35.4797V35.4789Z" fill="white"/>
<circle r="2.5" transform="matrix(4.37114e-08 1 1 -4.37114e-08 100.5 38.5)" fill="#559484"/>
<circle r="2.5" transform="matrix(4.37114e-08 1 1 -4.37114e-08 257.5 38.5)" fill="#CF7E7E"/>
<circle r="2.5" transform="matrix(4.37114e-08 1 1 -4.37114e-08 488.5 38.5)" fill="white" fill-opacity="0.4"/>
<circle cx="637.5" cy="37.5" r="12.5" transform="rotate(-90 637.5 37.5)" fill="white" fill-opacity="0.5"/>
<circle cx="333.5" cy="37.5" r="12.5" transform="rotate(-90 333.5 37.5)" fill="#559484"/>
<path d="M332.646 30C336.314 30 339.291 32.9773 339.291 36.6457C339.291 40.3141 336.314 43.2913 332.646 43.2913C328.977 43.2913 326 40.3141 326 36.6457C326 32.9773 328.977 30 332.646 30ZM332.646 41.8145C335.501 41.8145 337.815 39.5011 337.815 36.6457C337.815 33.7895 335.501 31.4768 332.646 31.4768C329.79 31.4768 327.477 33.7895 327.477 36.6457C327.477 39.5011 329.79 41.8145 332.646 41.8145ZM338.911 41.8669L341 43.9552L339.955 45L337.867 42.911L338.911 41.8669Z" fill="white"/>
<path d="M632.604 31V43.4444H645.433V45H631V31H632.604ZM644.866 33.5612L646 34.661L641.424 39.0998L639.018 36.7672L635.576 40.1054L634.442 39.0057L639.018 34.5669L641.424 36.8994L644.866 33.5612Z" fill="#33383E"/>
<circle cx="485.5" cy="37.5" r="12" transform="rotate(-90 485.5 37.5)" fill="white" stroke="#559484"/>
<path d="M488.345 43.1408C487.808 44.4327 486.786 45.4599 485.5 46C484.214 45.4599 483.192 44.4327 482.655 43.1408H484.491C484.756 43.5401 485.098 43.8854 485.5 44.1557C485.902 43.8862 486.244 43.5401 486.51 43.1408H488.345ZM490.375 38.8994L492 40.7511V42.3244H479V40.7511L480.625 38.8994V34.16C480.625 31.3164 482.659 28.8964 485.5 28C488.34 28.8964 490.375 31.3164 490.375 34.16V38.8994ZM489.782 40.6915L488.75 39.5159V34.16C488.75 32.2675 487.474 30.5432 485.5 29.7349C483.526 30.5432 482.25 32.2667 482.25 34.16V39.5159L481.218 40.6915H489.782ZM485.5 35.7929C485.069 35.7929 484.656 35.6209 484.351 35.3146C484.046 35.0084 483.875 34.5931 483.875 34.16C483.875 33.727 484.046 33.3116 484.351 33.0054C484.656 32.6992 485.069 32.5271 485.5 32.5271C485.931 32.5271 486.344 32.6992 486.649 33.0054C486.954 33.3116 487.125 33.727 487.125 34.16C487.125 34.5931 486.954 35.0084 486.649 35.3146C486.344 35.6209 485.931 35.7929 485.5 35.7929Z" fill="#559484"/>
<circle r="2.5" transform="matrix(4.37114e-08 1 1 -4.37114e-08 409.5 38.5)" fill="#559484"/>
<circle r="2.5" transform="matrix(4.37114e-08 1 1 -4.37114e-08 561.5 38.5)" fill="#85888B"/>
</svg>
