<svg width="237" height="49" viewBox="0 0 237 49" fill="none" xmlns="http://www.w3.org/2000/svg">
<path d="M51.6382 23H30.6382V26H51.6382V23Z" fill="#4AA6A4"/>
<path d="M106.487 21.1525L89.5165 4.18198C87.7591 2.42462 84.9099 2.42462 83.1525 4.18198L66.182 21.1525C64.4246 22.9099 64.4246 25.7591 66.182 27.5165L83.1525 44.4871C84.9099 46.2444 87.7591 46.2444 89.5165 44.4871L106.487 27.5165C108.244 25.7591 108.244 22.9099 106.487 21.1525Z" stroke="#4AA6A4"/>
<path d="M207.638 23H186.638V26H207.638V23Z" fill="#BEBEBE"/>
<path d="M72 23H51V26H72V23Z" fill="#4AA6A4"/>
<path d="M234.113 22.1421L222.799 10.8284C221.237 9.26633 218.704 9.26633 217.142 10.8284L205.828 22.1421C204.266 23.7042 204.266 26.2369 205.828 27.799L217.142 39.1127C218.704 40.6748 221.237 40.6748 222.799 39.1127L234.113 27.799C235.675 26.2369 235.675 23.7042 234.113 22.1421Z" fill="#BEBEBE"/>
<path d="M168.113 22.1421L156.799 10.8284C155.237 9.26633 152.704 9.26633 151.142 10.8284L139.828 22.1421C138.266 23.7042 138.266 26.2369 139.828 27.799L151.142 39.1127C152.704 40.6748 155.237 40.6748 156.799 39.1127L168.113 27.799C169.675 26.2369 169.675 23.7042 168.113 22.1421Z" fill="#BEBEBE"/>
<path d="M31.1127 22.1411L19.799 10.8274C18.2369 9.26526 15.7042 9.26526 14.1421 10.8274L2.8284 22.1411C1.2663 23.7032 1.2663 26.2358 2.8284 27.7979L14.1421 39.1116C15.7042 40.6737 18.2369 40.6737 19.799 39.1116L31.1127 27.7979C32.6748 26.2358 32.6748 23.7032 31.1127 22.1411Z" fill="#4AA6A4"/>
<path d="M119.638 23H98.6382V26H119.638V23Z" fill="#4AA6A4"/>
<path d="M140.638 23H119.638V26H140.638V23Z" fill="#BEBEBE"/>
<path d="M187.638 23H166.638V26H187.638V23Z" fill="#BEBEBE"/>
<path d="M224.352 28.056H222.112V31H220.96V28.056H214.64V27.224L220.576 19.8H221.856L216.128 27.032H220.992V24.44H222.112V27.032H224.352V28.056Z" fill="white"/>
<path d="M153.64 24.6C154.813 24.664 155.704 24.984 156.312 25.56C156.931 26.1253 157.24 26.8667 157.24 27.784C157.24 28.424 157.085 28.9947 156.776 29.496C156.467 29.9867 156.008 30.376 155.4 30.664C154.792 30.952 154.051 31.096 153.176 31.096C152.365 31.096 151.597 30.968 150.872 30.712C150.157 30.4453 149.581 30.0933 149.144 29.656L149.704 28.744C150.077 29.128 150.573 29.4427 151.192 29.688C151.811 29.9227 152.472 30.04 153.176 30.04C154.093 30.04 154.803 29.8427 155.304 29.448C155.805 29.0427 156.056 28.488 156.056 27.784C156.056 27.0907 155.805 26.5467 155.304 26.152C154.803 25.7573 154.045 25.56 153.032 25.56H152.232V24.712L155.336 20.824H149.608V19.8H156.808V20.616L153.64 24.6Z" fill="white"/>
<path d="M17.936 19.8V31H16.784V20.824H14.144V19.8H17.936Z" fill="white"/>
<path d="M100.113 22.1421L88.799 10.8284C87.2369 9.26633 84.7042 9.26633 83.1421 10.8284L71.8284 22.1421C70.2663 23.7042 70.2663 26.2369 71.8284 27.799L83.1421 39.1127C84.7042 40.6748 87.2369 40.6748 88.799 39.1127L100.113 27.799C101.675 26.2369 101.675 23.7042 100.113 22.1421Z" fill="#4AA6A4"/>
<path d="M89.48 29.976V31H81.624V30.184L86.28 25.624C86.8667 25.048 87.2613 24.552 87.464 24.136C87.6773 23.7093 87.784 23.2827 87.784 22.856C87.784 22.1947 87.5547 21.6827 87.096 21.32C86.648 20.9467 86.0027 20.76 85.16 20.76C83.848 20.76 82.8293 21.176 82.104 22.008L81.288 21.304C81.7253 20.792 82.28 20.3973 82.952 20.12C83.6347 19.8427 84.4027 19.704 85.256 19.704C86.3973 19.704 87.2987 19.976 87.96 20.52C88.632 21.0533 88.968 21.7893 88.968 22.728C88.968 23.304 88.84 23.8587 88.584 24.392C88.328 24.9253 87.8427 25.5387 87.128 26.232L83.32 29.976H89.48Z" fill="white"/>
</svg>
