<svg width="244" height="49" viewBox="0 0 244 49" fill="none" xmlns="http://www.w3.org/2000/svg">
<path d="M58.6382 23H37.6382V26H58.6382V23Z" fill="#4AA6A4"/>
<path d="M44.4871 21.1525L27.5165 4.18198C25.7591 2.42462 22.9099 2.42462 21.1525 4.18198L4.18198 21.1525C2.42462 22.9099 2.42462 25.7591 4.18198 27.5165L21.1525 44.4871C22.9099 46.2444 25.7591 46.2444 27.5165 44.4871L44.4871 27.5165C46.2444 25.7591 46.2444 22.9099 44.4871 21.1525Z" stroke="#4AA6A4"/>
<path d="M214.638 23H193.638V26H214.638V23Z" fill="#BEBEBE"/>
<path d="M79 23H58V26H79V23Z" fill="#BEBEBE"/>
<path d="M241.113 22.1421L229.799 10.8284C228.237 9.26633 225.704 9.26633 224.142 10.8284L212.828 22.1421C211.266 23.7042 211.266 26.2369 212.828 27.799L224.142 39.1127C225.704 40.6748 228.237 40.6748 229.799 39.1127L241.113 27.799C242.675 26.2369 242.675 23.7042 241.113 22.1421Z" fill="#BEBEBE"/>
<path d="M175.113 22.1421L163.799 10.8284C162.237 9.26633 159.704 9.26633 158.142 10.8284L146.828 22.1421C145.266 23.7042 145.266 26.2369 146.828 27.799L158.142 39.1127C159.704 40.6748 162.237 40.6748 163.799 39.1127L175.113 27.799C176.675 26.2369 176.675 23.7042 175.113 22.1421Z" fill="#BEBEBE"/>
<path d="M38.1127 22.1411L26.799 10.8274C25.2369 9.26526 22.7042 9.26526 21.1421 10.8274L9.8284 22.1411C8.2663 23.7032 8.2663 26.2358 9.8284 27.7979L21.1421 39.1116C22.7042 40.6737 25.2369 40.6737 26.799 39.1116L38.1127 27.7979C39.6748 26.2358 39.6748 23.7032 38.1127 22.1411Z" fill="#4AA6A4"/>
<path d="M107.113 22.1421L95.799 10.8284C94.2369 9.26633 91.7042 9.26633 90.1421 10.8284L78.8284 22.1421C77.2663 23.7042 77.2663 26.2369 78.8284 27.799L90.1421 39.1127C91.7042 40.6748 94.2369 40.6748 95.799 39.1127L107.113 27.799C108.675 26.2369 108.675 23.7042 107.113 22.1421Z" fill="#BEBEBE"/>
<path d="M126.638 23H105.638V26H126.638V23Z" fill="#BEBEBE"/>
<path d="M147.638 23H126.638V26H147.638V23Z" fill="#BEBEBE"/>
<path d="M194.638 23H173.638V26H194.638V23Z" fill="#BEBEBE"/>
<path d="M231.352 28.056H229.112V31H227.96V28.056H221.64V27.224L227.576 19.8H228.856L223.128 27.032H227.992V24.44H229.112V27.032H231.352V28.056Z" fill="white"/>
<path d="M160.64 24.6C161.813 24.664 162.704 24.984 163.312 25.56C163.931 26.1253 164.24 26.8667 164.24 27.784C164.24 28.424 164.085 28.9947 163.776 29.496C163.467 29.9867 163.008 30.376 162.4 30.664C161.792 30.952 161.051 31.096 160.176 31.096C159.365 31.096 158.597 30.968 157.872 30.712C157.157 30.4453 156.581 30.0933 156.144 29.656L156.704 28.744C157.077 29.128 157.573 29.4427 158.192 29.688C158.811 29.9227 159.472 30.04 160.176 30.04C161.093 30.04 161.803 29.8427 162.304 29.448C162.805 29.0427 163.056 28.488 163.056 27.784C163.056 27.0907 162.805 26.5467 162.304 26.152C161.803 25.7573 161.045 25.56 160.032 25.56H159.232V24.712L162.336 20.824H156.608V19.8H163.808V20.616L160.64 24.6Z" fill="white"/>
<path d="M96.48 29.976V31H88.624V30.184L93.28 25.624C93.8667 25.048 94.2613 24.552 94.464 24.136C94.6773 23.7093 94.784 23.2827 94.784 22.856C94.784 22.1947 94.5547 21.6827 94.096 21.32C93.648 20.9467 93.0027 20.76 92.16 20.76C90.848 20.76 89.8293 21.176 89.104 22.008L88.288 21.304C88.7253 20.792 89.28 20.3973 89.952 20.12C90.6347 19.8427 91.4027 19.704 92.256 19.704C93.3973 19.704 94.2987 19.976 94.96 20.52C95.632 21.0533 95.968 21.7893 95.968 22.728C95.968 23.304 95.84 23.8587 95.584 24.392C95.328 24.9253 94.8427 25.5387 94.128 26.232L90.32 29.976H96.48Z" fill="white"/>
<path d="M24.9375 19.8V31H23.7855V20.824H21.1455V19.8H24.9375Z" fill="white"/>
</svg>
