<svg width="173" height="51" viewBox="0 0 173 51" fill="none" xmlns="http://www.w3.org/2000/svg">
<path d="M119.071 23H98.0706V26H119.071V23Z" fill="#4AA6A4"/>
<path d="M140.071 23H119.071V26H140.071V23Z" fill="#4AA6A4"/>
<path d="M77.0706 23H56.0706V26H77.0706V23Z" fill="#4AA6A4"/>
<path d="M56.0706 23H35.0706V26H56.0706V23Z" fill="#4AA6A4"/>
<path d="M163.123 21.7885L153.224 11.889C151.466 10.1317 148.617 10.1317 146.86 11.889L136.96 21.7885C135.203 23.5459 135.203 26.3951 136.96 28.1525L146.86 38.052C148.617 39.8093 151.466 39.8093 153.224 38.052L163.123 28.1525C164.88 26.3951 164.88 23.5459 163.123 21.7885Z" stroke="#4AA6A4"/>
<g filter="url(#filter0_d)">
<path d="M164.112 22.1421L152.798 10.8284C151.236 9.26633 148.704 9.26633 147.141 10.8284L135.828 22.1421C134.266 23.7042 134.266 26.2369 135.828 27.799L147.141 39.1127C148.704 40.6748 151.236 40.6748 152.798 39.1127L164.112 27.799C165.674 26.2369 165.674 23.7042 164.112 22.1421Z" fill="#4AA6A4"/>
</g>
<path d="M150.64 24.6C151.813 24.664 152.704 24.984 153.312 25.56C153.93 26.1253 154.24 26.8667 154.24 27.784C154.24 28.424 154.085 28.9947 153.776 29.496C153.466 29.9867 153.008 30.376 152.4 30.664C151.792 30.952 151.05 31.096 150.176 31.096C149.365 31.096 148.597 30.968 147.872 30.712C147.157 30.4453 146.581 30.0933 146.144 29.656L146.704 28.744C147.077 29.128 147.573 29.4427 148.192 29.688C148.81 29.9227 149.472 30.04 150.176 30.04C151.093 30.04 151.802 29.8427 152.304 29.448C152.805 29.0427 153.056 28.488 153.056 27.784C153.056 27.0907 152.805 26.5467 152.304 26.152C151.802 25.7573 151.045 25.56 150.032 25.56H149.232V24.712L152.336 20.824H146.608V19.8H153.808V20.616L150.64 24.6Z" fill="white"/>
<path d="M107.265 21.7888L90.2947 4.81821C88.5373 3.06085 85.688 3.06085 83.9307 4.81821L66.9601 21.7888C65.2028 23.5461 65.2028 26.3954 66.9601 28.1527L83.9307 45.1233C85.688 46.8807 88.5373 46.8807 90.2947 45.1233L107.265 28.1527C109.023 26.3954 109.023 23.5461 107.265 21.7888Z" stroke="#4AA6A4"/>
<g filter="url(#filter1_d)">
<path d="M101.183 22.1412L89.8693 10.8275C88.3072 9.26535 85.7746 9.26535 84.2125 10.8275L72.8988 22.1412C71.3367 23.7033 71.3367 26.2359 72.8988 27.798L84.2125 39.1117C85.7746 40.6738 88.3072 40.6738 89.8693 39.1117L101.183 27.798C102.745 26.2359 102.745 23.7033 101.183 22.1412Z" fill="#4AA6A4"/>
</g>
<path d="M90.5507 29.976V31H82.6947V30.184L87.3507 25.624C87.9373 25.048 88.332 24.552 88.5347 24.136C88.748 23.7093 88.8547 23.2827 88.8547 22.856C88.8547 22.1947 88.6253 21.6827 88.1667 21.32C87.7187 20.9467 87.0733 20.76 86.2307 20.76C84.9187 20.76 83.9 21.176 83.1747 22.008L82.3587 21.304C82.796 20.792 83.3507 20.3973 84.0227 20.12C84.7053 19.8427 85.4733 19.704 86.3267 19.704C87.468 19.704 88.3693 19.976 89.0307 20.52C89.7027 21.0533 90.0387 21.7893 90.0387 22.728C90.0387 23.304 89.9107 23.8587 89.6547 24.392C89.3987 24.9253 88.9133 25.5387 88.1987 26.232L84.3907 29.976H90.5507Z" fill="white"/>
<path d="M44.1942 21.7888L27.2236 4.81821C25.4662 3.06085 22.617 3.06085 20.8596 4.81821L3.88908 21.7888C2.13172 23.5461 2.13172 26.3954 3.88908 28.1527L20.8596 45.1233C22.617 46.8807 25.4662 46.8807 27.2236 45.1233L44.1942 28.1527C45.9515 26.3954 45.9515 23.5461 44.1942 21.7888Z" stroke="#4AA6A4"/>
<g filter="url(#filter2_d)">
<path d="M38.1818 22.1412L26.8681 10.8275C25.306 9.26535 22.7733 9.26535 21.2112 10.8275L9.89754 22.1412C8.33544 23.7033 8.33544 26.2359 9.89754 27.798L21.2112 39.1117C22.7733 40.6738 25.306 40.6738 26.8681 39.1117L38.1818 27.798C39.7439 26.2359 39.7439 23.7033 38.1818 22.1412Z" fill="#4AA6A4"/>
</g>
<path d="M25.0067 19.8V31H23.8547V20.824H21.2147V19.8H25.0067Z" fill="white"/>
<defs>
<filter id="filter0_d" x="126.999" y="5" width="45.9411" height="45.9411" filterUnits="userSpaceOnUse" color-interpolation-filters="sRGB">
<feFlood flood-opacity="0" result="BackgroundImageFix"/>
<feColorMatrix in="SourceAlpha" type="matrix" values="0 0 0 0 0 0 0 0 0 0 0 0 0 0 0 0 0 0 127 0"/>
<feOffset dy="3"/>
<feGaussianBlur stdDeviation="3"/>
<feColorMatrix type="matrix" values="0 0 0 0 0 0 0 0 0 0 0 0 0 0 0 0 0 0 0.161 0"/>
<feBlend mode="normal" in2="BackgroundImageFix" result="effect1_dropShadow"/>
<feBlend mode="normal" in="SourceGraphic" in2="effect1_dropShadow" result="shape"/>
</filter>
<filter id="filter1_d" x="64.0703" y="4.99902" width="45.9411" height="45.9411" filterUnits="userSpaceOnUse" color-interpolation-filters="sRGB">
<feFlood flood-opacity="0" result="BackgroundImageFix"/>
<feColorMatrix in="SourceAlpha" type="matrix" values="0 0 0 0 0 0 0 0 0 0 0 0 0 0 0 0 0 0 127 0"/>
<feOffset dy="3"/>
<feGaussianBlur stdDeviation="3"/>
<feColorMatrix type="matrix" values="0 0 0 0 0 0 0 0 0 0 0 0 0 0 0 0 0 0 0.161 0"/>
<feBlend mode="normal" in2="BackgroundImageFix" result="effect1_dropShadow"/>
<feBlend mode="normal" in="SourceGraphic" in2="effect1_dropShadow" result="shape"/>
</filter>
<filter id="filter2_d" x="1.06909" y="4.99902" width="45.9411" height="45.9411" filterUnits="userSpaceOnUse" color-interpolation-filters="sRGB">
<feFlood flood-opacity="0" result="BackgroundImageFix"/>
<feColorMatrix in="SourceAlpha" type="matrix" values="0 0 0 0 0 0 0 0 0 0 0 0 0 0 0 0 0 0 127 0"/>
<feOffset dy="3"/>
<feGaussianBlur stdDeviation="3"/>
<feColorMatrix type="matrix" values="0 0 0 0 0 0 0 0 0 0 0 0 0 0 0 0 0 0 0.161 0"/>
<feBlend mode="normal" in2="BackgroundImageFix" result="effect1_dropShadow"/>
<feBlend mode="normal" in="SourceGraphic" in2="effect1_dropShadow" result="shape"/>
</filter>
</defs>
</svg>
