<svg width="174" height="51" viewBox="0 0 174 51" fill="none" xmlns="http://www.w3.org/2000/svg">
<path d="M119.071 23H98.0706V26H119.071V23Z" fill="#BEBEBE"/>
<path d="M140.071 23H119.071V26H140.071V23Z" fill="#BEBEBE"/>
<path d="M77.0706 23H56.0706V26H77.0706V23Z" fill="#BEBEBE"/>
<path d="M56.0706 23H35.0706V26H56.0706V23Z" fill="#4AA6A4"/>
<path d="M163.123 21.7885L153.224 11.889C151.466 10.1317 148.617 10.1317 146.86 11.889L136.96 21.7885C135.203 23.5459 135.203 26.3951 136.96 28.1525L146.86 38.052C148.617 39.8093 151.466 39.8093 153.224 38.052L163.123 28.1525C164.88 26.3951 164.88 23.5459 163.123 21.7885Z" stroke="#4AA6A4"/>
<g filter="url(#filter0_d)">
<path d="M164.183 22.1421L152.869 10.8284C151.307 9.26633 148.775 9.26633 147.212 10.8284L135.899 22.1421C134.337 23.7042 134.337 26.2369 135.899 27.799L147.212 39.1127C148.775 40.6748 151.307 40.6748 152.869 39.1127L164.183 27.799C165.745 26.2369 165.745 23.7042 164.183 22.1421Z" fill="#BEBEBE"/>
</g>
<path d="M149.711 24.6C150.884 24.664 151.775 24.984 152.383 25.56C153.001 26.1253 153.311 26.8667 153.311 27.784C153.311 28.424 153.156 28.9947 152.847 29.496C152.537 29.9867 152.079 30.376 151.471 30.664C150.863 30.952 150.121 31.096 149.247 31.096C148.436 31.096 147.668 30.968 146.943 30.712C146.228 30.4453 145.652 30.0933 145.215 29.656L145.775 28.744C146.148 29.128 146.644 29.4427 147.263 29.688C147.881 29.9227 148.543 30.04 149.247 30.04C150.164 30.04 150.873 29.8427 151.375 29.448C151.876 29.0427 152.127 28.488 152.127 27.784C152.127 27.0907 151.876 26.5467 151.375 26.152C150.873 25.7573 150.116 25.56 149.103 25.56H148.303V24.712L151.407 20.824H145.679V19.8H152.879V20.616L149.711 24.6Z" fill="white"/>
<path d="M100.123 21.7885L90.2236 11.889C88.4662 10.1317 85.617 10.1317 83.8596 11.889L73.9602 21.7885C72.2028 23.5459 72.2028 26.3951 73.9602 28.1525L83.8596 38.052C85.617 39.8093 88.4662 39.8093 90.2236 38.052L100.123 28.1525C101.88 26.3951 101.88 23.5459 100.123 21.7885Z" stroke="#4AA6A4"/>
<g filter="url(#filter1_d)">
<path d="M101.183 22.1421L89.8693 10.8284C88.3072 9.26633 85.7746 9.26633 84.2125 10.8284L72.8988 22.1421C71.3367 23.7042 71.3367 26.2369 72.8988 27.799L84.2125 39.1127C85.7746 40.6748 88.3072 40.6748 89.8693 39.1127L101.183 27.799C102.745 26.2369 102.745 23.7042 101.183 22.1421Z" fill="#BEBEBE"/>
</g>
<path d="M90.5507 29.976V31H82.6947V30.184L87.3507 25.624C87.9373 25.048 88.332 24.552 88.5347 24.136C88.748 23.7093 88.8547 23.2827 88.8547 22.856C88.8547 22.1947 88.6253 21.6827 88.1667 21.32C87.7187 20.9467 87.0733 20.76 86.2307 20.76C84.9187 20.76 83.9 21.176 83.1747 22.008L82.3587 21.304C82.796 20.792 83.3507 20.3973 84.0227 20.12C84.7053 19.8427 85.4733 19.704 86.3267 19.704C87.468 19.704 88.3693 19.976 89.0307 20.52C89.7027 21.0533 90.0387 21.7893 90.0387 22.728C90.0387 23.304 89.9107 23.8587 89.6547 24.392C89.3987 24.9253 88.9133 25.5387 88.1987 26.232L84.3907 29.976H90.5507Z" fill="white"/>
<path d="M44.1942 21.7885L27.2236 4.81797C25.4662 3.06061 22.617 3.06061 20.8596 4.81797L3.88908 21.7885C2.13172 23.5459 2.13172 26.3951 3.88908 28.1525L20.8596 45.1231C22.617 46.8804 25.4662 46.8804 27.2236 45.1231L44.1942 28.1525C45.9515 26.3951 45.9515 23.5459 44.1942 21.7885Z" stroke="#4AA6A4"/>
<g filter="url(#filter2_d)">
<path d="M38.1818 22.1412L26.8681 10.8275C25.306 9.26535 22.7733 9.26535 21.2112 10.8275L9.89754 22.1412C8.33544 23.7033 8.33544 26.2359 9.89754 27.798L21.2112 39.1117C22.7733 40.6738 25.306 40.6738 26.8681 39.1117L38.1818 27.798C39.7439 26.2359 39.7439 23.7033 38.1818 22.1412Z" fill="#4AA6A4"/>
</g>
<path d="M25.0067 19.8V31H23.8547V20.824H21.2147V19.8H25.0067Z" fill="white"/>
<defs>
<filter id="filter0_d" x="127.07" y="5" width="45.9411" height="45.9411" filterUnits="userSpaceOnUse" color-interpolation-filters="sRGB">
<feFlood flood-opacity="0" result="BackgroundImageFix"/>
<feColorMatrix in="SourceAlpha" type="matrix" values="0 0 0 0 0 0 0 0 0 0 0 0 0 0 0 0 0 0 127 0"/>
<feOffset dy="3"/>
<feGaussianBlur stdDeviation="3"/>
<feColorMatrix type="matrix" values="0 0 0 0 0 0 0 0 0 0 0 0 0 0 0 0 0 0 0.161 0"/>
<feBlend mode="normal" in2="BackgroundImageFix" result="effect1_dropShadow"/>
<feBlend mode="normal" in="SourceGraphic" in2="effect1_dropShadow" result="shape"/>
</filter>
<filter id="filter1_d" x="64.0703" y="5" width="45.9411" height="45.9411" filterUnits="userSpaceOnUse" color-interpolation-filters="sRGB">
<feFlood flood-opacity="0" result="BackgroundImageFix"/>
<feColorMatrix in="SourceAlpha" type="matrix" values="0 0 0 0 0 0 0 0 0 0 0 0 0 0 0 0 0 0 127 0"/>
<feOffset dy="3"/>
<feGaussianBlur stdDeviation="3"/>
<feColorMatrix type="matrix" values="0 0 0 0 0 0 0 0 0 0 0 0 0 0 0 0 0 0 0.161 0"/>
<feBlend mode="normal" in2="BackgroundImageFix" result="effect1_dropShadow"/>
<feBlend mode="normal" in="SourceGraphic" in2="effect1_dropShadow" result="shape"/>
</filter>
<filter id="filter2_d" x="1.06909" y="4.99902" width="45.9411" height="45.9411" filterUnits="userSpaceOnUse" color-interpolation-filters="sRGB">
<feFlood flood-opacity="0" result="BackgroundImageFix"/>
<feColorMatrix in="SourceAlpha" type="matrix" values="0 0 0 0 0 0 0 0 0 0 0 0 0 0 0 0 0 0 127 0"/>
<feOffset dy="3"/>
<feGaussianBlur stdDeviation="3"/>
<feColorMatrix type="matrix" values="0 0 0 0 0 0 0 0 0 0 0 0 0 0 0 0 0 0 0.161 0"/>
<feBlend mode="normal" in2="BackgroundImageFix" result="effect1_dropShadow"/>
<feBlend mode="normal" in="SourceGraphic" in2="effect1_dropShadow" result="shape"/>
</filter>
</defs>
</svg>
