<svg width="245" height="49" viewBox="0 0 245 49" fill="none" xmlns="http://www.w3.org/2000/svg">
<path d="M51.6382 22H30.6382V25H51.6382V22Z" fill="#4AA6A4"/>
<path d="M240.487 21.1525L223.516 4.18198C221.759 2.42462 218.91 2.42462 217.153 4.18198L200.182 21.1525C198.425 22.9099 198.425 25.7591 200.182 27.5165L217.153 44.4871C218.91 46.2444 221.759 46.2444 223.516 44.4871L240.487 27.5165C242.244 25.7591 242.244 22.9099 240.487 21.1525Z" stroke="#4AA6A4"/>
<path d="M207.638 22H186.638V25H207.638V22Z" fill="#4AA6A4"/>
<path d="M72 22H51V25H72V22Z" fill="#4AA6A4"/>
<path d="M234.113 21.1421L222.799 9.82843C221.237 8.26633 218.704 8.26633 217.142 9.82843L205.828 21.1421C204.266 22.7042 204.266 25.2369 205.828 26.799L217.142 38.1127C218.704 39.6748 221.237 39.6748 222.799 38.1127L234.113 26.799C235.675 25.2369 235.675 22.7042 234.113 21.1421Z" fill="#4AA6A4"/>
<path d="M168.113 21.1421L156.799 9.82843C155.237 8.26633 152.704 8.26633 151.142 9.82843L139.828 21.1421C138.266 22.7042 138.266 25.2369 139.828 26.799L151.142 38.1127C152.704 39.6748 155.237 39.6748 156.799 38.1127L168.113 26.799C169.675 25.2369 169.675 22.7042 168.113 21.1421Z" fill="#4AA6A4"/>
<path d="M31.1127 21.1411L19.799 9.82736C18.2369 8.26526 15.7042 8.26526 14.1421 9.82736L2.82843 21.1411C1.26633 22.7032 1.26633 25.2358 2.82843 26.7979L14.1421 38.1116C15.7042 39.6737 18.2369 39.6737 19.799 38.1116L31.1127 26.7979C32.6748 25.2358 32.6748 22.7032 31.1127 21.1411Z" fill="#4AA6A4"/>
<path d="M119.638 22H98.6382V25H119.638V22Z" fill="#4AA6A4"/>
<path d="M140.638 22H119.638V25H140.638V22Z" fill="#4AA6A4"/>
<path d="M187.638 22H166.638V25H187.638V22Z" fill="#4AA6A4"/>
<path d="M224.352 27.056H222.112V30H220.96V27.056H214.64V26.224L220.576 18.8H221.856L216.128 26.032H220.992V23.44H222.112V26.032H224.352V27.056Z" fill="white"/>
<path d="M153.64 23.6C154.813 23.664 155.704 23.984 156.312 24.56C156.931 25.1253 157.24 25.8667 157.24 26.784C157.24 27.424 157.085 27.9947 156.776 28.496C156.467 28.9867 156.008 29.376 155.4 29.664C154.792 29.952 154.051 30.096 153.176 30.096C152.365 30.096 151.597 29.968 150.872 29.712C150.157 29.4453 149.581 29.0933 149.144 28.656L149.704 27.744C150.077 28.128 150.573 28.4427 151.192 28.688C151.811 28.9227 152.472 29.04 153.176 29.04C154.093 29.04 154.803 28.8427 155.304 28.448C155.805 28.0427 156.056 27.488 156.056 26.784C156.056 26.0907 155.805 25.5467 155.304 25.152C154.803 24.7573 154.045 24.56 153.032 24.56H152.232V23.712L155.336 19.824H149.608V18.8H156.808V19.616L153.64 23.6Z" fill="white"/>
<path d="M17.936 18.8V30H16.784V19.824H14.144V18.8H17.936Z" fill="white"/>
<path d="M100.113 21.1421L88.799 9.82843C87.2369 8.26633 84.7043 8.26633 83.1422 9.82843L71.8285 21.1421C70.2664 22.7042 70.2664 25.2369 71.8285 26.799L83.1422 38.1127C84.7043 39.6748 87.2369 39.6748 88.799 38.1127L100.113 26.799C101.675 25.2369 101.675 22.7042 100.113 21.1421Z" fill="#4AA6A4"/>
<path d="M89.48 28.976V30H81.624V29.184L86.28 24.624C86.8667 24.048 87.2614 23.552 87.464 23.136C87.6774 22.7093 87.784 22.2827 87.784 21.856C87.784 21.1947 87.5547 20.6827 87.096 20.32C86.648 19.9467 86.0027 19.76 85.16 19.76C83.848 19.76 82.8294 20.176 82.104 21.008L81.288 20.304C81.7254 19.792 82.28 19.3973 82.952 19.12C83.6347 18.8427 84.4027 18.704 85.256 18.704C86.3974 18.704 87.2987 18.976 87.96 19.52C88.632 20.0533 88.968 20.7893 88.968 21.728C88.968 22.304 88.84 22.8587 88.584 23.392C88.328 23.9253 87.8427 24.5387 87.128 25.232L83.32 28.976H89.48Z" fill="white"/>
</svg>
