<svg width="12" height="13" viewBox="0 0 12 13" fill="none" xmlns="http://www.w3.org/2000/svg">
<path d="M6 12.016C4.81331 12.016 3.65328 11.6641 2.66658 11.0048C1.67989 10.3455 0.910851 9.40845 0.456726 8.31209C0.00259972 7.21574 -0.11622 6.00934 0.115291 4.84545C0.346802 3.68157 0.918247 2.61247 1.75736 1.77335C2.59648 0.934238 3.66558 0.362794 4.82946 0.131282C5.99335 -0.100229 7.19975 0.0185909 8.2961 0.472717C9.39246 0.926843 10.3295 1.69588 10.9888 2.68257C11.6481 3.66927 12 4.82931 12 6.01599C12 7.60729 11.3679 9.13342 10.2426 10.2586C9.11742 11.3839 7.5913 12.016 6 12.016ZM6 10.816C6.94935 10.816 7.87738 10.5345 8.66674 10.007C9.4561 9.47962 10.0713 8.72996 10.4346 7.85287C10.7979 6.97579 10.893 6.01067 10.7078 5.07956C10.5226 4.14845 10.0654 3.29317 9.39412 2.62188C8.72282 1.95059 7.86755 1.49343 6.93644 1.30822C6.00533 1.12302 5.04021 1.21807 4.16312 1.58137C3.28604 1.94467 2.53638 2.5599 2.00895 3.34926C1.48152 4.13861 1.2 5.06664 1.2 6.01599C1.2 7.28903 1.70572 8.50993 2.60589 9.41011C3.50606 10.3103 4.72696 10.816 6 10.816ZM5.4 3.01599H6.6V4.21599H5.4V3.01599ZM5.4 5.41599H6.6V9.01599H5.4V5.41599Z" fill="white"/>
</svg>
