<svg width="9" height="12" viewBox="0 0 9 12" fill="none" xmlns="http://www.w3.org/2000/svg">
<path d="M0.166687 11.9167C0.166687 10.7674 0.623233 9.6652 1.43589 8.85254C2.24855 8.03989 3.35075 7.58334 4.50002 7.58334C5.64929 7.58334 6.75149 8.03989 7.56415 8.85254C8.37681 9.6652 8.83335 10.7674 8.83335 11.9167H7.75002C7.75002 11.0547 7.40761 10.2281 6.79812 9.61858C6.18862 9.00908 5.36197 8.66667 4.50002 8.66667C3.63807 8.66667 2.81142 9.00908 2.20192 9.61858C1.59243 10.2281 1.25002 11.0547 1.25002 11.9167H0.166687ZM4.50002 7.04167C2.7044 7.04167 1.25002 5.5873 1.25002 3.79167C1.25002 1.99605 2.7044 0.541672 4.50002 0.541672C6.29564 0.541672 7.75002 1.99605 7.75002 3.79167C7.75002 5.5873 6.29564 7.04167 4.50002 7.04167ZM4.50002 5.95834C5.6971 5.95834 6.66669 4.98876 6.66669 3.79167C6.66669 2.59459 5.6971 1.62501 4.50002 1.62501C3.30294 1.62501 2.33335 2.59459 2.33335 3.79167C2.33335 4.98876 3.30294 5.95834 4.50002 5.95834Z" fill="#FFA238"/>
</svg>
