<svg id="perfil" xmlns="http://www.w3.org/2000/svg" xmlns:xlink="http://www.w3.org/1999/xlink" width="35.503" height="35.503" viewBox="0 0 35.503 35.503">
  <defs>
    <clipPath id="clip-path">
      <rect id="Retângulo_25" data-name="Retângulo 25" width="35.503" height="35.503" rx="17.751" transform="translate(1289.497 17.45)" fill="#a6a6aa"/>
    </clipPath>
  </defs>
  <rect id="Retângulo_25-2" data-name="Retângulo 25" width="35.503" height="35.503" rx="17.751" fill="#a6a6aa"/>
  <g id="Grupo_de_máscara_2" data-name="Grupo de máscara 2" transform="translate(-1289.497 -17.45)" clip-path="url(#clip-path)">
    <path id="Caminho_62" data-name="Caminho 62" d="M580.627,184.444a8.684,8.684,0,0,0-1.172-2.454c-1.294-1.736-9.438-4.314-9.8-4.6a19.664,19.664,0,0,1-1.5-1.833h-.078v-1.689a9.58,9.58,0,0,0,1.11-1.741,7.94,7.94,0,0,0,.42-1.968c1.342-.616,1.5-2.761,1.561-3.964.039-.83-.537-.594-.954-.319.136-.609.263-1.277.362-1.99.025-.184.043-.366.056-.544a17.148,17.148,0,0,0,.155-3.162l.486.2a7.7,7.7,0,0,0-1.585-2.628l.464-.289a5.327,5.327,0,0,0-2.488-.9,7.179,7.179,0,0,0-2.606-1.231,18.791,18.791,0,0,0-4.42-.407q.087.4.175.806a5.5,5.5,0,0,0-2.093-.878l.243,1.02-.913-.142.189,1.019-.551-.207.045,1.923-.4-.3c.312,1.938-.558,3.907-.333,5.857a5.132,5.132,0,0,0,.278,1.167c.046.19.1.4.167.635-.4-.243-.892-.385-.856.381.056,1.2.219,3.35,1.562,3.965a7.945,7.945,0,0,0,.421,1.967,9.556,9.556,0,0,0,1.078,1.7v1.729h-.078a19.671,19.671,0,0,1-1.5,1.833c-.357.29-8.5,2.868-9.8,4.6a8.688,8.688,0,0,0-1.172,2.454Z" transform="translate(743.377 -131.491)" opacity="0.25"/>
  </g>
</svg>
