<svg xmlns="http://www.w3.org/2000/svg" width="37" height="41.826" viewBox="0 0 37 41.826">
  <path id="Caminho_132" data-name="Caminho 132" d="M66.492,40.754,61.666,27.08a.8.8,0,0,0-.759-.537H50.451V15.283H65.734a.8.8,0,0,0,.719-1.164L63.416,8.044l3.038-6.075A.8.8,0,0,0,65.734.8H50.451a.8.8,0,0,0-.8-.8H46.43a.8.8,0,0,0-.8.8V26.543H35.169a.8.8,0,0,0-.759.537L29.584,40.754a.8.8,0,0,0,.759,1.072H65.734a.8.8,0,0,0,.759-1.072ZM64.432,2.413,61.8,7.684a.8.8,0,0,0,0,.719l2.635,5.271H50.451V12.065h2.413a.8.8,0,0,0,0-1.609H50.451V2.413Zm-17.2-.8h1.609V34.587H47.234V1.609ZM31.479,40.217l.568-1.609h3.121a.8.8,0,1,0,0-1.609H32.615l3.123-8.848h9.887v7.239a.8.8,0,0,0,.8.8h3.217a.8.8,0,0,0,.8-.8V28.152h9.887L64.6,40.217Z" transform="translate(-29.538 0)" fill="#4aa6a4"/>
</svg>
